<svg xmlns="http://www.w3.org/2000/svg" viewBox="0 0 900 480" width="900" height="480" font-family="'Segoe UI','Apple SD Gothic Neo','Malgun Gothic',sans-serif"> <style> @media (prefers-reduced-motion: reduce) { .bar, .milestone, .crit-path, .holiday-mark, .buffer-zone, .week-hdr, .lane-label { animation: none !important; opacity: 1 !important; } } .bg { fill: #FAFBFC; } .grid-line { stroke: #EBECF0; stroke-width: 0.5; } .header-bg { fill: #172B4D; } .header-text { fill: #fff; font-size: 10px; font-weight: 600; text-anchor: middle; } .lane-bg-even { fill: #F4F5F7; } .lane-bg-odd { fill: #FFFFFF; } .lane-label { font-size: 11px; font-weight: 700; fill: #172B4D; dominant-baseline: central; opacity: 0; animation: fadeIn 0.3s forwards; } .lane-label-bg { fill: #F4F5F7; } .bar { opacity: 0; } .bar-phase0 { fill: #6554C0; } .bar-phase1 { fill: #0052CC; } .bar-phase2 { fill: #FFAB00; } .bar-phase3 { fill: #36B37E; } .bar-buffer { fill: #DFE1E6; } .bar-text { fill: #fff; font-size: 8px; font-weight: 600; dominant-baseline: central; text-anchor: middle; pointer-events: none; } .milestone { opacity: 0; } .ms-diamond { fill: #FF5630; } .ms-text { fill: #172B4D; font-size: 8px; font-weight: 600; text-anchor: middle; } .holiday-hatch { fill: url(#hatch-holiday); opacity: 0.3; } .buffer-zone { fill: #DFE1E6; opacity: 0; } .buffer-text { fill: #6B778C; font-size: 10px; font-weight: 700; text-anchor: middle; dominant-baseline: central; } .crit-path { stroke: #FF5630; stroke-width: 2; stroke-dasharray: 6 3; fill: none; stroke-dashoffset: 2000; opacity: 0; } .crit-label { fill: #FF5630; font-size: 8px; font-weight: 700; opacity: 0; } .legend-text { font-size: 9px; fill: #6B778C; dominant-baseline: central; } @keyframes fadeIn { from { opacity: 0; } to { opacity: 1; } } @keyframes slideIn { from { opacity: 0; transform: translateX(-20px); } to { opacity: 1; transform: translateX(0); } } @keyframes popIn { 0% { opacity: 0; transform: scale(0); } 60% { transform: scale(1.3); } 100% { opacity: 1; transform: scale(1); } } @keyframes drawLine { from { stroke-dashoffset: 2000; opacity: 1; } to { stroke-dashoffset: 0; opacity: 1; } } @keyframes bufferFade { from { opacity: 0; } to { opacity: 0.25; } } .bar.w1 { animation: slideIn 0.4s 0.15s forwards; } .bar.w2 { animation: slideIn 0.4s 0.30s forwards; } .bar.w2w3 { animation: slideIn 0.4s 0.30s forwards; } .bar.w3 { animation: slideIn 0.4s 0.45s forwards; } .bar.w3w4 { animation: slideIn 0.4s 0.45s forwards; } .bar.w4 { animation: slideIn 0.4s 0.60s forwards; } .bar.w2w4 { animation: slideIn 0.4s 0.30s forwards; } .bar.w4w5 { animation: slideIn 0.4s 0.60s forwards; } .bar.w5 { animation: slideIn 0.4s 0.75s forwards; } .bar.w6w7 { animation: slideIn 0.4s 0.90s forwards; } .bar.w7 { animation: slideIn 0.4s 1.05s forwards; } .bar.w8 { animation: slideIn 0.4s 1.20s forwards; } .bar.w8w9 { animation: slideIn 0.4s 1.20s forwards; } .lane-label.l0 { animation-delay: 0s; } .lane-label.l1 { animation-delay: 0.05s; } .lane-label.l2 { animation-delay: 0.1s; } .lane-label.l3 { animation-delay: 0.15s; } .lane-label.l4 { animation-delay: 0.2s; } .milestone.m0 { animation: popIn 0.5s 1.6s forwards; } .milestone.m1 { animation: popIn 0.5s 2.0s forwards; } .milestone.m2 { animation: popIn 0.5s 2.4s forwards; } .milestone.m3 { animation: popIn 0.5s 2.8s forwards; } .milestone.m4 { animation: popIn 0.5s 3.2s forwards; } .crit-path { animation: drawLine 2s 3.5s forwards; } .crit-label { animation: fadeIn 0.5s 5.2s forwards; } .buffer-zone { animation: bufferFade 0.5s 0.6s forwards; } .week-hdr { opacity: 0; animation: fadeIn 0.2s forwards; } .week-hdr.wh1 { animation-delay: 0.0s; } .week-hdr.wh2 { animation-delay: 0.05s; } .week-hdr.wh3 { animation-delay: 0.1s; } .week-hdr.wh4 { animation-delay: 0.15s; } .week-hdr.wh5 { animation-delay: 0.2s; } .week-hdr.wh6 { animation-delay: 0.25s; } .week-hdr.wh7 { animation-delay: 0.3s; } .week-hdr.wh8 { animation-delay: 0.35s; } .week-hdr.wh9 { animation-delay: 0.4s; } </style> <defs> <pattern id="hatch-holiday" patternUnits="userSpaceOnUse" width="6" height="6" patternTransform="rotate(45)"> <line x1="0" y1="0" x2="0" y2="6" stroke="#FF5630" stroke-width="2"/> </pattern> </defs> <rect class="bg" width="900" height="480" rx="4"/> <rect class="header-bg" x="0" y="0" width="900" height="48" rx="4"/> <rect class="header-bg" x="0" y="30" width="900" height="18"/> <rect x="10" y="5" width="10" height="10" rx="2" fill="#6554C0"/> <text x="24" y="13" fill="#fff" font-size="8" dominant-baseline="central">Phase 0</text> <rect x="70" y="5" width="10" height="10" rx="2" fill="#0052CC"/> <text x="84" y="13" fill="#fff" font-size="8" dominant-baseline="central">Phase 1</text> <rect x="130" y="5" width="10" height="10" rx="2" fill="#FFAB00"/> <text x="144" y="13" fill="#fff" font-size="8" dominant-baseline="central">Phase 2</text> <rect x="190" y="5" width="10" height="10" rx="2" fill="#36B37E"/> <text x="204" y="13" fill="#fff" font-size="8" dominant-baseline="central">Phase 3</text> <line x1="240" y1="4" x2="240" y2="18" stroke="#fff" stroke-width="0.5" opacity="0.3"/> <rect x="250" y="5" width="10" height="10" rx="2" fill="none" stroke="#FF5630" stroke-width="1.5" stroke-dasharray="3 2"/> <text x="264" y="13" fill="#fff" font-size="8" dominant-baseline="central">크리티컬 패스</text> <rect x="330" y="5" width="10" height="10" rx="2" fill="url(#hatch-holiday)" stroke="#FF5630" stroke-width="0.5"/> <text x="344" y="13" fill="#fff" font-size="8" dominant-baseline="central">공휴일</text> <g class="week-hdr wh1"><text class="header-text" x="116" y="40">W1</text><text fill="#8993A4" font-size="7" text-anchor="middle" x="116" y="27">4/1-4/4</text></g> <g class="week-hdr wh2"><text class="header-text" x="208" y="40">W2</text><text fill="#8993A4" font-size="7" text-anchor="middle" x="208" y="27">4/7-4/11</text></g> <g class="week-hdr wh3"><text class="header-text" x="300" y="40">W3</text><text fill="#8993A4" font-size="7" text-anchor="middle" x="300" y="27">4/14-4/18</text></g> <g class="week-hdr wh4"><text class="header-text" x="393" y="40">W4</text><text fill="#8993A4" font-size="7" text-anchor="middle" x="393" y="27">4/21-4/25</text></g> <g class="week-hdr wh5"><text class="header-text" x="485" y="40">W5</text><text fill="#8993A4" font-size="7" text-anchor="middle" x="485" y="27">4/28-5/2</text></g> <g class="week-hdr wh6"><text class="header-text" x="577" y="40">W6</text><text fill="#8993A4" font-size="7" text-anchor="middle" x="577" y="27">5/5-5/9</text></g> <g class="week-hdr wh7"><text class="header-text" x="670" y="40">W7</text><text fill="#8993A4" font-size="7" text-anchor="middle" x="670" y="27">5/12-5/16</text></g> <g class="week-hdr wh8"><text class="header-text" x="762" y="40">W8</text><text fill="#8993A4" font-size="7" text-anchor="middle" x="762" y="27">5/19-5/23</text></g> <g class="week-hdr wh9"><text class="header-text" x="854" y="40">W9</text><text fill="#8993A4" font-size="7" text-anchor="middle" x="854" y="27">5/26-5/30</text></g> <line class="grid-line" x1="70" y1="48" x2="70" y2="440"/> <line class="grid-line" x1="162" y1="48" x2="162" y2="440"/> <line class="grid-line" x1="254" y1="48" x2="254" y2="440"/> <line class="grid-line" x1="347" y1="48" x2="347" y2="440"/> <line class="grid-line" x1="439" y1="48" x2="439" y2="440"/> <line class="grid-line" x1="531" y1="48" x2="531" y2="440"/> <line class="grid-line" x1="623" y1="48" x2="623" y2="440"/> <line class="grid-line" x1="716" y1="48" x2="716" y2="440"/> <line class="grid-line" x1="808" y1="48" x2="808" y2="440"/> <line class="grid-line" x1="900" y1="48" x2="900" y2="440"/> <rect class="lane-bg-even" x="0" y="48" width="900" height="60"/> <rect class="lane-bg-odd" x="0" y="108" width="900" height="60"/> <rect class="lane-bg-even" x="0" y="168" width="900" height="60"/> <rect class="lane-bg-odd" x="0" y="228" width="900" height="60"/> <rect class="lane-bg-even" x="0" y="288" width="900" height="60"/> <line class="grid-line" x1="0" y1="108" x2="900" y2="108"/> <line class="grid-line" x1="0" y1="168" x2="900" y2="168"/> <line class="grid-line" x1="0" y1="228" x2="900" y2="228"/> <line class="grid-line" x1="0" y1="288" x2="900" y2="288"/> <line class="grid-line" x1="0" y1="348" x2="900" y2="348"/> <rect class="lane-label-bg" x="0" y="48" width="70" height="300" opacity="0.85"/> <line stroke="#DFE1E6" stroke-width="1" x1="70" y1="48" x2="70" y2="348"/> <text class="lane-label l0" x="35" y="78" text-anchor="middle">BE-1</text> <text class="lane-label l1" x="35" y="138" text-anchor="middle">BE-2</text> <text class="lane-label l2" x="35" y="198" text-anchor="middle">DBA</text> <text class="lane-label l3" x="35" y="258" text-anchor="middle">SRE</text> <text class="lane-label l4" x="35" y="318" text-anchor="middle">QA</text> <rect class="holiday-hatch" x="510" y="48" width="20" height="300" rx="0"/> <rect class="holiday-hatch" x="531" y="48" width="30" height="300" rx="0"/> <rect class="buffer-zone" x="808" y="48" width="92" height="300" rx="0"/> <text class="buffer-text" x="854" y="356" opacity="0" style="animation: fadeIn 0.5s 1.4s forwards;">변경 동결</text> <g class="bar w1"><rect class="bar-phase0" x="72" y="56" width="88" height="22" rx="4"/><text class="bar-text" x="116" y="67">벤치마크</text></g> <g class="bar w2w3"><rect class="bar-phase1" x="164" y="56" width="178" height="22" rx="4"/><text class="bar-text" x="253" y="67">Lua gate_keeper 개발</text></g> <g class="bar w3w4"><rect class="bar-phase1" x="256" y="80" width="178" height="22" rx="4"/><text class="bar-text" x="345" y="91">Lua compensate 개발</text></g> <g class="bar w4"><rect class="bar-phase1" x="348" y="56" width="89" height="22" rx="4"/><text class="bar-text" x="393" y="67" font-size="7">Idempotency 구현</text></g> <g class="bar w5"><rect class="bar-phase1" x="441" y="80" width="88" height="22" rx="4"/><text class="bar-text" x="485" y="91" font-size="7">t_compensation_log</text></g> <g class="bar w6w7"><rect class="bar-phase2" x="533" y="56" width="180" height="22" rx="4"/><text class="bar-text" x="623" y="67" font-size="7">Shadow Mode 모니터링</text></g> <g class="bar w8"><rect class="bar-phase3" x="717" y="56" width="89" height="22" rx="4"/><text class="bar-text" x="762" y="67" font-size="7">MC 100% 전환</text></g> <g class="bar w1"><rect class="bar-phase0" x="72" y="116" width="88" height="22" rx="4"/><text class="bar-text" x="116" y="127">설계 리뷰</text></g> <g class="bar w2w4"><rect class="bar-phase1" x="164" y="116" width="270" height="22" rx="4"/><text class="bar-text" x="299" y="127">MC 서비스 통합</text></g> <g class="bar w4"><rect class="bar-phase1" x="348" y="140" width="89" height="22" rx="4"/><text class="bar-text" x="393" y="151">Feature Flag</text></g> <g class="bar w4w5"><rect class="bar-phase1" x="393" y="116" width="136" height="22" rx="4"/><text class="bar-text" x="461" y="127" font-size="7">Shadow Mode 구현</text></g> <g class="bar w5"><rect class="bar-phase1" x="441" y="140" width="88" height="22" rx="4"/><text class="bar-text" x="485" y="151" font-size="7">Reconciliation</text></g> <g class="bar w6w7"><rect class="bar-phase2" x="533" y="116" width="180" height="22" rx="4"/><text class="bar-text" x="623" y="127" font-size="7">검증 + 부하테스트</text></g> <g class="bar w8"><rect class="bar-phase3" x="717" y="116" width="89" height="22" rx="4"/><text class="bar-text" x="762" y="127">성능 검증</text></g> <g class="bar w1"><rect class="bar-phase0" x="72" y="180" width="88" height="22" rx="4"/><text class="bar-text" x="116" y="191" font-size="7">idx_scan 분석</text></g> <g class="bar w4w5"><rect class="bar-phase1" x="348" y="180" width="181" height="22" rx="4"/><text class="bar-text" x="439" y="191" font-size="7">롤백 DDL 리허설</text></g> <g class="bar w7"><rect class="bar-phase2" x="625" y="180" width="89" height="22" rx="4"/><text class="bar-text" x="670" y="191">부하 테스트</text></g> <g class="bar w8"><rect class="bar-phase3" x="717" y="180" width="89" height="22" rx="4"/><text class="bar-text" x="762" y="191" font-size="7">DROP INDEX</text></g> <g class="bar w1"><rect class="bar-phase0" x="72" y="240" width="88" height="22" rx="4"/><text class="bar-text" x="116" y="251" font-size="7">대시보드+알람</text></g> <g class="bar w2w3"><rect class="bar-phase1" x="164" y="240" width="178" height="22" rx="4"/><text class="bar-text" x="253" y="251">런북 작성</text></g> <g class="bar w6w7"><rect class="bar-phase2" x="533" y="240" width="180" height="22" rx="4"/><text class="bar-text" x="623" y="251" font-size="7">모니터링 검증</text></g> <g class="bar w8w9"><rect class="bar-phase3" x="717" y="240" width="89" height="22" rx="4"/><rect class="bar-buffer" x="808" y="240" width="89" height="22" rx="0 4 4 0"/><text class="bar-text" x="808" y="251" font-size="7">안정화 모니터링</text></g> <g class="bar w3w4"><rect class="bar-phase1" x="256" y="300" width="180" height="22" rx="4"/><text class="bar-text" x="346" y="311">TC 작성</text></g> <g class="bar w5"><rect class="bar-phase1" x="441" y="300" width="88" height="22" rx="4"/><text class="bar-text" x="485" y="311">기능 테스트</text></g> <g class="bar w6w7"><rect class="bar-phase2" x="533" y="300" width="180" height="22" rx="4"/><text class="bar-text" x="623" y="311" font-size="7">통합/회귀 테스트</text></g> <g class="bar w8"><rect class="bar-phase3" x="717" y="300" width="89" height="22" rx="4"/><text class="bar-text" x="762" y="311">최종 회귀</text></g> <rect fill="#FAFBFC" x="0" y="348" width="900" height="52"/> <line class="grid-line" x1="70" y1="348" x2="70" y2="400"/> <text x="35" y="374" text-anchor="middle" font-size="10" font-weight="700" fill="#6B778C" dominant-baseline="central">MS</text> <g class="milestone m0"> <polygon class="ms-diamond" points="162,367 170,374 162,381 154,374"/> <text class="ms-text" x="162" y="395">M0: 설계 확정</text> </g> <g class="milestone m1"> <polygon class="ms-diamond" points="531,367 539,374 531,381 523,374"/> <text class="ms-text" x="531" y="395">M1: MC 개발 완료</text> </g> <g class="milestone m2"> <polygon class="ms-diamond" points="716,367 724,374 716,381 708,374"/> <text class="ms-text" x="716" y="395">M2: 검증 완료</text> </g> <g class="milestone m3"> <polygon class="ms-diamond" points="808,367 816,374 808,381 800,374"/> <text class="ms-text" x="808" y="395">M3: 전환 완료</text> </g> <g class="milestone m4"> <polygon class="ms-diamond" points="886,367 894,374 886,381 878,374"/> <text class="ms-text" x="873" y="395">M4: 안정화</text> </g> <path class="crit-path" d="M 116,80 L 162,80 L 164,67 L 342,67 L 342,127 L 164,127 L 164,127 L 531,127 L 533,67 L 713,67 L 717,67 L 762,67"/> <polyline class="crit-path" points="116,78, 116,103, 253,103, 253,78, 299,138, 461,138, 461,103, 623,68, 762,68" style="stroke-dasharray:1200; stroke-dashoffset:1200; animation: drawLine 2s 3.5s forwards;"/> <text class="crit-label" x="400" y="420" font-size="9" text-anchor="middle">크리티컬 패스: 벤치마크 → Lua 개발 → MC 통합 → Shadow Mode → MC 100% 전환</text> <rect fill="#172B4D" x="0" y="440" width="900" height="40" rx="0"/> <text fill="#B3BAC5" font-size="9" x="450" y="455" text-anchor="middle">M3 프로젝트 타임라인 — 총 9주 (2025.04.01 ~ 2025.05.30)</text> <text fill="#8993A4" font-size="8" x="450" y="470" text-anchor="middle">Phase 0 준비 → Phase 1 개발 → Phase 2 검증 → Phase 3 전환 → Buffer 안정화</text> </svg>