<svg xmlns="http://www.w3.org/2000/svg" viewBox="0 0 700 350" width="700" height="350"> <style> @media (prefers-reduced-motion: reduce) { .area-animate { animation: none !important; opacity: 1 !important; } } .area-animate { opacity: 0; animation: fadeArea 0.5s ease-out forwards; } .a1 { animation-delay: 0s; } .a2 { animation-delay: 0.5s; } .a3 { animation-delay: 1.0s; } .a4 { animation-delay: 1.5s; } @keyframes fadeArea { from { opacity: 0; } to { opacity: 1; } } .font-base { font-family: -apple-system, BlinkMacSystemFont, 'Segoe UI', Roboto, sans-serif; } .title { font-size: 16px; font-weight: 700; fill: #172B4D; } .axis-label { font-size: 11px; fill: #6B778C; } .step-label { font-size: 11px; fill: #172B4D; font-weight: 600; } .sub-label { font-size: 10px; fill: #6B778C; } .badge { font-size: 10px; font-weight: 700; fill: #0052CC; } .annotation { font-size: 11px; fill: #FF5630; font-weight: 600; } .gridline { stroke: #EBECF0; stroke-width: 1; } .y-label { font-size: 10px; fill: #6B778C; text-anchor: end; } </style> <text x="350" y="24" text-anchor="middle" class="font-base title">중장기 로드맵: 누적 TPS 개선 곡선</text> <line x1="60" y1="280" x2="660" y2="280" class="gridline"/> <line x1="60" y1="258.6" x2="660" y2="258.6" class="gridline"/> <line x1="60" y1="237.3" x2="660" y2="237.3" class="gridline"/> <line x1="60" y1="215.9" x2="660" y2="215.9" class="gridline"/> <line x1="60" y1="194.5" x2="660" y2="194.5" class="gridline"/> <line x1="60" y1="173.2" x2="660" y2="173.2" class="gridline"/> <line x1="60" y1="151.8" x2="660" y2="151.8" class="gridline"/> <line x1="60" y1="130.5" x2="660" y2="130.5" class="gridline"/> <line x1="60" y1="109.1" x2="660" y2="109.1" class="gridline"/> <line x1="60" y1="87.7" x2="660" y2="87.7" class="gridline"/> <line x1="60" y1="66.4" x2="660" y2="66.4" class="gridline"/> <line x1="60" y1="45" x2="660" y2="45" class="gridline"/> <text x="55" y="283" class="font-base y-label">1x</text> <text x="55" y="262" class="font-base y-label">2x</text> <text x="55" y="240" class="font-base y-label">3x</text> <text x="55" y="219" class="font-base y-label">4x</text> <text x="55" y="198" class="font-base y-label">5x</text> <text x="55" y="176" class="font-base y-label">6x</text> <text x="55" y="155" class="font-base y-label">7x</text> <text x="55" y="134" class="font-base y-label">8x</text> <text x="55" y="112" class="font-base y-label">9x</text> <text x="55" y="91" class="font-base y-label">10x</text> <text x="55" y="70" class="font-base y-label">11x</text> <text x="55" y="48" class="font-base y-label">12x</text> <text x="135" y="298" text-anchor="middle" class="font-base axis-label">현재</text> <text x="285" y="298" text-anchor="middle" class="font-base axis-label">P0+P1 (4~5월)</text> <text x="435" y="298" text-anchor="middle" class="font-base axis-label">P2 (3분기)</text> <text x="585" y="298" text-anchor="middle" class="font-base axis-label">P3 (하반기)</text> <line x1="60" y1="280" x2="660" y2="280" stroke="#B3BAC5" stroke-width="1.5"/> <line x1="60" y1="45" x2="60" y2="280" stroke="#B3BAC5" stroke-width="1.5"/> <g class="area-animate a1"> <rect x="60" y="280" width="150" height="0" fill="#FFEBE6"/> <line x1="60" y1="280" x2="210" y2="280" stroke="#FF5630" stroke-width="2"/> <circle cx="135" cy="280" r="4" fill="#FF5630"/> <text x="135" y="275" text-anchor="middle" class="font-base step-label" style="fill:#FF5630">1.0x</text> </g> <g class="area-animate a2"> <rect x="210" y="228.7" width="150" height="51.3" fill="#DEEBFF" stroke="#0052CC" stroke-width="2" rx="0"/> <line x1="210" y1="280" x2="210" y2="228.7" stroke="#0052CC" stroke-width="2"/> <line x1="210" y1="228.7" x2="360" y2="228.7" stroke="#0052CC" stroke-width="2"/> <circle cx="285" cy="228.7" r="4" fill="#0052CC"/> <text x="285" y="222" text-anchor="middle" class="font-base step-label" style="fill:#0052CC">3.4x</text> <text x="285" y="258" text-anchor="middle" class="font-base sub-label">인덱스 정리 + MC 도입</text> <rect x="243" y="238" width="56" height="18" rx="9" fill="#0052CC"/> <text x="271" y="250" text-anchor="middle" class="font-base" style="font-size:10px;fill:white;font-weight:700">본 계획</text> </g> <g class="area-animate a3"> <rect x="360" y="194.5" width="150" height="85.5" fill="#EAE6FF" stroke="#6554C0" stroke-width="1.5" stroke-dasharray="5,3" rx="0"/> <line x1="360" y1="228.7" x2="360" y2="194.5" stroke="#6554C0" stroke-width="1.5" stroke-dasharray="5,3"/> <line x1="360" y1="194.5" x2="510" y2="194.5" stroke="#6554C0" stroke-width="1.5" stroke-dasharray="5,3"/> <circle cx="435" cy="194.5" r="4" fill="#6554C0"/> <text x="435" y="188" text-anchor="middle" class="font-base step-label" style="fill:#6554C0">~5.0x</text> <text x="435" y="240" text-anchor="middle" class="font-base sub-label">Read Model + Hotspot 분산</text> </g> <g class="area-animate a4"> <rect x="510" y="87.7" width="150" height="192.3" fill="#F4F5F7" stroke="#B3BAC5" stroke-width="1.5" stroke-dasharray="5,3" rx="0"/> <line x1="510" y1="194.5" x2="510" y2="87.7" stroke="#B3BAC5" stroke-width="1.5" stroke-dasharray="5,3"/> <line x1="510" y1="87.7" x2="660" y2="87.7" stroke="#B3BAC5" stroke-width="1.5" stroke-dasharray="5,3"/> <circle cx="585" cy="87.7" r="4" fill="#6B778C"/> <text x="585" y="81" text-anchor="middle" class="font-base step-label" style="fill:#6B778C">10x+</text> <text x="585" y="145" text-anchor="middle" class="font-base sub-label">파티셔닝</text> </g> <g class="area-animate a2"> <line x1="285" y1="310" x2="285" y2="270" stroke="#FF5630" stroke-width="1.5" marker-end="url(#arrowRed)"/> <text x="285" y="324" text-anchor="middle" class="font-base annotation">여기까지가 이번 프로젝트 범위</text> <line x1="210" y1="310" x2="360" y2="310" stroke="#FF5630" stroke-width="1.5"/> <line x1="210" y1="306" x2="210" y2="314" stroke="#FF5630" stroke-width="1.5"/> <line x1="360" y1="306" x2="360" y2="314" stroke="#FF5630" stroke-width="1.5"/> </g> <defs> <marker id="arrowRed" markerWidth="8" markerHeight="6" refX="8" refY="3" orient="auto"> <path d="M0,0 L8,3 L0,6 Z" fill="#FF5630"/> </marker> </defs> </svg>