<?xml version="1.0" encoding="utf-8" standalone="no"?>
<!DOCTYPE svg PUBLIC "-//W3C//DTD SVG 1.1//EN"
  "http://www.w3.org/Graphics/SVG/1.1/DTD/svg11.dtd">
<svg xmlns:xlink="http://www.w3.org/1999/xlink" width="1353.6pt" height="568.8pt" viewBox="0 0 1353.6 568.8" xmlns="http://www.w3.org/2000/svg" version="1.1">
 <metadata>
  <rdf:RDF xmlns:dc="http://purl.org/dc/elements/1.1/" xmlns:cc="http://creativecommons.org/ns#" xmlns:rdf="http://www.w3.org/1999/02/22-rdf-syntax-ns#">
   <cc:Work>
    <dc:type rdf:resource="http://purl.org/dc/dcmitype/StillImage"/>
    <dc:date>2026-02-20T19:05:59.145517</dc:date>
    <dc:format>image/svg+xml</dc:format>
    <dc:creator>
     <cc:Agent>
      <dc:title>Matplotlib v3.9.4, https://matplotlib.org/</dc:title>
     </cc:Agent>
    </dc:creator>
   </cc:Work>
  </rdf:RDF>
 </metadata>
 <defs>
  <style type="text/css">*{stroke-linejoin: round; stroke-linecap: butt}</style>
 </defs>
 <g id="figure_1">
  <g id="patch_1">
   <path d="M 0 568.8 
L 1353.6 568.8 
L 1353.6 0 
L 0 0 
z
" style="fill: #ffffff"/>
  </g>
  <g id="axes_1">
   <g id="line2d_1">
    <path d="M 110.215385 284.4 
L 1191.876923 284.4 
" clip-path="url(#pd3882d9f6b)" style="fill: none; stroke: #e5e7eb; stroke-width: 2.5; stroke-linecap: round"/>
   </g>
   <g id="line2d_2">
    <path d="M 161.723077 270.54 
L 161.723077 242.82 
" clip-path="url(#pd3882d9f6b)" style="fill: none; stroke: #e5e7eb; stroke-linecap: square"/>
   </g>
   <g id="line2d_3">
    <path d="M 573.784615 298.26 
L 573.784615 325.98 
" clip-path="url(#pd3882d9f6b)" style="fill: none; stroke: #e5e7eb; stroke-linecap: square"/>
   </g>
   <g id="line2d_4">
    <path d="M 779.815385 270.54 
L 728.307692 242.82 
" clip-path="url(#pd3882d9f6b)" style="fill: none; stroke: #e5e7eb; stroke-linecap: square"/>
   </g>
   <g id="line2d_5">
    <path d="M 882.830769 298.26 
L 934.338462 325.98 
" clip-path="url(#pd3882d9f6b)" style="fill: none; stroke: #e5e7eb; stroke-linecap: square"/>
   </g>
   <g id="line2d_6">
    <path d="M 985.846154 270.54 
L 1037.353846 242.82 
" clip-path="url(#pd3882d9f6b)" style="fill: none; stroke: #e5e7eb; stroke-linecap: square"/>
   </g>
   <g id="line2d_7">
    <path d="M 1088.861538 298.26 
L 1171.273846 325.98 
" clip-path="url(#pd3882d9f6b)" style="fill: none; stroke: #e5e7eb; stroke-linecap: square"/>
   </g>
   <g id="patch_2">
    <path d="M 165.843692 257.7888 
L 260.617846 257.7888 
Q 264.738462 257.7888 264.738462 255.5712 
L 264.738462 252.2448 
Q 264.738462 250.0272 260.617846 250.0272 
L 165.843692 250.0272 
Q 161.723077 250.0272 161.723077 252.2448 
L 161.723077 255.5712 
Q 161.723077 257.7888 165.843692 257.7888 
z
" clip-path="url(#pd3882d9f6b)" style="fill: #3b82f6; opacity: 0.2"/>
   </g>
   <g id="patch_3">
    <path d="M 268.859077 257.7888 
L 672.679385 257.7888 
Q 676.8 257.7888 676.8 255.5712 
L 676.8 252.2448 
Q 676.8 250.0272 672.679385 250.0272 
L 268.859077 250.0272 
Q 264.738462 250.0272 264.738462 252.2448 
L 264.738462 255.5712 
Q 264.738462 257.7888 268.859077 257.7888 
z
" clip-path="url(#pd3882d9f6b)" style="fill: #1d4ed8; opacity: 0.15"/>
   </g>
   <g id="patch_4">
    <path d="M 680.920615 257.7888 
L 878.710154 257.7888 
Q 882.830769 257.7888 882.830769 255.5712 
L 882.830769 252.2448 
Q 882.830769 250.0272 878.710154 250.0272 
L 680.920615 250.0272 
Q 676.8 250.0272 676.8 252.2448 
L 676.8 255.5712 
Q 676.8 257.7888 680.920615 257.7888 
z
" clip-path="url(#pd3882d9f6b)" style="fill: #f59e0b; opacity: 0.2"/>
   </g>
   <g id="patch_5">
    <path d="M 886.951385 257.7888 
L 1084.740923 257.7888 
Q 1088.861538 257.7888 1088.861538 255.5712 
L 1088.861538 252.2448 
Q 1088.861538 250.0272 1084.740923 250.0272 
L 886.951385 250.0272 
Q 882.830769 250.0272 882.830769 252.2448 
L 882.830769 255.5712 
Q 882.830769 257.7888 886.951385 257.7888 
z
" clip-path="url(#pd3882d9f6b)" style="fill: #10b981; opacity: 0.2"/>
   </g>
   <g id="patch_6">
    <path d="M 1092.982154 257.7888 
L 1187.756308 257.7888 
Q 1191.876923 257.7888 1191.876923 255.5712 
L 1191.876923 252.2448 
Q 1191.876923 250.0272 1187.756308 250.0272 
L 1092.982154 250.0272 
Q 1088.861538 250.0272 1088.861538 252.2448 
L 1088.861538 255.5712 
Q 1088.861538 257.7888 1092.982154 257.7888 
z
" clip-path="url(#pd3882d9f6b)" style="fill: #9ca3af; opacity: 0.15"/>
   </g>
   <g id="line2d_8">
    <path d="M 161.723077 287.7264 
L 161.723077 281.0736 
" clip-path="url(#pd3882d9f6b)" style="fill: none; stroke: #e5e7eb; stroke-linecap: square"/>
   </g>
   <g id="line2d_9">
    <path d="M 264.738462 287.7264 
L 264.738462 281.0736 
" clip-path="url(#pd3882d9f6b)" style="fill: none; stroke: #e5e7eb; stroke-linecap: square"/>
   </g>
   <g id="line2d_10">
    <path d="M 367.753846 287.7264 
L 367.753846 281.0736 
" clip-path="url(#pd3882d9f6b)" style="fill: none; stroke: #e5e7eb; stroke-linecap: square"/>
   </g>
   <g id="line2d_11">
    <path d="M 470.769231 287.7264 
L 470.769231 281.0736 
" clip-path="url(#pd3882d9f6b)" style="fill: none; stroke: #e5e7eb; stroke-linecap: square"/>
   </g>
   <g id="line2d_12">
    <path d="M 573.784615 287.7264 
L 573.784615 281.0736 
" clip-path="url(#pd3882d9f6b)" style="fill: none; stroke: #e5e7eb; stroke-linecap: square"/>
   </g>
   <g id="line2d_13">
    <path d="M 676.8 287.7264 
L 676.8 281.0736 
" clip-path="url(#pd3882d9f6b)" style="fill: none; stroke: #e5e7eb; stroke-linecap: square"/>
   </g>
   <g id="line2d_14">
    <path d="M 779.815385 287.7264 
L 779.815385 281.0736 
" clip-path="url(#pd3882d9f6b)" style="fill: none; stroke: #e5e7eb; stroke-linecap: square"/>
   </g>
   <g id="line2d_15">
    <path d="M 882.830769 287.7264 
L 882.830769 281.0736 
" clip-path="url(#pd3882d9f6b)" style="fill: none; stroke: #e5e7eb; stroke-linecap: square"/>
   </g>
   <g id="line2d_16">
    <path d="M 985.846154 287.7264 
L 985.846154 281.0736 
" clip-path="url(#pd3882d9f6b)" style="fill: none; stroke: #e5e7eb; stroke-linecap: square"/>
   </g>
   <g id="line2d_17">
    <path d="M 1088.861538 287.7264 
L 1088.861538 281.0736 
" clip-path="url(#pd3882d9f6b)" style="fill: none; stroke: #e5e7eb; stroke-linecap: square"/>
   </g>
   <g id="line2d_18">
    <defs>
     <path id="m3437308182" d="M 0 5 
C 1.326016 5 2.597899 4.473168 3.535534 3.535534 
C 4.473168 2.597899 5 1.326016 5 0 
C 5 -1.326016 4.473168 -2.597899 3.535534 -3.535534 
C 2.597899 -4.473168 1.326016 -5 0 -5 
C -1.326016 -5 -2.597899 -4.473168 -3.535534 -3.535534 
C -4.473168 -2.597899 -5 -1.326016 -5 0 
C -5 1.326016 -4.473168 2.597899 -3.535534 3.535534 
C -2.597899 4.473168 -1.326016 5 0 5 
z
" style="stroke: #ffffff; stroke-width: 2"/>
    </defs>
    <g clip-path="url(#pd3882d9f6b)">
     <use xlink:href="#m3437308182" x="161.723077" y="536.652" style="fill: #ef4444; stroke: #ffffff; stroke-width: 2"/>
    </g>
   </g>
   <g id="line2d_19">
    <defs>
     <path id="ma6138c4074" d="M 0 5 
C 1.326016 5 2.597899 4.473168 3.535534 3.535534 
C 4.473168 2.597899 5 1.326016 5 0 
C 5 -1.326016 4.473168 -2.597899 3.535534 -3.535534 
C 2.597899 -4.473168 1.326016 -5 0 -5 
C -1.326016 -5 -2.597899 -4.473168 -3.535534 -3.535534 
C -4.473168 -2.597899 -5 -1.326016 -5 0 
C -5 1.326016 -4.473168 2.597899 -3.535534 3.535534 
C -2.597899 4.473168 -1.326016 5 0 5 
z
" style="stroke: #ffffff; stroke-width: 2"/>
    </defs>
    <g clip-path="url(#pd3882d9f6b)">
     <use xlink:href="#ma6138c4074" x="388.356923" y="536.652" style="fill: #3b82f6; stroke: #ffffff; stroke-width: 2"/>
    </g>
   </g>
   <g id="text_1">
    <text style="fill: #111827; font: 700 22px 'Apple SD Gothic Neo'; text-anchor: start" x="89.612308" y="32.589375" transform="rotate(-0 89.612308 32.589375)">t_coupon_issue INSERT 부하 개선</text>
   </g>
   <g id="text_2">
    <text style="fill: #6b7280; font: 13px 'Apple SD Gothic Neo'; text-anchor: start" x="89.612308" y="52.946813" transform="rotate(-0 89.612308 52.946813)">Milestone Timeline</text>
   </g>
   <g id="text_3">
    <text style="fill: #6b7280; font: 11px 'Apple SD Gothic Neo'; text-anchor: end" x="1263.987692" y="33.754688" transform="rotate(-0 1263.987692 33.754688)">6 Milestones  /  10 Weeks  /  1 GATE</text>
   </g>
   <g id="text_4">
    <text style="fill: #6b7280; font: 500 7.5px 'Apple SD Gothic Neo'; text-anchor: middle" x="213.230769" y="242.025469" transform="rotate(-0 213.230769 242.025469)">P0 설계확정</text>
   </g>
   <g id="text_5">
    <text style="fill: #6b7280; font: 500 7.5px 'Apple SD Gothic Neo'; text-anchor: middle" x="470.769231" y="242.025469" transform="rotate(-0 470.769231 242.025469)">P1 개발</text>
   </g>
   <g id="text_6">
    <text style="fill: #6b7280; font: 500 7.5px 'Apple SD Gothic Neo'; text-anchor: middle" x="779.815385" y="242.025469" transform="rotate(-0 779.815385 242.025469)">P2 Shadow검증</text>
   </g>
   <g id="text_7">
    <text style="fill: #6b7280; font: 500 7.5px 'Apple SD Gothic Neo'; text-anchor: middle" x="985.846154" y="242.025469" transform="rotate(-0 985.846154 242.025469)">P3 전환·안정화</text>
   </g>
   <g id="text_8">
    <text style="fill: #6b7280; font: 500 7.5px 'Apple SD Gothic Neo'; text-anchor: middle" x="1140.369231" y="242.025469" transform="rotate(-0 1140.369231 242.025469)">후속</text>
   </g>
   <g id="text_9">
    <text style="fill: #9ca3af; font: 8px 'Apple SD Gothic Neo'; text-anchor: middle" x="161.723077" y="302.66055" transform="rotate(-0 161.723077 302.66055)">W1</text>
   </g>
   <g id="text_10">
    <text style="fill: #9ca3af; font: 8px 'Apple SD Gothic Neo'; text-anchor: middle" x="264.738462" y="302.66055" transform="rotate(-0 264.738462 302.66055)">W2</text>
   </g>
   <g id="text_11">
    <text style="fill: #9ca3af; font: 8px 'Apple SD Gothic Neo'; text-anchor: middle" x="367.753846" y="302.66055" transform="rotate(-0 367.753846 302.66055)">W3</text>
   </g>
   <g id="text_12">
    <text style="fill: #9ca3af; font: 8px 'Apple SD Gothic Neo'; text-anchor: middle" x="470.769231" y="302.66055" transform="rotate(-0 470.769231 302.66055)">W4</text>
   </g>
   <g id="text_13">
    <text style="fill: #9ca3af; font: 8px 'Apple SD Gothic Neo'; text-anchor: middle" x="573.784615" y="302.66055" transform="rotate(-0 573.784615 302.66055)">W5</text>
   </g>
   <g id="text_14">
    <text style="fill: #9ca3af; font: 8px 'Apple SD Gothic Neo'; text-anchor: middle" x="676.8" y="302.66055" transform="rotate(-0 676.8 302.66055)">W6</text>
   </g>
   <g id="text_15">
    <text style="fill: #9ca3af; font: 8px 'Apple SD Gothic Neo'; text-anchor: middle" x="779.815385" y="302.66055" transform="rotate(-0 779.815385 302.66055)">W7</text>
   </g>
   <g id="text_16">
    <text style="fill: #9ca3af; font: 8px 'Apple SD Gothic Neo'; text-anchor: middle" x="882.830769" y="302.66055" transform="rotate(-0 882.830769 302.66055)">W8</text>
   </g>
   <g id="text_17">
    <text style="fill: #9ca3af; font: 8px 'Apple SD Gothic Neo'; text-anchor: middle" x="985.846154" y="302.66055" transform="rotate(-0 985.846154 302.66055)">W9</text>
   </g>
   <g id="text_18">
    <text style="fill: #9ca3af; font: 8px 'Apple SD Gothic Neo'; text-anchor: middle" x="1088.861538" y="302.66055" transform="rotate(-0 1088.861538 302.66055)">W10</text>
   </g>
   <g id="text_19">
    <g id="patch_7">
     <path d="M 362.621971 273.1632 
L 372.885721 273.1632 
Q 373.845721 273.1632 373.845721 272.2032 
L 373.845721 265.29195 
Q 373.845721 264.33195 372.885721 264.33195 
L 362.621971 264.33195 
Q 361.661971 264.33195 361.661971 265.29195 
L 361.661971 272.2032 
Q 361.661971 273.1632 362.621971 273.1632 
z
" style="fill: #ffffff; opacity: 0.9"/>
    </g>
    <text style="fill: #9ca3af; font: 500 8px 'Apple SD Gothic Neo'; text-anchor: middle" x="367.753846" y="271.3557" transform="rotate(-0 367.753846 271.3557)">4w</text>
   </g>
   <g id="text_20">
    <g id="patch_8">
     <path d="M 671.75625 273.1632 
L 681.84375 273.1632 
Q 682.80375 273.1632 682.80375 272.2032 
L 682.80375 265.29195 
Q 682.80375 264.33195 681.84375 264.33195 
L 671.75625 264.33195 
Q 670.79625 264.33195 670.79625 265.29195 
L 670.79625 272.2032 
Q 670.79625 273.1632 671.75625 273.1632 
z
" style="fill: #ffffff; opacity: 0.9"/>
    </g>
    <text style="fill: #9ca3af; font: 500 8px 'Apple SD Gothic Neo'; text-anchor: middle" x="676.8" y="271.3557" transform="rotate(-0 676.8 271.3557)">2w</text>
   </g>
   <g id="text_21">
    <g id="patch_9">
     <path d="M 826.983077 273.1632 
L 835.663077 273.1632 
Q 836.623077 273.1632 836.623077 272.2032 
L 836.623077 265.29195 
Q 836.623077 264.33195 835.663077 264.33195 
L 826.983077 264.33195 
Q 826.023077 264.33195 826.023077 265.29195 
L 826.023077 272.2032 
Q 826.023077 273.1632 826.983077 273.1632 
z
" style="fill: #ffffff; opacity: 0.9"/>
    </g>
    <text style="fill: #9ca3af; font: 500 8px 'Apple SD Gothic Neo'; text-anchor: middle" x="831.323077" y="271.3557" transform="rotate(-0 831.323077 271.3557)">1w</text>
   </g>
   <g id="text_22">
    <g id="patch_10">
     <path d="M 929.998462 273.1632 
L 938.678462 273.1632 
Q 939.638462 273.1632 939.638462 272.2032 
L 939.638462 265.29195 
Q 939.638462 264.33195 938.678462 264.33195 
L 929.998462 264.33195 
Q 929.038462 264.33195 929.038462 265.29195 
L 929.038462 272.2032 
Q 929.038462 273.1632 929.998462 273.1632 
z
" style="fill: #ffffff; opacity: 0.9"/>
    </g>
    <text style="fill: #9ca3af; font: 500 8px 'Apple SD Gothic Neo'; text-anchor: middle" x="934.338462" y="271.3557" transform="rotate(-0 934.338462 271.3557)">1w</text>
   </g>
   <g id="text_23">
    <g id="patch_11">
     <path d="M 1033.013846 273.1632 
L 1041.693846 273.1632 
Q 1042.653846 273.1632 1042.653846 272.2032 
L 1042.653846 265.29195 
Q 1042.653846 264.33195 1041.693846 264.33195 
L 1033.013846 264.33195 
Q 1032.053846 264.33195 1032.053846 265.29195 
L 1032.053846 272.2032 
Q 1032.053846 273.1632 1033.013846 273.1632 
z
" style="fill: #ffffff; opacity: 0.9"/>
    </g>
    <text style="fill: #9ca3af; font: 500 8px 'Apple SD Gothic Neo'; text-anchor: middle" x="1037.353846" y="271.3557" transform="rotate(-0 1037.353846 271.3557)">1w</text>
   </g>
   <g id="text_24">
    <text style="fill: #ef4444; font: 700 9px 'Apple SD Gothic Neo'; text-anchor: middle" x="161.723077" y="314.506519" transform="rotate(-0 161.723077 314.506519)">4/4</text>
   </g>
   <g id="patch_12">
    <path d="M 62.828308 243.9288 
L 281.220923 243.9288 
Q 287.401846 243.9288 287.401846 240.6024 
L 287.401846 177.9552 
Q 287.401846 174.6288 281.220923 174.6288 
L 62.828308 174.6288 
Q 56.647385 174.6288 56.647385 177.9552 
L 56.647385 240.6024 
Q 56.647385 243.9288 62.828308 243.9288 
z
" clip-path="url(#pd3882d9f6b)" style="fill: #fef2f2; stroke: #ef4444; stroke-width: 1.2; stroke-linejoin: miter"/>
   </g>
   <g id="text_25">
    <text style="fill: #3b82f6; font: 700 9px 'Apple SD Gothic Neo'; text-anchor: middle" x="573.784615" y="314.506519" transform="rotate(-0 573.784615 314.506519)">5/2</text>
   </g>
   <g id="patch_13">
    <path d="M 464.588308 408.5856 
L 682.980923 408.5856 
Q 689.161846 408.5856 689.161846 405.2592 
L 689.161846 328.1976 
Q 689.161846 324.8712 682.980923 324.8712 
L 464.588308 324.8712 
Q 458.407385 324.8712 458.407385 328.1976 
L 458.407385 405.2592 
Q 458.407385 408.5856 464.588308 408.5856 
z
" clip-path="url(#pd3882d9f6b)" style="fill: #fafafa; stroke: #e5e7eb; stroke-width: 0.8; stroke-linejoin: miter"/>
   </g>
   <g id="text_26">
    <text style="fill: #3b82f6; font: 700 9px 'Apple SD Gothic Neo'; text-anchor: middle" x="779.815385" y="314.506519" transform="rotate(-0 779.815385 314.506519)">5/16</text>
   </g>
   <g id="patch_14">
    <path d="M 619.111385 243.9288 
L 837.504 243.9288 
Q 843.684923 243.9288 843.684923 240.6024 
L 843.684923 163.5408 
Q 843.684923 160.2144 837.504 160.2144 
L 619.111385 160.2144 
Q 612.930462 160.2144 612.930462 163.5408 
L 612.930462 240.6024 
Q 612.930462 243.9288 619.111385 243.9288 
z
" clip-path="url(#pd3882d9f6b)" style="fill: #fafafa; stroke: #e5e7eb; stroke-width: 0.8; stroke-linejoin: miter"/>
   </g>
   <g id="text_27">
    <text style="fill: #3b82f6; font: 700 9px 'Apple SD Gothic Neo'; text-anchor: middle" x="882.830769" y="314.506519" transform="rotate(-0 882.830769 314.506519)">5/23</text>
   </g>
   <g id="patch_15">
    <path d="M 825.142154 396.9432 
L 1043.534769 396.9432 
Q 1049.715692 396.9432 1049.715692 393.6168 
L 1049.715692 328.1976 
Q 1049.715692 324.8712 1043.534769 324.8712 
L 825.142154 324.8712 
Q 818.961231 324.8712 818.961231 328.1976 
L 818.961231 393.6168 
Q 818.961231 396.9432 825.142154 396.9432 
z
" clip-path="url(#pd3882d9f6b)" style="fill: #fafafa; stroke: #e5e7eb; stroke-width: 0.8; stroke-linejoin: miter"/>
   </g>
   <g id="text_28">
    <text style="fill: #3b82f6; font: 700 9px 'Apple SD Gothic Neo'; text-anchor: middle" x="985.846154" y="314.506519" transform="rotate(-0 985.846154 314.506519)">5/30</text>
   </g>
   <g id="patch_16">
    <path d="M 928.157538 243.9288 
L 1146.550154 243.9288 
Q 1152.731077 243.9288 1152.731077 240.6024 
L 1152.731077 189.0432 
Q 1152.731077 185.7168 1146.550154 185.7168 
L 928.157538 185.7168 
Q 921.976615 185.7168 921.976615 189.0432 
L 921.976615 240.6024 
Q 921.976615 243.9288 928.157538 243.9288 
z
" clip-path="url(#pd3882d9f6b)" style="fill: #fafafa; stroke: #e5e7eb; stroke-width: 0.8; stroke-linejoin: miter"/>
   </g>
   <g id="text_29">
    <text style="fill: #3b82f6; font: 700 9px 'Apple SD Gothic Neo'; text-anchor: middle" x="1088.861538" y="314.506519" transform="rotate(-0 1088.861538 314.506519)">6/6</text>
   </g>
   <g id="patch_17">
    <path d="M 1062.077538 396.9432 
L 1280.470154 396.9432 
Q 1286.651077 396.9432 1286.651077 393.6168 
L 1286.651077 328.1976 
Q 1286.651077 324.8712 1280.470154 324.8712 
L 1062.077538 324.8712 
Q 1055.896615 324.8712 1055.896615 328.1976 
L 1055.896615 393.6168 
Q 1055.896615 396.9432 1062.077538 396.9432 
z
" clip-path="url(#pd3882d9f6b)" style="fill: #fafafa; stroke: #e5e7eb; stroke-width: 0.8; stroke-linejoin: miter"/>
   </g>
   <g id="text_30">
    <text style="fill: #111827; font: 9px 'Apple SD Gothic Neo'; text-anchor: start" x="192.627692" y="539.586141" transform="rotate(-0 192.627692 539.586141)">GATE Milestone</text>
   </g>
   <g id="text_31">
    <text style="fill: #111827; font: 9px 'Apple SD Gothic Neo'; text-anchor: start" x="419.261538" y="539.586141" transform="rotate(-0 419.261538 539.586141)">Milestone</text>
   </g>
   <g id="text_32">
    <text style="fill: #ef4444; font: italic 8px 'Apple SD Gothic Neo'; text-anchor: start" x="573.784615" y="539.260125" transform="rotate(-0 573.784615 539.260125)">Rollback:</text>
   </g>
   <g id="text_33">
    <text style="fill: #111827; font: 9px 'Apple SD Gothic Neo'; text-anchor: start" x="640.744615" y="539.586141" transform="rotate(-0 640.744615 539.586141)">Rollback plan available</text>
   </g>
   <g id="text_34">
    <text style="fill: #ef4444; font: 700 9.5px 'Apple SD Gothic Neo'; text-anchor: start" x="71.069538" y="193.070394" transform="rotate(-0 71.069538 193.070394)">M0: 설계확정</text>
   </g>
   <g id="text_35">
    <text style="fill: #ef4444; font: italic 500 7.5px 'Apple SD Gothic Neo'; text-anchor: start" x="71.069538" y="203.598366" transform="rotate(-0 71.069538 203.598366)">GATE Go/No-Go</text>
   </g>
   <g id="text_36">
    <text style="fill: #9ca3af; font: 700 7px 'Apple SD Gothic Neo'; text-anchor: start" x="71.069538" y="215.416181" transform="rotate(-0 71.069538 215.416181)">Exit Criteria:</text>
   </g>
   <g id="text_37">
    <text style="fill: #6b7280; font: 7.5px 'Apple SD Gothic Neo'; text-anchor: start" x="79.310769" y="226.959338" transform="rotate(-0 79.310769 226.959338)">•  프로덕션 벤치마크 3.0x+ 달성</text>
   </g>
   <g id="text_38">
    <text style="fill: #6b7280; font: 7.5px 'Apple SD Gothic Neo'; text-anchor: start" x="79.310769" y="238.608769" transform="rotate(-0 79.310769 238.608769)">•  설계 리뷰 완료</text>
   </g>
   <g id="text_39">
    <text style="fill: #111827; font: 700 9.5px 'Apple SD Gothic Neo'; text-anchor: start" x="472.829538" y="343.256388" transform="rotate(-0 472.829538 343.256388)">M1: 개발완료</text>
   </g>
   <g id="text_40">
    <text style="fill: #9ca3af; font: 700 7px 'Apple SD Gothic Neo'; text-anchor: start" x="472.829538" y="353.461781" transform="rotate(-0 472.829538 353.461781)">Exit Criteria:</text>
   </g>
   <g id="text_41">
    <text style="fill: #6b7280; font: 7.5px 'Apple SD Gothic Neo'; text-anchor: start" x="481.070769" y="365.020172" transform="rotate(-0 481.070769 365.020172)">•  단위 테스트 통과</text>
   </g>
   <g id="text_42">
    <text style="fill: #6b7280; font: 7.5px 'Apple SD Gothic Neo'; text-anchor: start" x="481.070769" y="376.909838" transform="rotate(-0 481.070769 376.909838)">•  Feature Flag 동작</text>
   </g>
   <g id="text_43">
    <text style="fill: #6b7280; font: 7.5px 'Apple SD Gothic Neo'; text-anchor: start" x="481.070769" y="388.289738" transform="rotate(-0 481.070769 388.289738)">•  Shadow Mode 배포 가능</text>
   </g>
   <g id="text_44">
    <text style="fill: #ef4444; font: italic 7px 'Apple SD Gothic Neo'; text-anchor: start" x="472.829538" y="402.929163" transform="rotate(-0 472.829538 402.929163)">Rollback: FF OFF -&gt; DB 즉시 전환 (&lt;1분)</text>
   </g>
   <g id="text_45">
    <text style="fill: #111827; font: 700 9.5px 'Apple SD Gothic Neo'; text-anchor: start" x="627.352615" y="178.513494" transform="rotate(-0 627.352615 178.513494)">M2: 검증완료</text>
   </g>
   <g id="text_46">
    <text style="fill: #9ca3af; font: 700 7px 'Apple SD Gothic Neo'; text-anchor: start" x="627.352615" y="188.804981" transform="rotate(-0 627.352615 188.804981)">Exit Criteria:</text>
   </g>
   <g id="text_47">
    <text style="fill: #6b7280; font: 7.5px 'Apple SD Gothic Neo'; text-anchor: start" x="635.593846" y="200.355169" transform="rotate(-0 635.593846 200.355169)">•  Shadow Mode 1주+ 무장애</text>
   </g>
   <g id="text_48">
    <text style="fill: #6b7280; font: 7.5px 'Apple SD Gothic Neo'; text-anchor: start" x="635.593846" y="211.983506" transform="rotate(-0 635.593846 211.983506)">•  TPS 3.4x+ 달성</text>
   </g>
   <g id="text_49">
    <text style="fill: #6b7280; font: 7.5px 'Apple SD Gothic Neo'; text-anchor: start" x="635.593846" y="223.648172" transform="rotate(-0 635.593846 223.648172)">•  QA 전수 통과</text>
   </g>
   <g id="text_50">
    <text style="fill: #ef4444; font: italic 7px 'Apple SD Gothic Neo'; text-anchor: start" x="627.352615" y="238.469238" transform="rotate(-0 627.352615 238.469238)">Rollback: Lua script 이전 버전 배포 (&lt;5분)</text>
   </g>
   <g id="text_51">
    <text style="fill: #111827; font: 700 9.5px 'Apple SD Gothic Neo'; text-anchor: start" x="833.383385" y="343.159903" transform="rotate(-0 833.383385 343.159903)">M3: MC 전환완료</text>
   </g>
   <g id="text_52">
    <text style="fill: #9ca3af; font: 700 7px 'Apple SD Gothic Neo'; text-anchor: start" x="833.383385" y="353.461781" transform="rotate(-0 833.383385 353.461781)">Exit Criteria:</text>
   </g>
   <g id="text_53">
    <text style="fill: #6b7280; font: 7.5px 'Apple SD Gothic Neo'; text-anchor: start" x="841.624615" y="365.004938" transform="rotate(-0 841.624615 365.004938)">•  MC 100% + 48h 안정화</text>
   </g>
   <g id="text_54">
    <text style="fill: #6b7280; font: 7.5px 'Apple SD Gothic Neo'; text-anchor: start" x="841.624615" y="376.571166" transform="rotate(-0 841.624615 376.571166)">•  drift &lt; 0.01%</text>
   </g>
   <g id="text_55">
    <text style="fill: #ef4444; font: italic 7px 'Apple SD Gothic Neo'; text-anchor: start" x="833.383385" y="391.1752" transform="rotate(-0 833.383385 391.1752)">Rollback: Redis MC: FF -&gt; DB 전환 (&lt;1분)</text>
   </g>
   <g id="text_56">
    <text style="fill: #111827; font: 700 9.5px 'Apple SD Gothic Neo'; text-anchor: start" x="936.398769" y="204.101988" transform="rotate(-0 936.398769 204.101988)">M4: 안정화완료</text>
   </g>
   <g id="text_57">
    <text style="fill: #9ca3af; font: 700 7px 'Apple SD Gothic Neo'; text-anchor: start" x="936.398769" y="214.307381" transform="rotate(-0 936.398769 214.307381)">Exit Criteria:</text>
   </g>
   <g id="text_58">
    <text style="fill: #6b7280; font: 7.5px 'Apple SD Gothic Neo'; text-anchor: start" x="944.64" y="225.775538" transform="rotate(-0 944.64 225.775538)">•  7일간 Sev-0/Sev-1 0건</text>
   </g>
   <g id="text_59">
    <text style="fill: #6b7280; font: 7.5px 'Apple SD Gothic Neo'; text-anchor: start" x="944.64" y="237.508172" transform="rotate(-0 944.64 237.508172)">•  변경 동결 기간 무사 통과</text>
   </g>
   <g id="text_60">
    <text style="fill: #111827; font: 700 9.5px 'Apple SD Gothic Neo'; text-anchor: start" x="1070.318769" y="343.256388" transform="rotate(-0 1070.318769 343.256388)">M5: 인덱스삭제완료</text>
   </g>
   <g id="text_61">
    <text style="fill: #9ca3af; font: 700 7px 'Apple SD Gothic Neo'; text-anchor: start" x="1070.318769" y="353.461781" transform="rotate(-0 1070.318769 353.461781)">Exit Criteria:</text>
   </g>
   <g id="text_62">
    <text style="fill: #6b7280; font: 7.5px 'Apple SD Gothic Neo'; text-anchor: start" x="1078.56" y="365.004938" transform="rotate(-0 1078.56 365.004938)">•  인덱스 6개 삭제 완료</text>
   </g>
   <g id="text_63">
    <text style="fill: #6b7280; font: 7.5px 'Apple SD Gothic Neo'; text-anchor: start" x="1078.56" y="376.640306" transform="rotate(-0 1078.56 376.640306)">•  INSERT TPS 3.4x+ 달성</text>
   </g>
   <g id="text_64">
    <text style="fill: #ef4444; font: italic 7px 'Apple SD Gothic Neo'; text-anchor: start" x="1070.318769" y="391.232075" transform="rotate(-0 1070.318769 391.232075)">Rollback: 인덱스 재생성 (15~40분)</text>
   </g>
   <g id="line2d_20">
    <defs>
     <path id="mf142bc4922" d="M 0 9 
C 2.386828 9 4.676219 8.051703 6.363961 6.363961 
C 8.051703 4.676219 9 2.386828 9 0 
C 9 -2.386828 8.051703 -4.676219 6.363961 -6.363961 
C 4.676219 -8.051703 2.386828 -9 0 -9 
C -2.386828 -9 -4.676219 -8.051703 -6.363961 -6.363961 
C -8.051703 -4.676219 -9 -2.386828 -9 0 
C -9 2.386828 -8.051703 4.676219 -6.363961 6.363961 
C -4.676219 8.051703 -2.386828 9 0 9 
z
" style="stroke: #ffffff; stroke-width: 2.5"/>
    </defs>
    <g clip-path="url(#pd3882d9f6b)">
     <use xlink:href="#mf142bc4922" x="161.723077" y="284.4" style="fill: #ef4444; stroke: #ffffff; stroke-width: 2.5"/>
    </g>
   </g>
   <g id="line2d_21">
    <defs>
     <path id="m86247a783f" d="M 0 7.5 
C 1.989023 7.5 3.896849 6.709753 5.303301 5.303301 
C 6.709753 3.896849 7.5 1.989023 7.5 0 
C 7.5 -1.989023 6.709753 -3.896849 5.303301 -5.303301 
C 3.896849 -6.709753 1.989023 -7.5 0 -7.5 
C -1.989023 -7.5 -3.896849 -6.709753 -5.303301 -5.303301 
C -6.709753 -3.896849 -7.5 -1.989023 -7.5 0 
C -7.5 1.989023 -6.709753 3.896849 -5.303301 5.303301 
C -3.896849 6.709753 -1.989023 7.5 0 7.5 
z
" style="stroke: #ffffff; stroke-width: 2.5"/>
    </defs>
    <g clip-path="url(#pd3882d9f6b)">
     <use xlink:href="#m86247a783f" x="573.784615" y="284.4" style="fill: #3b82f6; stroke: #ffffff; stroke-width: 2.5"/>
    </g>
   </g>
   <g id="line2d_22">
    <g clip-path="url(#pd3882d9f6b)">
     <use xlink:href="#m86247a783f" x="779.815385" y="284.4" style="fill: #3b82f6; stroke: #ffffff; stroke-width: 2.5"/>
    </g>
   </g>
   <g id="line2d_23">
    <g clip-path="url(#pd3882d9f6b)">
     <use xlink:href="#m86247a783f" x="882.830769" y="284.4" style="fill: #3b82f6; stroke: #ffffff; stroke-width: 2.5"/>
    </g>
   </g>
   <g id="line2d_24">
    <g clip-path="url(#pd3882d9f6b)">
     <use xlink:href="#m86247a783f" x="985.846154" y="284.4" style="fill: #3b82f6; stroke: #ffffff; stroke-width: 2.5"/>
    </g>
   </g>
   <g id="line2d_25">
    <g clip-path="url(#pd3882d9f6b)">
     <use xlink:href="#m86247a783f" x="1088.861538" y="284.4" style="fill: #3b82f6; stroke: #ffffff; stroke-width: 2.5"/>
    </g>
   </g>
   <g id="text_65">
    <text style="fill: #ffffff; font: 700 7.5px 'Apple SD Gothic Neo'; text-anchor: middle" x="161.723077" y="286.845117" transform="rotate(-0 161.723077 286.845117)">M0</text>
   </g>
   <g id="text_66">
    <text style="fill: #ffffff; font: 700 7px 'Apple SD Gothic Neo'; text-anchor: middle" x="573.784615" y="286.682109" transform="rotate(-0 573.784615 286.682109)">M1</text>
   </g>
   <g id="text_67">
    <text style="fill: #ffffff; font: 700 7px 'Apple SD Gothic Neo'; text-anchor: middle" x="779.815385" y="286.682109" transform="rotate(-0 779.815385 286.682109)">M2</text>
   </g>
   <g id="text_68">
    <text style="fill: #ffffff; font: 700 7px 'Apple SD Gothic Neo'; text-anchor: middle" x="882.830769" y="286.682109" transform="rotate(-0 882.830769 286.682109)">M3</text>
   </g>
   <g id="text_69">
    <text style="fill: #ffffff; font: 700 7px 'Apple SD Gothic Neo'; text-anchor: middle" x="985.846154" y="286.682109" transform="rotate(-0 985.846154 286.682109)">M4</text>
   </g>
   <g id="text_70">
    <text style="fill: #ffffff; font: 700 7px 'Apple SD Gothic Neo'; text-anchor: middle" x="1088.861538" y="286.682109" transform="rotate(-0 1088.861538 286.682109)">M5</text>
   </g>
  </g>
 </g>
 <defs>
  <clipPath id="pd3882d9f6b">
   <rect x="7.2" y="7.2" width="1339.2" height="554.4"/>
  </clipPath>
 </defs>
</svg>
