<?xml version="1.0" encoding="utf-8" standalone="no"?>
<!DOCTYPE svg PUBLIC "-//W3C//DTD SVG 1.1//EN"
  "http://www.w3.org/Graphics/SVG/1.1/DTD/svg11.dtd">
<svg xmlns:xlink="http://www.w3.org/1999/xlink" width="1682.4pt" height="1252.213316pt" viewBox="0 0 1682.4 1252.213316" xmlns="http://www.w3.org/2000/svg" version="1.1">
 <metadata>
  <rdf:RDF xmlns:dc="http://purl.org/dc/elements/1.1/" xmlns:cc="http://creativecommons.org/ns#" xmlns:rdf="http://www.w3.org/1999/02/22-rdf-syntax-ns#">
   <cc:Work>
    <dc:type rdf:resource="http://purl.org/dc/dcmitype/StillImage"/>
    <dc:date>2026-02-20T17:24:28.731457</dc:date>
    <dc:format>image/svg+xml</dc:format>
    <dc:creator>
     <cc:Agent>
      <dc:title>Matplotlib v3.9.4, https://matplotlib.org/</dc:title>
     </cc:Agent>
    </dc:creator>
   </cc:Work>
  </rdf:RDF>
 </metadata>
 <defs>
  <style type="text/css">*{stroke-linejoin: round; stroke-linecap: butt}</style>
 </defs>
 <g id="figure_1">
  <g id="patch_1">
   <path d="M 0 1252.213316 
L 1682.4 1252.213316 
L 1682.4 0 
L 0 0 
z
" style="fill: #fafbfc"/>
  </g>
  <g id="axes_1">
   <g id="patch_2">
    <path d="M 7.2 1207.58075 
L 1675.2 1207.58075 
L 1675.2 113.28125 
L 7.2 113.28125 
z
" style="fill: #fafbfc"/>
   </g>
   <g id="patch_3">
    <path d="M 156.370732 250.231207 
L 1620.956098 250.231207 
Q 1637.229268 250.231207 1637.229268 252.831523 
L 1637.229268 467.790949 
Q 1637.229268 470.391265 1620.956098 470.391265 
L 156.370732 470.391265 
Q 140.097561 470.391265 140.097561 467.790949 
L 140.097561 252.831523 
Q 140.097561 250.231207 156.370732 250.231207 
z
" clip-path="url(#pc911c21302)" style="fill: #ebf5fb; opacity: 0.45; stroke: #2980b9; stroke-width: 1.2; stroke-linejoin: miter"/>
   </g>
   <g id="patch_4">
    <path d="M 156.370732 488.593475 
L 1620.956098 488.593475 
Q 1637.229268 488.593475 1637.229268 491.19379 
L 1637.229268 749.491811 
Q 1637.229268 752.092126 1620.956098 752.092126 
L 156.370732 752.092126 
Q 140.097561 752.092126 140.097561 749.491811 
L 140.097561 491.19379 
Q 140.097561 488.593475 156.370732 488.593475 
z
" clip-path="url(#pc911c21302)" style="fill: #fef9e7; opacity: 0.45; stroke: #f39c12; stroke-width: 1.2; stroke-linejoin: miter"/>
   </g>
   <g id="patch_5">
    <path d="M 156.370732 770.294336 
L 1620.956098 770.294336 
Q 1637.229268 770.294336 1637.229268 772.894652 
L 1637.229268 944.515484 
Q 1637.229268 947.1158 1620.956098 947.1158 
L 156.370732 947.1158 
Q 140.097561 947.1158 140.097561 944.515484 
L 140.097561 772.894652 
Q 140.097561 770.294336 156.370732 770.294336 
z
" clip-path="url(#pc911c21302)" style="fill: #fdebd0; opacity: 0.45; stroke: #e74c3c; stroke-width: 1.2; stroke-linejoin: miter"/>
   </g>
   <g id="patch_6">
    <path d="M 156.370732 965.318009 
L 1620.956098 965.318009 
Q 1637.229268 965.318009 1637.229268 967.918325 
L 1637.229268 1117.86986 
Q 1637.229268 1120.470176 1620.956098 1120.470176 
L 156.370732 1120.470176 
Q 140.097561 1120.470176 140.097561 1117.86986 
L 140.097561 967.918325 
Q 140.097561 965.318009 156.370732 965.318009 
z
" clip-path="url(#pc911c21302)" style="fill: #e8f8f5; opacity: 0.45; stroke: #27ae60; stroke-width: 1.2; stroke-linejoin: miter"/>
   </g>
   <g id="patch_7">
    <path d="M 156.370732 1138.672385 
L 1620.956098 1138.672385 
Q 1637.229268 1138.672385 1637.229268 1141.272701 
L 1637.229268 1165.542314 
Q 1637.229268 1168.142629 1620.956098 1168.142629 
L 156.370732 1168.142629 
Q 140.097561 1168.142629 140.097561 1165.542314 
L 140.097561 1141.272701 
Q 140.097561 1138.672385 156.370732 1138.672385 
z
" clip-path="url(#pc911c21302)" style="fill: #f5eef8; opacity: 0.45; stroke: #8e44ad; stroke-width: 1.2; stroke-linejoin: miter"/>
   </g>
   <g id="line2d_1">
    <path d="M 210.614634 1207.58075 
L 210.614634 113.28125 
" clip-path="url(#pc911c21302)" style="fill: none; stroke: #e0e0e0; stroke-width: 0.5; stroke-linecap: square"/>
   </g>
   <g id="line2d_2">
    <path d="M 346.22439 1207.58075 
L 346.22439 113.28125 
" clip-path="url(#pc911c21302)" style="fill: none; stroke: #e0e0e0; stroke-width: 0.5; stroke-linecap: square"/>
   </g>
   <g id="line2d_3">
    <path d="M 481.834146 1207.58075 
L 481.834146 113.28125 
" clip-path="url(#pc911c21302)" style="fill: none; stroke: #e0e0e0; stroke-width: 0.5; stroke-linecap: square"/>
   </g>
   <g id="line2d_4">
    <path d="M 617.443902 1207.58075 
L 617.443902 113.28125 
" clip-path="url(#pc911c21302)" style="fill: none; stroke: #e0e0e0; stroke-width: 0.5; stroke-linecap: square"/>
   </g>
   <g id="line2d_5">
    <path d="M 753.053659 1207.58075 
L 753.053659 113.28125 
" clip-path="url(#pc911c21302)" style="fill: none; stroke: #e0e0e0; stroke-width: 0.5; stroke-linecap: square"/>
   </g>
   <g id="line2d_6">
    <path d="M 888.663415 1207.58075 
L 888.663415 113.28125 
" clip-path="url(#pc911c21302)" style="fill: none; stroke: #e0e0e0; stroke-width: 0.5; stroke-linecap: square"/>
   </g>
   <g id="line2d_7">
    <path d="M 1024.273171 1207.58075 
L 1024.273171 113.28125 
" clip-path="url(#pc911c21302)" style="fill: none; stroke: #e0e0e0; stroke-width: 0.5; stroke-linecap: square"/>
   </g>
   <g id="line2d_8">
    <path d="M 1159.882927 1207.58075 
L 1159.882927 113.28125 
" clip-path="url(#pc911c21302)" style="fill: none; stroke: #e0e0e0; stroke-width: 0.5; stroke-linecap: square"/>
   </g>
   <g id="line2d_9">
    <path d="M 1295.492683 1207.58075 
L 1295.492683 113.28125 
" clip-path="url(#pc911c21302)" style="fill: none; stroke: #e0e0e0; stroke-width: 0.5; stroke-linecap: square"/>
   </g>
   <g id="line2d_10">
    <path d="M 1431.102439 1207.58075 
L 1431.102439 113.28125 
" clip-path="url(#pc911c21302)" style="fill: none; stroke: #e0e0e0; stroke-width: 0.5; stroke-linecap: square"/>
   </g>
   <g id="line2d_11">
    <path d="M 1566.712195 1207.58075 
L 1566.712195 113.28125 
" clip-path="url(#pc911c21302)" style="fill: none; stroke: #e0e0e0; stroke-width: 0.5; stroke-linecap: square"/>
   </g>
   <g id="matplotlib.axis_1"/>
   <g id="matplotlib.axis_2"/>
   <g id="LineCollection_1">
    <path d="M 346.22439 254.131681 
L 346.22439 1164.242156 
" clip-path="url(#pc911c21302)" style="fill: none; stroke: #c62828; stroke-opacity: 0.4; stroke-width: 2"/>
   </g>
   <g id="LineCollection_2">
    <path d="M 888.663415 254.131681 
L 888.663415 1164.242156 
" clip-path="url(#pc911c21302)" style="fill: none; stroke-dasharray: 3.7,1.6; stroke-dashoffset: 0; stroke: #e65100; stroke-opacity: 0.4"/>
   </g>
   <g id="LineCollection_3">
    <path d="M 1159.882927 254.131681 
L 1159.882927 1164.242156 
" clip-path="url(#pc911c21302)" style="fill: none; stroke-dasharray: 3.7,1.6; stroke-dashoffset: 0; stroke: #e65100; stroke-opacity: 0.4"/>
   </g>
   <g id="LineCollection_4">
    <path d="M 1295.492683 254.131681 
L 1295.492683 1164.242156 
" clip-path="url(#pc911c21302)" style="fill: none; stroke-dasharray: 3.7,1.6; stroke-dashoffset: 0; stroke: #e65100; stroke-opacity: 0.4"/>
   </g>
   <g id="LineCollection_5">
    <path d="M 1431.102439 254.131681 
L 1431.102439 1164.242156 
" clip-path="url(#pc911c21302)" style="fill: none; stroke-dasharray: 3.7,1.6; stroke-dashoffset: 0; stroke: #e65100; stroke-opacity: 0.4"/>
   </g>
   <g id="LineCollection_6">
    <path d="M 1566.712195 254.131681 
L 1566.712195 1164.242156 
" clip-path="url(#pc911c21302)" style="fill: none; stroke-dasharray: 3.7,1.6; stroke-dashoffset: 0; stroke: #e65100; stroke-opacity: 0.4"/>
   </g>
   <g id="patch_8">
    <path d="M 210.614634 255.648531 
L 346.22439 255.648531 
Q 355.717073 255.648531 355.717073 257.165382 
L 355.717073 272.767276 
Q 355.717073 274.284127 346.22439 274.284127 
L 210.614634 274.284127 
Q 201.121951 274.284127 201.121951 272.767276 
L 201.121951 257.165382 
Q 201.121951 255.648531 210.614634 255.648531 
z
" clip-path="url(#pc911c21302)" style="fill: #42a5f5; opacity: 0.88; stroke: #c62828; stroke-width: 3; stroke-linejoin: miter"/>
   </g>
   <g id="patch_9">
    <path d="M 210.614634 277.317829 
L 346.22439 277.317829 
Q 355.717073 277.317829 355.717073 278.834679 
L 355.717073 294.436573 
Q 355.717073 295.953424 346.22439 295.953424 
L 210.614634 295.953424 
Q 201.121951 295.953424 201.121951 294.436573 
L 201.121951 278.834679 
Q 201.121951 277.317829 210.614634 277.317829 
z
" clip-path="url(#pc911c21302)" style="fill: #42a5f5; opacity: 0.88; stroke: #42a5f5; stroke-width: 0.8; stroke-linejoin: miter"/>
   </g>
   <g id="patch_10">
    <path d="M 210.614634 303.320985 
L 346.22439 303.320985 
Q 355.717073 303.320985 355.717073 304.837836 
L 355.717073 320.43973 
Q 355.717073 321.95658 346.22439 321.95658 
L 210.614634 321.95658 
Q 201.121951 321.95658 201.121951 320.43973 
L 201.121951 304.837836 
Q 201.121951 303.320985 210.614634 303.320985 
z
" clip-path="url(#pc911c21302)" style="fill: #1565c0; opacity: 0.88; stroke: #1565c0; stroke-width: 0.8; stroke-linejoin: miter"/>
   </g>
   <g id="patch_11">
    <path d="M 210.614634 324.990282 
L 346.22439 324.990282 
Q 355.717073 324.990282 355.717073 326.507133 
L 355.717073 342.109027 
Q 355.717073 343.625877 346.22439 343.625877 
L 210.614634 343.625877 
Q 201.121951 343.625877 201.121951 342.109027 
L 201.121951 326.507133 
Q 201.121951 324.990282 210.614634 324.990282 
z
" clip-path="url(#pc911c21302)" style="fill: #1565c0; opacity: 0.88; stroke: #1565c0; stroke-width: 0.8; stroke-linejoin: miter"/>
   </g>
   <g id="patch_12">
    <path d="M 210.614634 350.993438 
L 346.22439 350.993438 
Q 355.717073 350.993438 355.717073 352.510289 
L 355.717073 368.112183 
Q 355.717073 369.629034 346.22439 369.629034 
L 210.614634 369.629034 
Q 201.121951 369.629034 201.121951 368.112183 
L 201.121951 352.510289 
Q 201.121951 350.993438 210.614634 350.993438 
z
" clip-path="url(#pc911c21302)" style="fill: #ff9800; opacity: 0.88; stroke: #c62828; stroke-width: 3; stroke-linejoin: miter"/>
   </g>
   <g id="patch_13">
    <path d="M 210.614634 372.662735 
L 346.22439 372.662735 
Q 355.717073 372.662735 355.717073 374.179586 
L 355.717073 389.78148 
Q 355.717073 391.298331 346.22439 391.298331 
L 210.614634 391.298331 
Q 201.121951 391.298331 201.121951 389.78148 
L 201.121951 374.179586 
Q 201.121951 372.662735 210.614634 372.662735 
z
" clip-path="url(#pc911c21302)" style="fill: #ff9800; opacity: 0.88; stroke: #ff9800; stroke-width: 0.8; stroke-linejoin: miter"/>
   </g>
   <g id="patch_14">
    <path d="M 210.614634 398.665892 
L 346.22439 398.665892 
Q 355.717073 398.665892 355.717073 400.182743 
L 355.717073 415.784637 
Q 355.717073 417.301487 346.22439 417.301487 
L 210.614634 417.301487 
Q 201.121951 417.301487 201.121951 415.784637 
L 201.121951 400.182743 
Q 201.121951 398.665892 210.614634 398.665892 
z
" clip-path="url(#pc911c21302)" style="fill: #66bb6a; opacity: 0.88; stroke: #66bb6a; stroke-width: 0.8; stroke-linejoin: miter"/>
   </g>
   <g id="patch_15">
    <path d="M 210.614634 420.335189 
L 346.22439 420.335189 
Q 355.717073 420.335189 355.717073 421.85204 
L 355.717073 437.453934 
Q 355.717073 438.970784 346.22439 438.970784 
L 210.614634 438.970784 
Q 201.121951 438.970784 201.121951 437.453934 
L 201.121951 421.85204 
Q 201.121951 420.335189 210.614634 420.335189 
z
" clip-path="url(#pc911c21302)" style="fill: #66bb6a; opacity: 0.88; stroke: #66bb6a; stroke-width: 0.8; stroke-linejoin: miter"/>
   </g>
   <g id="patch_16">
    <path d="M 210.614634 446.338345 
L 346.22439 446.338345 
Q 355.717073 446.338345 355.717073 447.855196 
L 355.717073 463.45709 
Q 355.717073 464.973941 346.22439 464.973941 
L 210.614634 464.973941 
Q 201.121951 464.973941 201.121951 463.45709 
L 201.121951 447.855196 
Q 201.121951 446.338345 210.614634 446.338345 
z
" clip-path="url(#pc911c21302)" style="fill: #ab47bc; opacity: 0.88; stroke: #ab47bc; stroke-width: 0.8; stroke-linejoin: miter"/>
   </g>
   <g id="patch_17">
    <path d="M 346.22439 494.010799 
L 617.443902 494.010799 
Q 626.936585 494.010799 626.936585 495.52765 
L 626.936585 511.129543 
Q 626.936585 512.646394 617.443902 512.646394 
L 346.22439 512.646394 
Q 336.731707 512.646394 336.731707 511.129543 
L 336.731707 495.52765 
Q 336.731707 494.010799 346.22439 494.010799 
z
" clip-path="url(#pc911c21302)" style="fill: #42a5f5; opacity: 0.88; stroke: #c62828; stroke-width: 3; stroke-linejoin: miter"/>
   </g>
   <g id="patch_18">
    <path d="M 481.834146 515.680096 
L 685.24878 515.680096 
Q 694.741463 515.680096 694.741463 517.196947 
L 694.741463 532.79884 
Q 694.741463 534.315691 685.24878 534.315691 
L 481.834146 534.315691 
Q 472.341463 534.315691 472.341463 532.79884 
L 472.341463 517.196947 
Q 472.341463 515.680096 481.834146 515.680096 
z
" clip-path="url(#pc911c21302)" style="fill: #42a5f5; opacity: 0.88; stroke: #c62828; stroke-width: 3; stroke-linejoin: miter"/>
   </g>
   <g id="patch_19">
    <path d="M 549.639024 537.349393 
L 753.053659 537.349393 
Q 762.546341 537.349393 762.546341 538.866244 
L 762.546341 554.468138 
Q 762.546341 555.984988 753.053659 555.984988 
L 549.639024 555.984988 
Q 540.146341 555.984988 540.146341 554.468138 
L 540.146341 538.866244 
Q 540.146341 537.349393 549.639024 537.349393 
z
" clip-path="url(#pc911c21302)" style="fill: #42a5f5; opacity: 0.88; stroke: #42a5f5; stroke-width: 0.8; stroke-linejoin: miter"/>
   </g>
   <g id="patch_20">
    <path d="M 617.443902 559.01869 
L 888.663415 559.01869 
Q 898.156098 559.01869 898.156098 560.535541 
L 898.156098 576.137435 
Q 898.156098 577.654285 888.663415 577.654285 
L 617.443902 577.654285 
Q 607.95122 577.654285 607.95122 576.137435 
L 607.95122 560.535541 
Q 607.95122 559.01869 617.443902 559.01869 
z
" clip-path="url(#pc911c21302)" style="fill: #42a5f5; opacity: 0.88; stroke: #42a5f5; stroke-width: 0.8; stroke-linejoin: miter"/>
   </g>
   <g id="patch_21">
    <path d="M 346.22439 585.021846 
L 888.663415 585.021846 
Q 898.156098 585.021846 898.156098 586.538697 
L 898.156098 602.140591 
Q 898.156098 603.657442 888.663415 603.657442 
L 346.22439 603.657442 
Q 336.731707 603.657442 336.731707 602.140591 
L 336.731707 586.538697 
Q 336.731707 585.021846 346.22439 585.021846 
z
" clip-path="url(#pc911c21302)" style="fill: #1565c0; opacity: 0.88; stroke: #c62828; stroke-width: 3; stroke-linejoin: miter"/>
   </g>
   <g id="patch_22">
    <path d="M 346.22439 606.691143 
L 753.053659 606.691143 
Q 762.546341 606.691143 762.546341 608.207994 
L 762.546341 623.809888 
Q 762.546341 625.326739 753.053659 625.326739 
L 346.22439 625.326739 
Q 336.731707 625.326739 336.731707 623.809888 
L 336.731707 608.207994 
Q 336.731707 606.691143 346.22439 606.691143 
z
" clip-path="url(#pc911c21302)" style="fill: #1565c0; opacity: 0.88; stroke: #1565c0; stroke-width: 0.8; stroke-linejoin: miter"/>
   </g>
   <g id="patch_23">
    <path d="M 617.443902 628.36044 
L 888.663415 628.36044 
Q 898.156098 628.36044 898.156098 629.877291 
L 898.156098 645.479185 
Q 898.156098 646.996036 888.663415 646.996036 
L 617.443902 646.996036 
Q 607.95122 646.996036 607.95122 645.479185 
L 607.95122 629.877291 
Q 607.95122 628.36044 617.443902 628.36044 
z
" clip-path="url(#pc911c21302)" style="fill: #1565c0; opacity: 0.88; stroke: #1565c0; stroke-width: 0.8; stroke-linejoin: miter"/>
   </g>
   <g id="patch_24">
    <path d="M 617.443902 650.029737 
L 888.663415 650.029737 
Q 898.156098 650.029737 898.156098 651.546588 
L 898.156098 667.148482 
Q 898.156098 668.665333 888.663415 668.665333 
L 617.443902 668.665333 
Q 607.95122 668.665333 607.95122 667.148482 
L 607.95122 651.546588 
Q 607.95122 650.029737 617.443902 650.029737 
z
" clip-path="url(#pc911c21302)" style="fill: #1565c0; opacity: 0.88; stroke: #1565c0; stroke-width: 0.8; stroke-linejoin: miter"/>
   </g>
   <g id="patch_25">
    <path d="M 346.22439 676.032894 
L 753.053659 676.032894 
Q 762.546341 676.032894 762.546341 677.549745 
L 762.546341 693.151639 
Q 762.546341 694.668489 753.053659 694.668489 
L 346.22439 694.668489 
Q 336.731707 694.668489 336.731707 693.151639 
L 336.731707 677.549745 
Q 336.731707 676.032894 346.22439 676.032894 
z
" clip-path="url(#pc911c21302)" style="fill: #ff9800; opacity: 0.88; stroke: #ff9800; stroke-width: 0.8; stroke-linejoin: miter"/>
   </g>
   <g id="patch_26">
    <path d="M 346.22439 702.03605 
L 753.053659 702.03605 
Q 762.546341 702.03605 762.546341 703.552901 
L 762.546341 719.154795 
Q 762.546341 720.671646 753.053659 720.671646 
L 346.22439 720.671646 
Q 336.731707 720.671646 336.731707 719.154795 
L 336.731707 703.552901 
Q 336.731707 702.03605 346.22439 702.03605 
z
" clip-path="url(#pc911c21302)" style="fill: #66bb6a; opacity: 0.88; stroke: #66bb6a; stroke-width: 0.8; stroke-linejoin: miter"/>
   </g>
   <g id="patch_27">
    <path d="M 481.834146 728.039207 
L 888.663415 728.039207 
Q 898.156098 728.039207 898.156098 729.556058 
L 898.156098 745.157951 
Q 898.156098 746.674802 888.663415 746.674802 
L 481.834146 746.674802 
Q 472.341463 746.674802 472.341463 745.157951 
L 472.341463 729.556058 
Q 472.341463 728.039207 481.834146 728.039207 
z
" clip-path="url(#pc911c21302)" style="fill: #ab47bc; opacity: 0.88; stroke: #ab47bc; stroke-width: 0.8; stroke-linejoin: miter"/>
   </g>
   <g id="patch_28">
    <path d="M 888.663415 775.71166 
L 1159.882927 775.71166 
Q 1169.37561 775.71166 1169.37561 777.228511 
L 1169.37561 792.830405 
Q 1169.37561 794.347256 1159.882927 794.347256 
L 888.663415 794.347256 
Q 879.170732 794.347256 879.170732 792.830405 
L 879.170732 777.228511 
Q 879.170732 775.71166 888.663415 775.71166 
z
" clip-path="url(#pc911c21302)" style="fill: #42a5f5; opacity: 0.88; stroke: #c62828; stroke-width: 3; stroke-linejoin: miter"/>
   </g>
   <g id="patch_29">
    <path d="M 1024.273171 797.380957 
L 1159.882927 797.380957 
Q 1169.37561 797.380957 1169.37561 798.897808 
L 1169.37561 814.499702 
Q 1169.37561 816.016553 1159.882927 816.016553 
L 1024.273171 816.016553 
Q 1014.780488 816.016553 1014.780488 814.499702 
L 1014.780488 798.897808 
Q 1014.780488 797.380957 1024.273171 797.380957 
z
" clip-path="url(#pc911c21302)" style="fill: #42a5f5; opacity: 0.88; stroke: #42a5f5; stroke-width: 0.8; stroke-linejoin: miter"/>
   </g>
   <g id="patch_30">
    <path d="M 888.663415 823.384114 
L 1159.882927 823.384114 
Q 1169.37561 823.384114 1169.37561 824.900964 
L 1169.37561 840.502858 
Q 1169.37561 842.019709 1159.882927 842.019709 
L 888.663415 842.019709 
Q 879.170732 842.019709 879.170732 840.502858 
L 879.170732 824.900964 
Q 879.170732 823.384114 888.663415 823.384114 
z
" clip-path="url(#pc911c21302)" style="fill: #1565c0; opacity: 0.88; stroke: #1565c0; stroke-width: 0.8; stroke-linejoin: miter"/>
   </g>
   <g id="patch_31">
    <path d="M 1024.273171 845.053411 
L 1159.882927 845.053411 
Q 1169.37561 845.053411 1169.37561 846.570261 
L 1169.37561 862.172155 
Q 1169.37561 863.689006 1159.882927 863.689006 
L 1024.273171 863.689006 
Q 1014.780488 863.689006 1014.780488 862.172155 
L 1014.780488 846.570261 
Q 1014.780488 845.053411 1024.273171 845.053411 
z
" clip-path="url(#pc911c21302)" style="fill: #1565c0; opacity: 0.88; stroke: #1565c0; stroke-width: 0.8; stroke-linejoin: miter"/>
   </g>
   <g id="patch_32">
    <path d="M 888.663415 871.056567 
L 1159.882927 871.056567 
Q 1169.37561 871.056567 1169.37561 872.573418 
L 1169.37561 888.175312 
Q 1169.37561 889.692163 1159.882927 889.692163 
L 888.663415 889.692163 
Q 879.170732 889.692163 879.170732 888.175312 
L 879.170732 872.573418 
Q 879.170732 871.056567 888.663415 871.056567 
z
" clip-path="url(#pc911c21302)" style="fill: #ff9800; opacity: 0.88; stroke: #ff9800; stroke-width: 0.8; stroke-linejoin: miter"/>
   </g>
   <g id="patch_33">
    <path d="M 888.663415 897.059724 
L 1159.882927 897.059724 
Q 1169.37561 897.059724 1169.37561 898.576574 
L 1169.37561 914.178468 
Q 1169.37561 915.695319 1159.882927 915.695319 
L 888.663415 915.695319 
Q 879.170732 915.695319 879.170732 914.178468 
L 879.170732 898.576574 
Q 879.170732 897.059724 888.663415 897.059724 
z
" clip-path="url(#pc911c21302)" style="fill: #66bb6a; opacity: 0.88; stroke: #66bb6a; stroke-width: 0.8; stroke-linejoin: miter"/>
   </g>
   <g id="patch_34">
    <path d="M 888.663415 923.06288 
L 1159.882927 923.06288 
Q 1169.37561 923.06288 1169.37561 924.579731 
L 1169.37561 940.181625 
Q 1169.37561 941.698475 1159.882927 941.698475 
L 888.663415 941.698475 
Q 879.170732 941.698475 879.170732 940.181625 
L 879.170732 924.579731 
Q 879.170732 923.06288 888.663415 923.06288 
z
" clip-path="url(#pc911c21302)" style="fill: #ab47bc; opacity: 0.88; stroke: #ab47bc; stroke-width: 0.8; stroke-linejoin: miter"/>
   </g>
   <g id="patch_35">
    <path d="M 1159.882927 970.735333 
L 1295.492683 970.735333 
Q 1304.985366 970.735333 1304.985366 972.252184 
L 1304.985366 987.854078 
Q 1304.985366 989.370929 1295.492683 989.370929 
L 1159.882927 989.370929 
Q 1150.390244 989.370929 1150.390244 987.854078 
L 1150.390244 972.252184 
Q 1150.390244 970.735333 1159.882927 970.735333 
z
" clip-path="url(#pc911c21302)" style="fill: #42a5f5; opacity: 0.88; stroke: #c62828; stroke-width: 3; stroke-linejoin: miter"/>
   </g>
   <g id="patch_36">
    <path d="M 1159.882927 996.73849 
L 1295.492683 996.73849 
Q 1304.985366 996.73849 1304.985366 998.255341 
L 1304.985366 1013.857235 
Q 1304.985366 1015.374085 1295.492683 1015.374085 
L 1159.882927 1015.374085 
Q 1150.390244 1015.374085 1150.390244 1013.857235 
L 1150.390244 998.255341 
Q 1150.390244 996.73849 1159.882927 996.73849 
z
" clip-path="url(#pc911c21302)" style="fill: #1565c0; opacity: 0.88; stroke: #1565c0; stroke-width: 0.8; stroke-linejoin: miter"/>
   </g>
   <g id="patch_37">
    <path d="M 1159.882927 1022.741646 
L 1295.492683 1022.741646 
Q 1304.985366 1022.741646 1304.985366 1024.258497 
L 1304.985366 1039.860391 
Q 1304.985366 1041.377242 1295.492683 1041.377242 
L 1159.882927 1041.377242 
Q 1150.390244 1041.377242 1150.390244 1039.860391 
L 1150.390244 1024.258497 
Q 1150.390244 1022.741646 1159.882927 1022.741646 
z
" clip-path="url(#pc911c21302)" style="fill: #ff9800; opacity: 0.88; stroke: #ff9800; stroke-width: 0.8; stroke-linejoin: miter"/>
   </g>
   <g id="patch_38">
    <path d="M 1159.882927 1044.410943 
L 1431.102439 1044.410943 
Q 1440.595122 1044.410943 1440.595122 1045.927794 
L 1440.595122 1061.529688 
Q 1440.595122 1063.046539 1431.102439 1063.046539 
L 1159.882927 1063.046539 
Q 1150.390244 1063.046539 1150.390244 1061.529688 
L 1150.390244 1045.927794 
Q 1150.390244 1044.410943 1159.882927 1044.410943 
z
" clip-path="url(#pc911c21302)" style="fill: #ff9800; opacity: 0.88; stroke: #ff9800; stroke-width: 0.8; stroke-linejoin: miter"/>
   </g>
   <g id="patch_39">
    <path d="M 1159.882927 1070.4141 
L 1431.102439 1070.4141 
Q 1440.595122 1070.4141 1440.595122 1071.930951 
L 1440.595122 1087.532844 
Q 1440.595122 1089.049695 1431.102439 1089.049695 
L 1159.882927 1089.049695 
Q 1150.390244 1089.049695 1150.390244 1087.532844 
L 1150.390244 1071.930951 
Q 1150.390244 1070.4141 1159.882927 1070.4141 
z
" clip-path="url(#pc911c21302)" style="fill: #66bb6a; opacity: 0.88; stroke: #66bb6a; stroke-width: 0.8; stroke-linejoin: miter"/>
   </g>
   <g id="patch_40">
    <path d="M 1159.882927 1096.417256 
L 1295.492683 1096.417256 
Q 1304.985366 1096.417256 1304.985366 1097.934107 
L 1304.985366 1113.536001 
Q 1304.985366 1115.052852 1295.492683 1115.052852 
L 1159.882927 1115.052852 
Q 1150.390244 1115.052852 1150.390244 1113.536001 
L 1150.390244 1097.934107 
Q 1150.390244 1096.417256 1159.882927 1096.417256 
z
" clip-path="url(#pc911c21302)" style="fill: #ab47bc; opacity: 0.88; stroke: #ab47bc; stroke-width: 0.8; stroke-linejoin: miter"/>
   </g>
   <g id="patch_41">
    <path d="M 1431.102439 1144.08971 
L 1566.712195 1144.08971 
Q 1576.204878 1144.08971 1576.204878 1145.60656 
L 1576.204878 1161.208454 
Q 1576.204878 1162.725305 1566.712195 1162.725305 
L 1431.102439 1162.725305 
Q 1421.609756 1162.725305 1421.609756 1161.208454 
L 1421.609756 1145.60656 
Q 1421.609756 1144.08971 1431.102439 1144.08971 
z
" clip-path="url(#pc911c21302)" style="fill: #ff9800; opacity: 0.88; stroke: #c62828; stroke-width: 3; stroke-linejoin: miter"/>
   </g>
   <g id="text_1">
    <text style="fill: #37474f; font: 700 11px 'Apple SD Gothic Neo'" transform="translate(271.764512 208.794009)">W1</text>
    <text style="fill: #37474f; font: 700 11px 'Apple SD Gothic Neo'" transform="translate(271.544512 219.964509)">4/1</text>
   </g>
   <g id="text_2">
    <text style="fill: #37474f; font: 700 11px 'Apple SD Gothic Neo'" transform="translate(406.406612 208.794009)">W2</text>
    <text style="fill: #37474f; font: 700 11px 'Apple SD Gothic Neo'" transform="translate(406.42294 219.964509)">4/7</text>
   </g>
   <g id="text_3">
    <text style="fill: #37474f; font: 700 11px 'Apple SD Gothic Neo'" transform="translate(542.00004 208.794009)">W3</text>
    <text style="fill: #37474f; font: 700 11px 'Apple SD Gothic Neo'" transform="translate(539.711524 219.964509)">4/14</text>
   </g>
   <g id="text_4">
    <text style="fill: #37474f; font: 700 11px 'Apple SD Gothic Neo'" transform="translate(677.504952 208.794009)">W4</text>
    <text style="fill: #37474f; font: 700 11px 'Apple SD Gothic Neo'" transform="translate(675.442452 219.964509)">4/21</text>
   </g>
   <g id="text_5">
    <text style="fill: #37474f; font: 700 11px 'Apple SD Gothic Neo'" transform="translate(813.422365 208.794009)">W5</text>
    <text style="fill: #37474f; font: 700 11px 'Apple SD Gothic Neo'" transform="translate(809.85338 219.964509)">4/28</text>
   </g>
   <g id="text_6">
    <text style="fill: #37474f; font: 700 11px 'Apple SD Gothic Neo'" transform="translate(948.729621 208.794009)">W6</text>
    <text style="fill: #37474f; font: 700 11px 'Apple SD Gothic Neo'" transform="translate(949.119777 219.964509)">5/5</text>
   </g>
   <g id="text_7">
    <text style="fill: #37474f; font: 700 11px 'Apple SD Gothic Neo'" transform="translate(1084.691721 208.794009)">W7</text>
    <text style="fill: #37474f; font: 700 11px 'Apple SD Gothic Neo'" transform="translate(1082.579377 219.964509)">5/12</text>
   </g>
   <g id="text_8">
    <text style="fill: #37474f; font: 700 11px 'Apple SD Gothic Neo'" transform="translate(1219.833977 208.794009)">W8</text>
    <text style="fill: #37474f; font: 700 11px 'Apple SD Gothic Neo'" transform="translate(1218.073117 219.964509)">5/19</text>
   </g>
   <g id="text_9">
    <text style="fill: #37474f; font: 700 11px 'Apple SD Gothic Neo'" transform="translate(1355.558889 208.794009)">W9</text>
    <text style="fill: #37474f; font: 700 11px 'Apple SD Gothic Neo'" transform="translate(1352.715217 219.964509)">5/26</text>
   </g>
   <g id="text_10">
    <text style="fill: #37474f; font: 700 11px 'Apple SD Gothic Neo'" transform="translate(1488.787317 208.794009)">W10</text>
    <text style="fill: #37474f; font: 700 11px 'Apple SD Gothic Neo'" transform="translate(1491.069817 219.964509)">6/2</text>
   </g>
   <g id="text_11">
    <g id="patch_42">
     <path d="M 622.543125 74.30927 
L 1059.856875 74.30927 
Q 1064.656875 74.30927 1064.656875 69.50927 
L 1064.656875 59.142395 
Q 1064.656875 54.342395 1059.856875 54.342395 
L 622.543125 54.342395 
Q 617.743125 54.342395 617.743125 59.142395 
L 617.743125 69.50927 
Q 617.743125 74.30927 622.543125 74.30927 
z
" style="fill: #e8eaf6; opacity: 0.9; stroke: #7986cb; stroke-linejoin: miter"/>
    </g>
    <text style="fill: #37474f; font: 700 12px 'Apple SD Gothic Neo'; text-anchor: middle" x="841.2" y="68.23802" transform="rotate(-0 841.2 68.23802)">Total: 118 MD + Buffer 20 MD = 138 MD   |   P0: 12   P1: 55   P2: 31   P3: 20   Buffer: 20</text>
   </g>
   <g id="text_12">
    <g id="patch_43">
     <path d="M 439.824844 1249.613316 
L 1242.575156 1249.613316 
Q 1247.175156 1249.613316 1247.175156 1245.013316 
L 1247.175156 1234.938238 
Q 1247.175156 1230.338238 1242.575156 1230.338238 
L 439.824844 1230.338238 
Q 435.224844 1230.338238 435.224844 1234.938238 
L 435.224844 1245.013316 
Q 435.224844 1249.613316 439.824844 1249.613316 
z
" style="fill: #ffebee; opacity: 0.9; stroke: #c62828; stroke-linejoin: miter"/>
    </g>
    <text style="fill: #c62828; font: 700 11.5px 'Apple SD Gothic Neo'; text-anchor: middle" x="841.2" y="1243.795034" transform="rotate(-0 841.2 1243.795034)">Critical Path: 인덱스 사용 통계 수집(3월) → 벤치마크(W1) → Lua 개발(W2~W3) → MC 통합(W4~W5) → Shadow(W6~W7) → MC 100%(W8) → 48h 안정화 → 인덱스 삭제(W10)</text>
   </g>
   <g id="text_13">
    <text style="fill: #212121; font: 700 20px 'Apple SD Gothic Neo'; text-anchor: start" x="7.2" y="23.28125" transform="rotate(-0 7.2 23.28125)">t_coupon_issue INSERT 부하 개선 — 메인 타임라인 (4~5월)</text>
   </g>
   <g id="text_14">
    <text style="fill: #42a5f5; font: 700 9px 'Apple SD Gothic Neo'; text-anchor: start" x="357.073171" y="267.946173" transform="rotate(-0 357.073171 267.946173)">벤치마크  (1MD)</text>
   </g>
   <g id="text_15">
    <g id="patch_44">
     <path d="M 177.978963 270.167931 
L 194.341463 270.167931 
Q 195.871463 270.167931 195.871463 268.637931 
L 195.871463 261.294728 
Q 195.871463 259.764728 194.341463 259.764728 
L 177.978963 259.764728 
Q 176.448963 259.764728 176.448963 261.294728 
L 176.448963 268.637931 
Q 176.448963 270.167931 177.978963 270.167931 
z
" style="fill: #ffffff; opacity: 0.93; stroke: #42a5f5; stroke-linejoin: miter"/>
    </g>
    <text style="fill: #42a5f5; font: 700 8.5px 'Apple SD Gothic Neo'; text-anchor: end" x="194.341463" y="267.737462" transform="rotate(-0 194.341463 267.737462)">BE-1</text>
   </g>
   <g id="text_16">
    <text style="fill: #42a5f5; font: 700 9px 'Apple SD Gothic Neo'; text-anchor: start" x="357.073171" y="289.619689" transform="rotate(-0 357.073171 289.619689)">Lua 설계 리뷰  (1MD)</text>
   </g>
   <g id="text_17">
    <g id="patch_45">
     <path d="M 177.978963 291.837228 
L 194.341463 291.837228 
Q 195.871463 291.837228 195.871463 290.307228 
L 195.871463 282.964025 
Q 195.871463 281.434025 194.341463 281.434025 
L 177.978963 281.434025 
Q 176.448963 281.434025 176.448963 282.964025 
L 176.448963 290.307228 
Q 176.448963 291.837228 177.978963 291.837228 
z
" style="fill: #ffffff; opacity: 0.93; stroke: #42a5f5; stroke-linejoin: miter"/>
    </g>
    <text style="fill: #42a5f5; font: 700 8.5px 'Apple SD Gothic Neo'; text-anchor: end" x="194.341463" y="289.406759" transform="rotate(-0 194.341463 289.406759)">BE-1</text>
   </g>
   <g id="text_18">
    <text style="fill: #1565c0; font: 700 9px 'Apple SD Gothic Neo'; text-anchor: start" x="357.073171" y="315.622845" transform="rotate(-0 357.073171 315.622845)">Lua 설계 리뷰  (1MD)</text>
   </g>
   <g id="text_19">
    <g id="patch_46">
     <path d="M 176.483495 317.840384 
L 194.341463 317.840384 
Q 195.871463 317.840384 195.871463 316.310384 
L 195.871463 308.967181 
Q 195.871463 307.437181 194.341463 307.437181 
L 176.483495 307.437181 
Q 174.953495 307.437181 174.953495 308.967181 
L 174.953495 316.310384 
Q 174.953495 317.840384 176.483495 317.840384 
z
" style="fill: #ffffff; opacity: 0.93; stroke: #1565c0; stroke-linejoin: miter"/>
    </g>
    <text style="fill: #1565c0; font: 700 8.5px 'Apple SD Gothic Neo'; text-anchor: end" x="194.341463" y="315.409915" transform="rotate(-0 194.341463 315.409915)">BE-2</text>
   </g>
   <g id="text_20">
    <text style="fill: #1565c0; font: 700 9px 'Apple SD Gothic Neo'; text-anchor: start" x="357.073171" y="337.44472" transform="rotate(-0 357.073171 337.44472)">Key 구조 확정  (1MD)</text>
   </g>
   <g id="text_21">
    <g id="patch_47">
     <path d="M 176.483495 339.509681 
L 194.341463 339.509681 
Q 195.871463 339.509681 195.871463 337.979681 
L 195.871463 330.636478 
Q 195.871463 329.106478 194.341463 329.106478 
L 176.483495 329.106478 
Q 174.953495 329.106478 174.953495 330.636478 
L 174.953495 337.979681 
Q 174.953495 339.509681 176.483495 339.509681 
z
" style="fill: #ffffff; opacity: 0.93; stroke: #1565c0; stroke-linejoin: miter"/>
    </g>
    <text style="fill: #1565c0; font: 700 8.5px 'Apple SD Gothic Neo'; text-anchor: end" x="194.341463" y="337.079213" transform="rotate(-0 194.341463 337.079213)">BE-2</text>
   </g>
   <g id="text_22">
    <text style="fill: #ff9800; font: 700 9px 'Apple SD Gothic Neo'; text-anchor: start" x="357.073171" y="363.29108" transform="rotate(-0 357.073171 363.29108)">벤치마크 지원  (2MD)</text>
   </g>
   <g id="text_23">
    <g id="patch_48">
     <path d="M 178.693495 365.512838 
L 194.341463 365.512838 
Q 195.871463 365.512838 195.871463 363.982838 
L 195.871463 356.639635 
Q 195.871463 355.109635 194.341463 355.109635 
L 178.693495 355.109635 
Q 177.163495 355.109635 177.163495 356.639635 
L 177.163495 363.982838 
Q 177.163495 365.512838 178.693495 365.512838 
z
" style="fill: #ffffff; opacity: 0.93; stroke: #ff9800; stroke-linejoin: miter"/>
    </g>
    <text style="fill: #ff9800; font: 700 8.5px 'Apple SD Gothic Neo'; text-anchor: end" x="194.341463" y="363.082369" transform="rotate(-0 194.341463 363.082369)">DBA</text>
   </g>
   <g id="text_24">
    <text style="fill: #ff9800; font: 700 9px 'Apple SD Gothic Neo'; text-anchor: start" x="357.073171" y="384.960377" transform="rotate(-0 357.073171 384.960377)">idx 분석  (1MD)</text>
   </g>
   <g id="text_25">
    <g id="patch_49">
     <path d="M 178.693495 387.182135 
L 194.341463 387.182135 
Q 195.871463 387.182135 195.871463 385.652135 
L 195.871463 378.308932 
Q 195.871463 376.778932 194.341463 376.778932 
L 178.693495 376.778932 
Q 177.163495 376.778932 177.163495 378.308932 
L 177.163495 385.652135 
Q 177.163495 387.182135 178.693495 387.182135 
z
" style="fill: #ffffff; opacity: 0.93; stroke: #ff9800; stroke-linejoin: miter"/>
    </g>
    <text style="fill: #ff9800; font: 700 8.5px 'Apple SD Gothic Neo'; text-anchor: end" x="194.341463" y="384.751666" transform="rotate(-0 194.341463 384.751666)">DBA</text>
   </g>
   <g id="text_26">
    <text style="fill: #66bb6a; font: 700 9px 'Apple SD Gothic Neo'; text-anchor: start" x="357.073171" y="411.12033" transform="rotate(-0 357.073171 411.12033)">Key 정책 확정  (1MD)</text>
   </g>
   <g id="text_27">
    <g id="patch_50">
     <path d="M 180.469198 413.185291 
L 194.341463 413.185291 
Q 195.871463 413.185291 195.871463 411.655291 
L 195.871463 404.312088 
Q 195.871463 402.782088 194.341463 402.782088 
L 180.469198 402.782088 
Q 178.939198 402.782088 178.939198 404.312088 
L 178.939198 411.655291 
Q 178.939198 413.185291 180.469198 413.185291 
z
" style="fill: #ffffff; opacity: 0.93; stroke: #66bb6a; stroke-linejoin: miter"/>
    </g>
    <text style="fill: #66bb6a; font: 700 8.5px 'Apple SD Gothic Neo'; text-anchor: end" x="194.341463" y="410.754822" transform="rotate(-0 194.341463 410.754822)">SRE</text>
   </g>
   <g id="text_28">
    <text style="fill: #66bb6a; font: 700 9px 'Apple SD Gothic Neo'; text-anchor: start" x="357.073171" y="432.63283" transform="rotate(-0 357.073171 432.63283)">대시보드 설계  (3MD)</text>
   </g>
   <g id="text_29">
    <g id="patch_51">
     <path d="M 180.469198 434.854588 
L 194.341463 434.854588 
Q 195.871463 434.854588 195.871463 433.324588 
L 195.871463 425.981385 
Q 195.871463 424.451385 194.341463 424.451385 
L 180.469198 424.451385 
Q 178.939198 424.451385 178.939198 425.981385 
L 178.939198 433.324588 
Q 178.939198 434.854588 180.469198 434.854588 
z
" style="fill: #ffffff; opacity: 0.93; stroke: #66bb6a; stroke-linejoin: miter"/>
    </g>
    <text style="fill: #66bb6a; font: 700 8.5px 'Apple SD Gothic Neo'; text-anchor: end" x="194.341463" y="432.424119" transform="rotate(-0 194.341463 432.424119)">SRE</text>
   </g>
   <g id="text_30">
    <text style="fill: #ab47bc; font: 700 9px 'Apple SD Gothic Neo'; text-anchor: start" x="357.073171" y="458.662706" transform="rotate(-0 357.073171 458.662706)">테스트 계획  (1MD)</text>
   </g>
   <g id="text_31">
    <g id="patch_52">
     <path d="M 183.376463 460.857745 
L 194.341463 460.857745 
Q 195.871463 460.857745 195.871463 459.327745 
L 195.871463 451.984542 
Q 195.871463 450.454542 194.341463 450.454542 
L 183.376463 450.454542 
Q 181.846463 450.454542 181.846463 451.984542 
L 181.846463 459.327745 
Q 181.846463 460.857745 183.376463 460.857745 
z
" style="fill: #ffffff; opacity: 0.93; stroke: #ab47bc; stroke-linejoin: miter"/>
    </g>
    <text style="fill: #ab47bc; font: 700 8.5px 'Apple SD Gothic Neo'; text-anchor: end" x="194.341463" y="458.427276" transform="rotate(-0 194.341463 458.427276)">QA</text>
   </g>
   <g id="text_32">
    <text style="fill: #ffffff; font: 700 9px 'Apple SD Gothic Neo'; text-anchor: middle" x="481.834146" y="506.326018" transform="rotate(-0 481.834146 506.326018)">gate_keeper Lua  (5MD)</text>
   </g>
   <g id="text_33">
    <g id="patch_53">
     <path d="M 313.58872 508.530198 
L 329.95122 508.530198 
Q 331.48122 508.530198 331.48122 507.000198 
L 331.48122 499.656995 
Q 331.48122 498.126995 329.95122 498.126995 
L 313.58872 498.126995 
Q 312.05872 498.126995 312.05872 499.656995 
L 312.05872 507.000198 
Q 312.05872 508.530198 313.58872 508.530198 
z
" style="fill: #ffffff; opacity: 0.93; stroke: #42a5f5; stroke-linejoin: miter"/>
    </g>
    <text style="fill: #42a5f5; font: 700 8.5px 'Apple SD Gothic Neo'; text-anchor: end" x="329.95122" y="506.099729" transform="rotate(-0 329.95122 506.099729)">BE-1</text>
   </g>
   <g id="text_34">
    <text style="fill: #42a5f5; font: 700 9px 'Apple SD Gothic Neo'; text-anchor: start" x="696.097561" y="527.995315" transform="rotate(-0 696.097561 527.995315)">compensate Lua  (3MD)</text>
   </g>
   <g id="text_35">
    <g id="patch_54">
     <path d="M 449.198476 530.199495 
L 465.560976 530.199495 
Q 467.090976 530.199495 467.090976 528.669495 
L 467.090976 521.326292 
Q 467.090976 519.796292 465.560976 519.796292 
L 449.198476 519.796292 
Q 447.668476 519.796292 447.668476 521.326292 
L 447.668476 528.669495 
Q 447.668476 530.199495 449.198476 530.199495 
z
" style="fill: #ffffff; opacity: 0.93; stroke: #42a5f5; stroke-linejoin: miter"/>
    </g>
    <text style="fill: #42a5f5; font: 700 8.5px 'Apple SD Gothic Neo'; text-anchor: end" x="465.560976" y="527.769026" transform="rotate(-0 465.560976 527.769026)">BE-1</text>
   </g>
   <g id="text_36">
    <text style="fill: #42a5f5; font: 700 9px 'Apple SD Gothic Neo'; text-anchor: start" x="763.902439" y="549.647034" transform="rotate(-0 763.902439 549.647034)">FF 설정  (2MD)</text>
   </g>
   <g id="text_37">
    <g id="patch_55">
     <path d="M 517.003354 551.868792 
L 533.365854 551.868792 
Q 534.895854 551.868792 534.895854 550.338792 
L 534.895854 542.995589 
Q 534.895854 541.465589 533.365854 541.465589 
L 517.003354 541.465589 
Q 515.473354 541.465589 515.473354 542.995589 
L 515.473354 550.338792 
Q 515.473354 551.868792 517.003354 551.868792 
z
" style="fill: #ffffff; opacity: 0.93; stroke: #42a5f5; stroke-linejoin: miter"/>
    </g>
    <text style="fill: #42a5f5; font: 700 8.5px 'Apple SD Gothic Neo'; text-anchor: end" x="533.365854" y="549.438323" transform="rotate(-0 533.365854 549.438323)">BE-1</text>
   </g>
   <g id="text_38">
    <text style="fill: #ffffff; font: 700 9px 'Apple SD Gothic Neo'; text-anchor: middle" x="753.053659" y="571.316331" transform="rotate(-0 753.053659 571.316331)">Shadow 준비  (4.5MD)</text>
   </g>
   <g id="text_39">
    <g id="patch_56">
     <path d="M 584.808232 573.538089 
L 601.170732 573.538089 
Q 602.700732 573.538089 602.700732 572.008089 
L 602.700732 564.664886 
Q 602.700732 563.134886 601.170732 563.134886 
L 584.808232 563.134886 
Q 583.278232 563.134886 583.278232 564.664886 
L 583.278232 572.008089 
Q 583.278232 573.538089 584.808232 573.538089 
z
" style="fill: #ffffff; opacity: 0.93; stroke: #42a5f5; stroke-linejoin: miter"/>
    </g>
    <text style="fill: #42a5f5; font: 700 8.5px 'Apple SD Gothic Neo'; text-anchor: end" x="601.170732" y="571.10762" transform="rotate(-0 601.170732 571.10762)">BE-1</text>
   </g>
   <g id="text_40">
    <text style="fill: #ffffff; font: 700 10px 'Apple SD Gothic Neo'; text-anchor: middle" x="617.443902" y="597.660738" transform="rotate(-0 617.443902 597.660738)">MC 통합  (8MD)</text>
   </g>
   <g id="text_41">
    <g id="patch_57">
     <path d="M 312.093251 599.541246 
L 329.95122 599.541246 
Q 331.48122 599.541246 331.48122 598.011246 
L 331.48122 590.668042 
Q 331.48122 589.138042 329.95122 589.138042 
L 312.093251 589.138042 
Q 310.563251 589.138042 310.563251 590.668042 
L 310.563251 598.011246 
Q 310.563251 599.541246 312.093251 599.541246 
z
" style="fill: #ffffff; opacity: 0.93; stroke: #1565c0; stroke-linejoin: miter"/>
    </g>
    <text style="fill: #1565c0; font: 700 8.5px 'Apple SD Gothic Neo'; text-anchor: end" x="329.95122" y="597.110777" transform="rotate(-0 329.95122 597.110777)">BE-2</text>
   </g>
   <g id="text_42">
    <text style="fill: #ffffff; font: 700 10px 'Apple SD Gothic Neo'; text-anchor: middle" x="549.639024" y="619.319879" transform="rotate(-0 549.639024 619.319879)">보상 워커  (7MD)</text>
   </g>
   <g id="text_43">
    <g id="patch_58">
     <path d="M 312.093251 621.210543 
L 329.95122 621.210543 
Q 331.48122 621.210543 331.48122 619.680543 
L 331.48122 612.33734 
Q 331.48122 610.80734 329.95122 610.80734 
L 312.093251 610.80734 
Q 310.563251 610.80734 310.563251 612.33734 
L 310.563251 619.680543 
Q 310.563251 621.210543 312.093251 621.210543 
z
" style="fill: #ffffff; opacity: 0.93; stroke: #1565c0; stroke-linejoin: miter"/>
    </g>
    <text style="fill: #1565c0; font: 700 8.5px 'Apple SD Gothic Neo'; text-anchor: end" x="329.95122" y="618.780074" transform="rotate(-0 329.95122 618.780074)">BE-2</text>
   </g>
   <g id="text_44">
    <text style="fill: #ffffff; font: 700 9px 'Apple SD Gothic Neo'; text-anchor: middle" x="753.053659" y="640.612379" transform="rotate(-0 753.053659 640.612379)">Reconciliation  (6MD)</text>
   </g>
   <g id="text_45">
    <g id="patch_59">
     <path d="M 583.312763 642.87984 
L 601.170732 642.87984 
Q 602.700732 642.87984 602.700732 641.34984 
L 602.700732 634.006637 
Q 602.700732 632.476637 601.170732 632.476637 
L 583.312763 632.476637 
Q 581.782763 632.476637 581.782763 634.006637 
L 581.782763 641.34984 
Q 581.782763 642.87984 583.312763 642.87984 
z
" style="fill: #ffffff; opacity: 0.93; stroke: #1565c0; stroke-linejoin: miter"/>
    </g>
    <text style="fill: #1565c0; font: 700 8.5px 'Apple SD Gothic Neo'; text-anchor: end" x="601.170732" y="640.449371" transform="rotate(-0 601.170732 640.449371)">BE-2</text>
   </g>
   <g id="text_46">
    <text style="fill: #ffffff; font: 700 9px 'Apple SD Gothic Neo'; text-anchor: middle" x="753.053659" y="662.327379" transform="rotate(-0 753.053659 662.327379)">Shadow 준비  (4.5MD)</text>
   </g>
   <g id="text_47">
    <g id="patch_60">
     <path d="M 583.312763 664.549137 
L 601.170732 664.549137 
Q 602.700732 664.549137 602.700732 663.019137 
L 602.700732 655.675934 
Q 602.700732 654.145934 601.170732 654.145934 
L 583.312763 654.145934 
Q 581.782763 654.145934 581.782763 655.675934 
L 581.782763 663.019137 
Q 581.782763 664.549137 583.312763 664.549137 
z
" style="fill: #ffffff; opacity: 0.93; stroke: #1565c0; stroke-linejoin: miter"/>
    </g>
    <text style="fill: #1565c0; font: 700 8.5px 'Apple SD Gothic Neo'; text-anchor: end" x="601.170732" y="662.118668" transform="rotate(-0 601.170732 662.118668)">BE-2</text>
   </g>
   <g id="text_48">
    <text style="fill: #ffffff; font: 700 10px 'Apple SD Gothic Neo'; text-anchor: middle" x="549.639024" y="688.691317" transform="rotate(-0 549.639024 688.691317)">인덱스 사용처 확인  (5MD)</text>
   </g>
   <g id="text_49">
    <g id="patch_61">
     <path d="M 314.303251 690.552293 
L 329.95122 690.552293 
Q 331.48122 690.552293 331.48122 689.022293 
L 331.48122 681.67909 
Q 331.48122 680.14909 329.95122 680.14909 
L 314.303251 680.14909 
Q 312.773251 680.14909 312.773251 681.67909 
L 312.773251 689.022293 
Q 312.773251 690.552293 314.303251 690.552293 
z
" style="fill: #ffffff; opacity: 0.93; stroke: #ff9800; stroke-linejoin: miter"/>
    </g>
    <text style="fill: #ff9800; font: 700 8.5px 'Apple SD Gothic Neo'; text-anchor: end" x="329.95122" y="688.121824" transform="rotate(-0 329.95122 688.121824)">DBA</text>
   </g>
   <g id="text_50">
    <text style="fill: #ffffff; font: 700 10px 'Apple SD Gothic Neo'; text-anchor: middle" x="549.639024" y="714.694473" transform="rotate(-0 549.639024 714.694473)">대시보드 구축  (6MD)</text>
   </g>
   <g id="text_51">
    <g id="patch_62">
     <path d="M 316.078954 716.55545 
L 329.95122 716.55545 
Q 331.48122 716.55545 331.48122 715.02545 
L 331.48122 707.682246 
Q 331.48122 706.152246 329.95122 706.152246 
L 316.078954 706.152246 
Q 314.548954 706.152246 314.548954 707.682246 
L 314.548954 715.02545 
Q 314.548954 716.55545 316.078954 716.55545 
z
" style="fill: #ffffff; opacity: 0.93; stroke: #66bb6a; stroke-linejoin: miter"/>
    </g>
    <text style="fill: #66bb6a; font: 700 8.5px 'Apple SD Gothic Neo'; text-anchor: end" x="329.95122" y="714.124981" transform="rotate(-0 329.95122 714.124981)">SRE</text>
   </g>
   <g id="text_52">
    <text style="fill: #ffffff; font: 700 10px 'Apple SD Gothic Neo'; text-anchor: middle" x="685.24878" y="740.672629" transform="rotate(-0 685.24878 740.672629)">케이스 작성  (4MD)</text>
   </g>
   <g id="text_53">
    <g id="patch_63">
     <path d="M 454.595976 742.558606 
L 465.560976 742.558606 
Q 467.090976 742.558606 467.090976 741.028606 
L 467.090976 733.685403 
Q 467.090976 732.155403 465.560976 732.155403 
L 454.595976 732.155403 
Q 453.065976 732.155403 453.065976 733.685403 
L 453.065976 741.028606 
Q 453.065976 742.558606 454.595976 742.558606 
z
" style="fill: #ffffff; opacity: 0.93; stroke: #ab47bc; stroke-linejoin: miter"/>
    </g>
    <text style="fill: #ab47bc; font: 700 8.5px 'Apple SD Gothic Neo'; text-anchor: end" x="465.560976" y="740.128137" transform="rotate(-0 465.560976 740.128137)">QA</text>
   </g>
   <g id="text_54">
    <text style="fill: #ffffff; font: 700 9px 'Apple SD Gothic Neo'; text-anchor: middle" x="1024.273171" y="788.018442" transform="rotate(-0 1024.273171 788.018442)">Shadow 운영  (4MD)</text>
   </g>
   <g id="text_55">
    <g id="patch_64">
     <path d="M 856.027744 790.231059 
L 872.390244 790.231059 
Q 873.920244 790.231059 873.920244 788.701059 
L 873.920244 781.357856 
Q 873.920244 779.827856 872.390244 779.827856 
L 856.027744 779.827856 
Q 854.497744 779.827856 854.497744 781.357856 
L 854.497744 788.701059 
Q 854.497744 790.231059 856.027744 790.231059 
z
" style="fill: #ffffff; opacity: 0.93; stroke: #42a5f5; stroke-linejoin: miter"/>
    </g>
    <text style="fill: #42a5f5; font: 700 8.5px 'Apple SD Gothic Neo'; text-anchor: end" x="872.390244" y="787.800591" transform="rotate(-0 872.390244 787.800591)">BE-1</text>
   </g>
   <g id="text_56">
    <text style="fill: #42a5f5; font: 700 9px 'Apple SD Gothic Neo'; text-anchor: start" x="1170.731707" y="809.682817" transform="rotate(-0 1170.731707 809.682817)">부하 테스트  (2MD)</text>
   </g>
   <g id="text_57">
    <g id="patch_65">
     <path d="M 991.6375 811.900357 
L 1008 811.900357 
Q 1009.53 811.900357 1009.53 810.370357 
L 1009.53 803.027153 
Q 1009.53 801.497153 1008 801.497153 
L 991.6375 801.497153 
Q 990.1075 801.497153 990.1075 803.027153 
L 990.1075 810.370357 
Q 990.1075 811.900357 991.6375 811.900357 
z
" style="fill: #ffffff; opacity: 0.93; stroke: #42a5f5; stroke-linejoin: miter"/>
    </g>
    <text style="fill: #42a5f5; font: 700 8.5px 'Apple SD Gothic Neo'; text-anchor: end" x="1008" y="809.469888" transform="rotate(-0 1008 809.469888)">BE-1</text>
   </g>
   <g id="text_58">
    <text style="fill: #ffffff; font: 700 9px 'Apple SD Gothic Neo'; text-anchor: middle" x="1024.273171" y="835.640974" transform="rotate(-0 1024.273171 835.640974)">Recon diff 검증  (4MD)</text>
   </g>
   <g id="text_59">
    <g id="patch_66">
     <path d="M 854.532275 837.903513 
L 872.390244 837.903513 
Q 873.920244 837.903513 873.920244 836.373513 
L 873.920244 829.03031 
Q 873.920244 827.50031 872.390244 827.50031 
L 854.532275 827.50031 
Q 853.002275 827.50031 853.002275 829.03031 
L 853.002275 836.373513 
Q 853.002275 837.903513 854.532275 837.903513 
z
" style="fill: #ffffff; opacity: 0.93; stroke: #1565c0; stroke-linejoin: miter"/>
    </g>
    <text style="fill: #1565c0; font: 700 8.5px 'Apple SD Gothic Neo'; text-anchor: end" x="872.390244" y="835.473044" transform="rotate(-0 872.390244 835.473044)">BE-2</text>
   </g>
   <g id="text_60">
    <text style="fill: #1565c0; font: 700 9px 'Apple SD Gothic Neo'; text-anchor: start" x="1170.731707" y="857.355271" transform="rotate(-0 1170.731707 857.355271)">부하 테스트  (2MD)</text>
   </g>
   <g id="text_61">
    <g id="patch_67">
     <path d="M 990.142031 859.57281 
L 1008 859.57281 
Q 1009.53 859.57281 1009.53 858.04281 
L 1009.53 850.699607 
Q 1009.53 849.169607 1008 849.169607 
L 990.142031 849.169607 
Q 988.612031 849.169607 988.612031 850.699607 
L 988.612031 858.04281 
Q 988.612031 859.57281 990.142031 859.57281 
z
" style="fill: #ffffff; opacity: 0.93; stroke: #1565c0; stroke-linejoin: miter"/>
    </g>
    <text style="fill: #1565c0; font: 700 8.5px 'Apple SD Gothic Neo'; text-anchor: end" x="1008" y="857.142341" transform="rotate(-0 1008 857.142341)">BE-2</text>
   </g>
   <g id="text_62">
    <text style="fill: #ffffff; font: 700 9px 'Apple SD Gothic Neo'; text-anchor: middle" x="1024.273171" y="883.380927" transform="rotate(-0 1024.273171 883.380927)">삭제/복구 리허설  (4MD)</text>
   </g>
   <g id="text_63">
    <g id="patch_68">
     <path d="M 856.742275 885.575966 
L 872.390244 885.575966 
Q 873.920244 885.575966 873.920244 884.045966 
L 873.920244 876.702763 
Q 873.920244 875.172763 872.390244 875.172763 
L 856.742275 875.172763 
Q 855.212275 875.172763 855.212275 876.702763 
L 855.212275 884.045966 
Q 855.212275 885.575966 856.742275 885.575966 
z
" style="fill: #ffffff; opacity: 0.93; stroke: #ff9800; stroke-linejoin: miter"/>
    </g>
    <text style="fill: #ff9800; font: 700 8.5px 'Apple SD Gothic Neo'; text-anchor: end" x="872.390244" y="883.145498" transform="rotate(-0 872.390244 883.145498)">DBA</text>
   </g>
   <g id="text_64">
    <text style="fill: #ffffff; font: 700 9px 'Apple SD Gothic Neo'; text-anchor: middle" x="1024.273171" y="909.357365" transform="rotate(-0 1024.273171 909.357365)">모니터링 강화  (5MD)</text>
   </g>
   <g id="text_65">
    <g id="patch_69">
     <path d="M 858.517978 911.579123 
L 872.390244 911.579123 
Q 873.920244 911.579123 873.920244 910.049123 
L 873.920244 902.70592 
Q 873.920244 901.17592 872.390244 901.17592 
L 858.517978 901.17592 
Q 856.987978 901.17592 856.987978 902.70592 
L 856.987978 910.049123 
Q 856.987978 911.579123 858.517978 911.579123 
z
" style="fill: #ffffff; opacity: 0.93; stroke: #66bb6a; stroke-linejoin: miter"/>
    </g>
    <text style="fill: #66bb6a; font: 700 8.5px 'Apple SD Gothic Neo'; text-anchor: end" x="872.390244" y="909.148654" transform="rotate(-0 872.390244 909.148654)">SRE</text>
   </g>
   <g id="text_66">
    <text style="fill: #ffffff; font: 700 9px 'Apple SD Gothic Neo'; text-anchor: middle" x="1024.273171" y="935.369662" transform="rotate(-0 1024.273171 935.369662)">전수 QA  (10MD)</text>
   </g>
   <g id="text_67">
    <g id="patch_70">
     <path d="M 861.425244 937.582279 
L 872.390244 937.582279 
Q 873.920244 937.582279 873.920244 936.052279 
L 873.920244 928.709076 
Q 873.920244 927.179076 872.390244 927.179076 
L 861.425244 927.179076 
Q 859.895244 927.179076 859.895244 928.709076 
L 859.895244 936.052279 
Q 859.895244 937.582279 861.425244 937.582279 
z
" style="fill: #ffffff; opacity: 0.93; stroke: #ab47bc; stroke-linejoin: miter"/>
    </g>
    <text style="fill: #ab47bc; font: 700 8.5px 'Apple SD Gothic Neo'; text-anchor: end" x="872.390244" y="935.151811" transform="rotate(-0 872.390244 935.151811)">QA</text>
   </g>
   <g id="text_68">
    <text style="fill: #42a5f5; font: 700 9px 'Apple SD Gothic Neo'; text-anchor: start" x="1306.341463" y="982.996412" transform="rotate(-0 1306.341463 982.996412)">MC 100% 전환  (3MD)</text>
   </g>
   <g id="text_69">
    <g id="patch_71">
     <path d="M 1127.247256 985.254733 
L 1143.609756 985.254733 
Q 1145.139756 985.254733 1145.139756 983.724733 
L 1145.139756 976.38153 
Q 1145.139756 974.85153 1143.609756 974.85153 
L 1127.247256 974.85153 
Q 1125.717256 974.85153 1125.717256 976.38153 
L 1125.717256 983.724733 
Q 1125.717256 985.254733 1127.247256 985.254733 
z
" style="fill: #ffffff; opacity: 0.93; stroke: #42a5f5; stroke-linejoin: miter"/>
    </g>
    <text style="fill: #42a5f5; font: 700 8.5px 'Apple SD Gothic Neo'; text-anchor: end" x="1143.609756" y="982.824264" transform="rotate(-0 1143.609756 982.824264)">BE-1</text>
   </g>
   <g id="text_70">
    <text style="fill: #1565c0; font: 700 9px 'Apple SD Gothic Neo'; text-anchor: start" x="1306.341463" y="1009.036131" transform="rotate(-0 1306.341463 1009.036131)">인덱스 삭제 지원  (3MD)</text>
   </g>
   <g id="text_71">
    <g id="patch_72">
     <path d="M 1125.751787 1011.257889 
L 1143.609756 1011.257889 
Q 1145.139756 1011.257889 1145.139756 1009.727889 
L 1145.139756 1002.384686 
Q 1145.139756 1000.854686 1143.609756 1000.854686 
L 1125.751787 1000.854686 
Q 1124.221787 1000.854686 1124.221787 1002.384686 
L 1124.221787 1009.727889 
Q 1124.221787 1011.257889 1125.751787 1011.257889 
z
" style="fill: #ffffff; opacity: 0.93; stroke: #1565c0; stroke-linejoin: miter"/>
    </g>
    <text style="fill: #1565c0; font: 700 8.5px 'Apple SD Gothic Neo'; text-anchor: end" x="1143.609756" y="1008.82742" transform="rotate(-0 1143.609756 1008.82742)">BE-2</text>
   </g>
   <g id="text_72">
    <text style="fill: #ff9800; font: 700 9px 'Apple SD Gothic Neo'; text-anchor: start" x="1306.341463" y="1035.043507" transform="rotate(-0 1306.341463 1035.043507)">무중단 삭제  (3MD)</text>
   </g>
   <g id="text_73">
    <g id="patch_73">
     <path d="M 1127.961787 1037.261046 
L 1143.609756 1037.261046 
Q 1145.139756 1037.261046 1145.139756 1035.731046 
L 1145.139756 1028.387842 
Q 1145.139756 1026.857842 1143.609756 1026.857842 
L 1127.961787 1026.857842 
Q 1126.431787 1026.857842 1126.431787 1028.387842 
L 1126.431787 1035.731046 
Q 1126.431787 1037.261046 1127.961787 1037.261046 
z
" style="fill: #ffffff; opacity: 0.93; stroke: #ff9800; stroke-linejoin: miter"/>
    </g>
    <text style="fill: #ff9800; font: 700 8.5px 'Apple SD Gothic Neo'; text-anchor: end" x="1143.609756" y="1034.830577" transform="rotate(-0 1143.609756 1034.830577)">DBA</text>
   </g>
   <g id="text_74">
    <text style="fill: #ffffff; font: 700 9px 'Apple SD Gothic Neo'; text-anchor: middle" x="1295.492683" y="1056.708585" transform="rotate(-0 1295.492683 1056.708585)">24h 모니터링  (2MD)</text>
   </g>
   <g id="text_75">
    <g id="patch_74">
     <path d="M 1127.961787 1058.930343 
L 1143.609756 1058.930343 
Q 1145.139756 1058.930343 1145.139756 1057.400343 
L 1145.139756 1050.05714 
Q 1145.139756 1048.52714 1143.609756 1048.52714 
L 1127.961787 1048.52714 
Q 1126.431787 1048.52714 1126.431787 1050.05714 
L 1126.431787 1057.400343 
Q 1126.431787 1058.930343 1127.961787 1058.930343 
z
" style="fill: #ffffff; opacity: 0.93; stroke: #ff9800; stroke-linejoin: miter"/>
    </g>
    <text style="fill: #ff9800; font: 700 8.5px 'Apple SD Gothic Neo'; text-anchor: end" x="1143.609756" y="1056.499874" transform="rotate(-0 1143.609756 1056.499874)">DBA</text>
   </g>
   <g id="text_76">
    <text style="fill: #ffffff; font: 700 9px 'Apple SD Gothic Neo'; text-anchor: middle" x="1295.492683" y="1082.711741" transform="rotate(-0 1295.492683 1082.711741)">7일 안정화  (5MD)</text>
   </g>
   <g id="text_77">
    <g id="patch_75">
     <path d="M 1129.73749 1084.933499 
L 1143.609756 1084.933499 
Q 1145.139756 1084.933499 1145.139756 1083.403499 
L 1145.139756 1076.060296 
Q 1145.139756 1074.530296 1143.609756 1074.530296 
L 1129.73749 1074.530296 
Q 1128.20749 1074.530296 1128.20749 1076.060296 
L 1128.20749 1083.403499 
Q 1128.20749 1084.933499 1129.73749 1084.933499 
z
" style="fill: #ffffff; opacity: 0.93; stroke: #66bb6a; stroke-linejoin: miter"/>
    </g>
    <text style="fill: #66bb6a; font: 700 8.5px 'Apple SD Gothic Neo'; text-anchor: end" x="1143.609756" y="1082.50303" transform="rotate(-0 1143.609756 1082.50303)">SRE</text>
   </g>
   <g id="text_78">
    <text style="fill: #ab47bc; font: 700 9px 'Apple SD Gothic Neo'; text-anchor: start" x="1306.341463" y="1108.714898" transform="rotate(-0 1306.341463 1108.714898)">회귀 테스트  (4MD)</text>
   </g>
   <g id="text_79">
    <g id="patch_76">
     <path d="M 1132.644756 1110.936656 
L 1143.609756 1110.936656 
Q 1145.139756 1110.936656 1145.139756 1109.406656 
L 1145.139756 1102.063452 
Q 1145.139756 1100.533452 1143.609756 1100.533452 
L 1132.644756 1100.533452 
Q 1131.114756 1100.533452 1131.114756 1102.063452 
L 1131.114756 1109.406656 
Q 1131.114756 1110.936656 1132.644756 1110.936656 
z
" style="fill: #ffffff; opacity: 0.93; stroke: #ab47bc; stroke-linejoin: miter"/>
    </g>
    <text style="fill: #ab47bc; font: 700 8.5px 'Apple SD Gothic Neo'; text-anchor: end" x="1143.609756" y="1108.506187" transform="rotate(-0 1143.609756 1108.506187)">QA</text>
   </g>
   <g id="text_80">
    <text style="fill: #ff9800; font: 700 9px 'Apple SD Gothic Neo'; text-anchor: start" x="1577.560976" y="1156.387351" transform="rotate(-0 1577.560976 1156.387351)">인덱스 6개 삭제</text>
   </g>
   <g id="text_81">
    <g id="patch_77">
     <path d="M 1399.1813 1158.609109 
L 1414.829268 1158.609109 
Q 1416.359268 1158.609109 1416.359268 1157.079109 
L 1416.359268 1149.735906 
Q 1416.359268 1148.205906 1414.829268 1148.205906 
L 1399.1813 1148.205906 
Q 1397.6513 1148.205906 1397.6513 1149.735906 
L 1397.6513 1157.079109 
Q 1397.6513 1158.609109 1399.1813 1158.609109 
z
" style="fill: #ffffff; opacity: 0.93; stroke: #ff9800; stroke-linejoin: miter"/>
    </g>
    <text style="fill: #ff9800; font: 700 8.5px 'Apple SD Gothic Neo'; text-anchor: end" x="1414.829268" y="1156.17864" transform="rotate(-0 1414.829268 1156.17864)">DBA</text>
   </g>
   <g id="text_82">
    <g id="patch_78">
     <path d="M 48.305892 369.551236 
L 155.947767 369.551236 
Q 160.347767 369.551236 160.347767 365.151236 
L 160.347767 355.471236 
Q 160.347767 351.071236 155.947767 351.071236 
L 48.305892 351.071236 
Q 43.905892 351.071236 43.905892 355.471236 
L 43.905892 365.151236 
Q 43.905892 369.551236 48.305892 369.551236 
z
" style="fill: #2980b9; opacity: 0.92"/>
    </g>
    <text style="fill: #ffffff; font: 700 11px 'Apple SD Gothic Neo'; text-anchor: middle" x="102.126829" y="363.985924" transform="rotate(-0 102.126829 363.985924)">P0: 설계 확정  [ 12 MD ]</text>
   </g>
   <g id="text_83">
    <g id="patch_79">
     <path d="M 60.173861 629.550144 
L 144.079798 629.550144 
Q 148.479798 629.550144 148.479798 625.150144 
L 148.479798 615.535457 
Q 148.479798 611.135457 144.079798 611.135457 
L 60.173861 611.135457 
Q 55.773861 611.135457 55.773861 615.535457 
L 55.773861 625.150144 
Q 55.773861 629.550144 60.173861 629.550144 
z
" style="fill: #f39c12; opacity: 0.92"/>
    </g>
    <text style="fill: #ffffff; font: 700 11px 'Apple SD Gothic Neo'; text-anchor: middle" x="102.126829" y="623.984832" transform="rotate(-0 102.126829 623.984832)">P1: 개발  [ 55 MD ]</text>
   </g>
   <g id="text_84">
    <g id="patch_80">
     <path d="M 40.083392 867.862568 
L 164.170267 867.862568 
Q 168.570267 867.862568 168.570267 863.462568 
L 168.570267 853.947568 
Q 168.570267 849.547568 164.170267 849.547568 
L 40.083392 849.547568 
Q 35.683392 849.547568 35.683392 853.947568 
L 35.683392 863.462568 
Q 35.683392 867.862568 40.083392 867.862568 
z
" style="fill: #e74c3c; opacity: 0.92"/>
    </g>
    <text style="fill: #ffffff; font: 700 11px 'Apple SD Gothic Neo'; text-anchor: middle" x="102.126829" y="862.297255" transform="rotate(-0 102.126829 862.297255)">P2: Shadow 검증  [ 31 MD ]</text>
   </g>
   <g id="text_85">
    <g id="patch_81">
     <path d="M 42.344407 1052.111749 
L 161.909251 1052.111749 
Q 166.309251 1052.111749 166.309251 1047.711749 
L 166.309251 1038.076436 
Q 166.309251 1033.676436 161.909251 1033.676436 
L 42.344407 1033.676436 
Q 37.944407 1033.676436 37.944407 1038.076436 
L 37.944407 1047.711749 
Q 37.944407 1052.111749 42.344407 1052.111749 
z
" style="fill: #27ae60; opacity: 0.92"/>
    </g>
    <text style="fill: #ffffff; font: 700 11px 'Apple SD Gothic Neo'; text-anchor: middle" x="102.126829" y="1046.546436" transform="rotate(-0 102.126829 1046.546436)">P3: 전환·안정화  [ 20 MD ]</text>
   </g>
   <g id="text_86">
    <g id="patch_82">
     <path d="M 92.611829 1162.586492 
L 111.641829 1162.586492 
Q 116.041829 1162.586492 116.041829 1158.186492 
L 116.041829 1148.628523 
Q 116.041829 1144.228523 111.641829 1144.228523 
L 92.611829 1144.228523 
Q 88.211829 1144.228523 88.211829 1148.628523 
L 88.211829 1158.186492 
Q 88.211829 1162.586492 92.611829 1162.586492 
z
" style="fill: #8e44ad; opacity: 0.92"/>
    </g>
    <text style="fill: #ffffff; font: 700 11px 'Apple SD Gothic Neo'; text-anchor: middle" x="102.126829" y="1157.021179" transform="rotate(-0 102.126829 1157.021179)">후속</text>
   </g>
   <g id="patch_83">
    <path d="M 337.586267 265.697806 
Q 264.46904 294.777578 219.577744 357.261528 
" clip-path="url(#pc911c21302)" style="fill: none; opacity: 0.6; stroke: #c62828; stroke-width: 1.8; stroke-linecap: round"/>
    <path d="M 230.285269 352.641038 
L 219.577744 357.261528 
L 220.539677 345.639364 
" clip-path="url(#pc911c21302)" style="fill: none; opacity: 0.6; stroke: #c62828; stroke-width: 1.8; stroke-linecap: round"/>
   </g>
   <g id="patch_84">
    <path d="M 338.731758 362.17991 
Q 311.352162 435.124712 351.040582 500.130644 
" clip-path="url(#pc911c21302)" style="fill: none; opacity: 0.6; stroke: #c62828; stroke-width: 1.8; stroke-linecap: round"/>
    <path d="M 350.950663 488.469087 
L 351.040582 500.130644 
L 340.708658 494.722193 
" clip-path="url(#pc911c21302)" style="fill: none; opacity: 0.6; stroke: #c62828; stroke-width: 1.8; stroke-linecap: round"/>
   </g>
   <g id="patch_85">
    <path d="M 608.675999 503.106121 
Q 546.487719 496.413686 491.972621 523.330362 
" clip-path="url(#pc911c21302)" style="fill: none; opacity: 0.6; stroke: #c62828; stroke-width: 1.8; stroke-linecap: round"/>
    <path d="M 503.595542 524.283087 
L 491.972621 523.330362 
L 498.282871 513.523184 
" clip-path="url(#pc911c21302)" style="fill: none; opacity: 0.6; stroke: #c62828; stroke-width: 1.8; stroke-linecap: round"/>
   </g>
   <g id="patch_86">
    <path d="M 676.474424 524.838135 
Q 505.453968 511.408398 356.296257 592.545623 
" clip-path="url(#pc911c21302)" style="fill: none; opacity: 0.6; stroke: #c62828; stroke-width: 1.8; stroke-linecap: round"/>
    <path d="M 367.947769 593.037821 
L 356.296257 592.545623 
L 362.213613 582.496499 
" clip-path="url(#pc911c21302)" style="fill: none; opacity: 0.6; stroke: #c62828; stroke-width: 1.8; stroke-linecap: round"/>
   </g>
   <g id="patch_87">
    <path d="M 881.12385 596.192139 
Q 841.877402 693.011503 893.550077 781.790694 
" clip-path="url(#pc911c21302)" style="fill: none; opacity: 0.6; stroke: #c62828; stroke-width: 1.8; stroke-linecap: round"/>
    <path d="M 893.705335 770.129824 
L 893.550077 781.790694 
L 883.334136 776.166233 
" clip-path="url(#pc911c21302)" style="fill: none; opacity: 0.6; stroke: #c62828; stroke-width: 1.8; stroke-linecap: round"/>
   </g>
   <g id="patch_88">
    <path d="M 1152.340766 786.879539 
Q 1112.013315 885.869261 1164.774468 976.811942 
" clip-path="url(#pc911c21302)" style="fill: none; opacity: 0.6; stroke: #c62828; stroke-width: 1.8; stroke-linecap: round"/>
    <path d="M 1164.946093 965.151301 
L 1164.774468 976.811942 
L 1154.566432 971.173148 
" clip-path="url(#pc911c21302)" style="fill: none; opacity: 0.6; stroke: #c62828; stroke-width: 1.8; stroke-linecap: round"/>
   </g>
   <g id="patch_89">
    <path d="M 1289.206691 981.989374 
Q 1320.632167 1103.443825 1434.433011 1151.944037 
" clip-path="url(#pc911c21302)" style="fill: none; opacity: 0.6; stroke: #c62828; stroke-width: 1.8; stroke-linecap: round"/>
    <path d="M 1427.586013 1142.503771 
L 1434.433011 1151.944037 
L 1422.881248 1153.543028 
" clip-path="url(#pc911c21302)" style="fill: none; opacity: 0.6; stroke: #c62828; stroke-width: 1.8; stroke-linecap: round"/>
   </g>
   <g id="legend_1">
    <g id="patch_90">
     <path d="M 1313.451719 130.201198 
L 1650.82 130.201198 
Q 1653.02 130.201198 1653.02 128.001198 
L 1653.02 99.09526 
Q 1653.02 96.89526 1650.82 96.89526 
L 1313.451719 96.89526 
Q 1311.251719 96.89526 1311.251719 99.09526 
L 1311.251719 128.001198 
Q 1311.251719 130.201198 1313.451719 130.201198 
z
" style="fill: #ffffff; opacity: 0.95; stroke: #90a4ae; stroke-linejoin: miter"/>
    </g>
    <g id="patch_91">
     <path d="M 1315.651719 109.632916 
L 1337.651719 109.632916 
L 1337.651719 101.932916 
L 1315.651719 101.932916 
z
" style="fill: #42a5f5; opacity: 0.88; stroke: #424242; stroke-width: 0.8; stroke-linejoin: miter"/>
    </g>
    <g id="text_87">
     <text style="font: 11px 'Apple SD Gothic Neo'; text-anchor: start" x="1346.451719" y="109.632916" transform="rotate(-0 1346.451719 109.632916)">BE-1</text>
    </g>
    <g id="patch_92">
     <path d="M 1315.651719 124.635885 
L 1337.651719 124.635885 
L 1337.651719 116.935885 
L 1315.651719 116.935885 
z
" style="fill: #1565c0; opacity: 0.88; stroke: #424242; stroke-width: 0.8; stroke-linejoin: miter"/>
    </g>
    <g id="text_88">
     <text style="font: 11px 'Apple SD Gothic Neo'; text-anchor: start" x="1346.451719" y="124.635885" transform="rotate(-0 1346.451719 124.635885)">BE-2</text>
    </g>
    <g id="patch_93">
     <path d="M 1391.562031 109.632916 
L 1413.562031 109.632916 
L 1413.562031 101.932916 
L 1391.562031 101.932916 
z
" style="fill: #ff9800; opacity: 0.88; stroke: #424242; stroke-width: 0.8; stroke-linejoin: miter"/>
    </g>
    <g id="text_89">
     <text style="font: 11px 'Apple SD Gothic Neo'; text-anchor: start" x="1422.362031" y="109.632916" transform="rotate(-0 1422.362031 109.632916)">DBA</text>
    </g>
    <g id="patch_94">
     <path d="M 1391.562031 124.635885 
L 1413.562031 124.635885 
L 1413.562031 116.935885 
L 1391.562031 116.935885 
z
" style="fill: #66bb6a; opacity: 0.88; stroke: #424242; stroke-width: 0.8; stroke-linejoin: miter"/>
    </g>
    <g id="text_90">
     <text style="font: 11px 'Apple SD Gothic Neo'; text-anchor: start" x="1422.362031" y="124.635885" transform="rotate(-0 1422.362031 124.635885)">SRE</text>
    </g>
    <g id="patch_95">
     <path d="M 1464.612344 109.632916 
L 1486.612344 109.632916 
L 1486.612344 101.932916 
L 1464.612344 101.932916 
z
" style="fill: #ab47bc; opacity: 0.88; stroke: #424242; stroke-width: 0.8; stroke-linejoin: miter"/>
    </g>
    <g id="text_91">
     <text style="font: 11px 'Apple SD Gothic Neo'; text-anchor: start" x="1495.412344" y="109.632916" transform="rotate(-0 1495.412344 109.632916)">QA</text>
    </g>
    <g id="patch_96">
     <path d="M 1464.612344 124.635885 
L 1486.612344 124.635885 
L 1486.612344 116.935885 
L 1464.612344 116.935885 
z
" style="fill: #bdbdbd; stroke: #c62828; stroke-width: 3; stroke-linejoin: miter"/>
    </g>
    <g id="text_92">
     <text style="font: 11px 'Apple SD Gothic Neo'; text-anchor: start" x="1495.412344" y="124.635885" transform="rotate(-0 1495.412344 124.635885)">Critical Path</text>
    </g>
    <g id="line2d_12">
     <path d="M 1572.885 105.782916 
L 1583.885 105.782916 
L 1594.885 105.782916 
" style="fill: none; stroke: #ffffff; stroke-width: 1.5; stroke-linecap: square"/>
     <defs>
      <path id="m97ecfa7699" d="M -0 8.485281 
L 8.485281 0 
L 0 -8.485281 
L -8.485281 -0 
z
" style="stroke: #ffffff; stroke-linejoin: miter"/>
     </defs>
     <g>
      <use xlink:href="#m97ecfa7699" x="1583.885" y="105.782916" style="fill: #c62828; stroke: #ffffff; stroke-linejoin: miter"/>
     </g>
    </g>
    <g id="text_93">
     <text style="font: 11px 'Apple SD Gothic Neo'; text-anchor: start" x="1603.685" y="109.632916" transform="rotate(-0 1603.685 109.632916)">GATE</text>
    </g>
    <g id="line2d_13">
     <path d="M 1572.885 120.785885 
L 1583.885 120.785885 
L 1594.885 120.785885 
" style="fill: none; stroke: #ffffff; stroke-width: 1.5; stroke-linecap: square"/>
     <defs>
      <path id="mc9262a0692" d="M -0 8.485281 
L 8.485281 0 
L 0 -8.485281 
L -8.485281 -0 
z
" style="stroke: #ffffff; stroke-linejoin: miter"/>
     </defs>
     <g>
      <use xlink:href="#mc9262a0692" x="1583.885" y="120.785885" style="fill: #e65100; stroke: #ffffff; stroke-linejoin: miter"/>
     </g>
    </g>
    <g id="text_94">
     <text style="font: 11px 'Apple SD Gothic Neo'; text-anchor: start" x="1603.685" y="124.635885" transform="rotate(-0 1603.685 124.635885)">Milestone</text>
    </g>
   </g>
   <g id="line2d_14">
    <path d="M 346.22439 178.289141 
" clip-path="url(#pc911c21302)" style="fill: none; stroke: #c62828; stroke-width: 1.5; stroke-linecap: square"/>
    <defs>
     <path id="mecf7235366" d="M -0 11.313708 
L 11.313708 0 
L 0 -11.313708 
L -11.313708 -0 
z
" style="stroke: #ffffff; stroke-width: 2.5; stroke-linejoin: miter"/>
    </defs>
    <g clip-path="url(#pc911c21302)">
     <use xlink:href="#mecf7235366" x="346.22439" y="178.289141" style="fill: #c62828; stroke: #ffffff; stroke-width: 2.5; stroke-linejoin: miter"/>
    </g>
   </g>
   <g id="text_95">
    <g id="patch_97">
     <path d="M 298.693921 162.516086 
L 393.754859 162.516086 
Q 396.754859 162.516086 396.754859 159.516086 
L 396.754859 140.722024 
Q 396.754859 137.722024 393.754859 137.722024 
L 298.693921 137.722024 
Q 295.693921 137.722024 295.693921 140.722024 
L 295.693921 159.516086 
Q 295.693921 162.516086 298.693921 162.516086 
z
" style="fill: #ffffff; opacity: 0.95; stroke: #c62828; stroke-width: 1.5; stroke-linejoin: miter"/>
    </g>
    <text style="fill: #c62828; font: 700 10px 'Apple SD Gothic Neo'" transform="translate(298.693921 148.301711)">M0: Go/No-Go (GATE)</text>
    <text style="fill: #c62828; font: 700 10px 'Apple SD Gothic Neo'" transform="translate(338.984546 158.456711)">4/4</text>
   </g>
   <g id="line2d_15">
    <path d="M 888.663415 178.289141 
" clip-path="url(#pc911c21302)" style="fill: none; stroke: #e65100; stroke-width: 1.5; stroke-linecap: square"/>
    <defs>
     <path id="m06d8456c1e" d="M -0 11.313708 
L 11.313708 0 
L 0 -11.313708 
L -11.313708 -0 
z
" style="stroke: #ffffff; stroke-width: 2.5; stroke-linejoin: miter"/>
    </defs>
    <g clip-path="url(#pc911c21302)">
     <use xlink:href="#m06d8456c1e" x="888.663415" y="178.289141" style="fill: #e65100; stroke: #ffffff; stroke-width: 2.5; stroke-linejoin: miter"/>
    </g>
   </g>
   <g id="text_96">
    <g id="patch_98">
     <path d="M 862.863415 162.566867 
L 914.463415 162.566867 
Q 917.463415 162.566867 917.463415 159.566867 
L 917.463415 140.671242 
Q 917.463415 137.671242 914.463415 137.671242 
L 862.863415 137.671242 
Q 859.863415 137.671242 859.863415 140.671242 
L 859.863415 159.566867 
Q 859.863415 162.566867 862.863415 162.566867 
z
" style="fill: #ffffff; opacity: 0.95; stroke: #e65100; stroke-width: 1.5; stroke-linejoin: miter"/>
    </g>
    <text style="fill: #e65100; font: 700 10px 'Apple SD Gothic Neo'" transform="translate(862.863415 148.352492)">M1: 개발완료</text>
    <text style="fill: #e65100; font: 700 10px 'Apple SD Gothic Neo'" transform="translate(881.813415 158.507492)">5/2</text>
   </g>
   <g id="line2d_16">
    <path d="M 1159.882927 178.289141 
" clip-path="url(#pc911c21302)" style="fill: none; stroke: #e65100; stroke-width: 1.5; stroke-linecap: square"/>
    <g clip-path="url(#pc911c21302)">
     <use xlink:href="#m06d8456c1e" x="1159.882927" y="178.289141" style="fill: #e65100; stroke: #ffffff; stroke-width: 2.5; stroke-linejoin: miter"/>
    </g>
   </g>
   <g id="text_97">
    <g id="patch_99">
     <path d="M 1133.203239 162.521555 
L 1186.562614 162.521555 
Q 1189.562614 162.521555 1189.562614 159.521555 
L 1189.562614 140.716555 
Q 1189.562614 137.716555 1186.562614 137.716555 
L 1133.203239 137.716555 
Q 1130.203239 137.716555 1130.203239 140.716555 
L 1130.203239 159.521555 
Q 1130.203239 162.521555 1133.203239 162.521555 
z
" style="fill: #ffffff; opacity: 0.95; stroke: #e65100; stroke-width: 1.5; stroke-linejoin: miter"/>
    </g>
    <text style="fill: #e65100; font: 700 10px 'Apple SD Gothic Neo'" transform="translate(1133.203239 148.30718)">M2: 검증완료</text>
    <text style="fill: #e65100; font: 700 10px 'Apple SD Gothic Neo'" transform="translate(1151.142302 158.46218)">5/16</text>
   </g>
   <g id="line2d_17">
    <path d="M 1295.492683 178.289141 
" clip-path="url(#pc911c21302)" style="fill: none; stroke: #e65100; stroke-width: 1.5; stroke-linecap: square"/>
    <g clip-path="url(#pc911c21302)">
     <use xlink:href="#m06d8456c1e" x="1295.492683" y="178.289141" style="fill: #e65100; stroke: #ffffff; stroke-width: 2.5; stroke-linejoin: miter"/>
    </g>
   </g>
   <g id="text_98">
    <g id="patch_100">
     <path d="M 1268.798152 162.516086 
L 1322.187214 162.516086 
Q 1325.187214 162.516086 1325.187214 159.516086 
L 1325.187214 140.722024 
Q 1325.187214 137.722024 1322.187214 137.722024 
L 1268.798152 137.722024 
Q 1265.798152 137.722024 1265.798152 140.722024 
L 1265.798152 159.516086 
Q 1265.798152 162.516086 1268.798152 162.516086 
z
" style="fill: #ffffff; opacity: 0.95; stroke: #e65100; stroke-width: 1.5; stroke-linejoin: miter"/>
    </g>
    <text style="fill: #e65100; font: 700 10px 'Apple SD Gothic Neo'" transform="translate(1268.798152 148.301711)">M3: 전환완료</text>
    <text style="fill: #e65100; font: 700 10px 'Apple SD Gothic Neo'" transform="translate(1285.962995 158.456711)">5/23</text>
   </g>
   <g id="line2d_18">
    <path d="M 1431.102439 178.289141 
" clip-path="url(#pc911c21302)" style="fill: none; stroke: #e65100; stroke-width: 1.5; stroke-linecap: square"/>
    <g clip-path="url(#pc911c21302)">
     <use xlink:href="#m06d8456c1e" x="1431.102439" y="178.289141" style="fill: #e65100; stroke: #ffffff; stroke-width: 2.5; stroke-linejoin: miter"/>
    </g>
   </g>
   <g id="text_99">
    <g id="patch_101">
     <path d="M 1399.987595 162.566867 
L 1462.217283 162.566867 
Q 1465.217283 162.566867 1465.217283 159.566867 
L 1465.217283 140.671242 
Q 1465.217283 137.671242 1462.217283 137.671242 
L 1399.987595 137.671242 
Q 1396.987595 137.671242 1396.987595 140.671242 
L 1396.987595 159.566867 
Q 1396.987595 162.566867 1399.987595 162.566867 
z
" style="fill: #ffffff; opacity: 0.95; stroke: #e65100; stroke-width: 1.5; stroke-linejoin: miter"/>
    </g>
    <text style="fill: #e65100; font: 700 10px 'Apple SD Gothic Neo'" transform="translate(1399.987595 148.352492)">M4: 안정화완료</text>
    <text style="fill: #e65100; font: 700 10px 'Apple SD Gothic Neo'" transform="translate(1421.087595 158.507492)">5/30</text>
   </g>
   <g id="line2d_19">
    <path d="M 1566.712195 178.289141 
" clip-path="url(#pc911c21302)" style="fill: none; stroke: #e65100; stroke-width: 1.5; stroke-linecap: square"/>
    <g clip-path="url(#pc911c21302)">
     <use xlink:href="#m06d8456c1e" x="1566.712195" y="178.289141" style="fill: #e65100; stroke: #ffffff; stroke-width: 2.5; stroke-linejoin: miter"/>
    </g>
   </g>
   <g id="text_100">
    <g id="patch_102">
     <path d="M 1540.202039 162.566867 
L 1593.222351 162.566867 
Q 1596.222351 162.566867 1596.222351 159.566867 
L 1596.222351 140.671242 
Q 1596.222351 137.671242 1593.222351 137.671242 
L 1540.202039 137.671242 
Q 1537.202039 137.671242 1537.202039 140.671242 
L 1537.202039 159.566867 
Q 1537.202039 162.566867 1540.202039 162.566867 
z
" style="fill: #ffffff; opacity: 0.95; stroke: #e65100; stroke-width: 1.5; stroke-linejoin: miter"/>
    </g>
    <text style="fill: #e65100; font: 700 10px 'Apple SD Gothic Neo'" transform="translate(1540.202039 148.352492)">M5: 삭제완료</text>
    <text style="fill: #e65100; font: 700 10px 'Apple SD Gothic Neo'" transform="translate(1559.481726 158.507492)">6/6</text>
   </g>
  </g>
 </g>
 <defs>
  <clipPath id="pc911c21302">
   <rect x="7.2" y="113.28125" width="1668" height="1094.2995"/>
  </clipPath>
 </defs>
</svg>
