<?xml version="1.0" encoding="utf-8" standalone="no"?>
<!DOCTYPE svg PUBLIC "-//W3C//DTD SVG 1.1//EN"
  "http://www.w3.org/Graphics/SVG/1.1/DTD/svg11.dtd">
<svg xmlns:xlink="http://www.w3.org/1999/xlink" width="1353.6pt" height="904.067059pt" viewBox="0 0 1353.6 904.067059" xmlns="http://www.w3.org/2000/svg" version="1.1">
 <metadata>
  <rdf:RDF xmlns:dc="http://purl.org/dc/elements/1.1/" xmlns:cc="http://creativecommons.org/ns#" xmlns:rdf="http://www.w3.org/1999/02/22-rdf-syntax-ns#">
   <cc:Work>
    <dc:type rdf:resource="http://purl.org/dc/dcmitype/StillImage"/>
    <dc:date>2026-02-20T19:05:58.662680</dc:date>
    <dc:format>image/svg+xml</dc:format>
    <dc:creator>
     <cc:Agent>
      <dc:title>Matplotlib v3.9.4, https://matplotlib.org/</dc:title>
     </cc:Agent>
    </dc:creator>
   </cc:Work>
  </rdf:RDF>
 </metadata>
 <defs>
  <style type="text/css">*{stroke-linejoin: round; stroke-linecap: butt}</style>
 </defs>
 <g id="figure_1">
  <g id="patch_1">
   <path d="M 0 904.067059 
L 1353.6 904.067059 
L 1353.6 0 
L 0 0 
z
" style="fill: #ffffff"/>
  </g>
  <g id="axes_1">
   <g id="PolyCollection_1">
    <defs>
     <path id="m35cd7b0b86" d="M 197.086567 -28.941176 
L 197.086567 -842.061176 
L 297.026866 -842.061176 
L 297.026866 -28.941176 
L 297.026866 -28.941176 
L 197.086567 -28.941176 
z
" style="stroke: #f3f4f6; stroke-opacity: 0.5"/>
    </defs>
    <g clip-path="url(#p8e40743669)">
     <use xlink:href="#m35cd7b0b86" x="0" y="904.067059" style="fill: #f3f4f6; fill-opacity: 0.5; stroke: #f3f4f6; stroke-opacity: 0.5"/>
    </g>
   </g>
   <g id="PolyCollection_2">
    <defs>
     <path id="m151efbf3c2" d="M 396.967164 -28.941176 
L 396.967164 -842.061176 
L 496.907463 -842.061176 
L 496.907463 -28.941176 
L 496.907463 -28.941176 
L 396.967164 -28.941176 
z
" style="stroke: #f3f4f6; stroke-opacity: 0.5"/>
    </defs>
    <g clip-path="url(#p8e40743669)">
     <use xlink:href="#m151efbf3c2" x="0" y="904.067059" style="fill: #f3f4f6; fill-opacity: 0.5; stroke: #f3f4f6; stroke-opacity: 0.5"/>
    </g>
   </g>
   <g id="PolyCollection_3">
    <defs>
     <path id="m1168ae69c3" d="M 596.847761 -28.941176 
L 596.847761 -842.061176 
L 696.78806 -842.061176 
L 696.78806 -28.941176 
L 696.78806 -28.941176 
L 596.847761 -28.941176 
z
" style="stroke: #f3f4f6; stroke-opacity: 0.5"/>
    </defs>
    <g clip-path="url(#p8e40743669)">
     <use xlink:href="#m1168ae69c3" x="0" y="904.067059" style="fill: #f3f4f6; fill-opacity: 0.5; stroke: #f3f4f6; stroke-opacity: 0.5"/>
    </g>
   </g>
   <g id="PolyCollection_4">
    <defs>
     <path id="m09c519b2ca" d="M 796.728358 -28.941176 
L 796.728358 -842.061176 
L 896.668657 -842.061176 
L 896.668657 -28.941176 
L 896.668657 -28.941176 
L 796.728358 -28.941176 
z
" style="stroke: #f3f4f6; stroke-opacity: 0.5"/>
    </defs>
    <g clip-path="url(#p8e40743669)">
     <use xlink:href="#m09c519b2ca" x="0" y="904.067059" style="fill: #f3f4f6; fill-opacity: 0.5; stroke: #f3f4f6; stroke-opacity: 0.5"/>
    </g>
   </g>
   <g id="PolyCollection_5">
    <defs>
     <path id="mdb9659422c" d="M 996.608955 -28.941176 
L 996.608955 -842.061176 
L 1096.549254 -842.061176 
L 1096.549254 -28.941176 
L 1096.549254 -28.941176 
L 996.608955 -28.941176 
z
" style="stroke: #f3f4f6; stroke-opacity: 0.5"/>
    </defs>
    <g clip-path="url(#p8e40743669)">
     <use xlink:href="#mdb9659422c" x="0" y="904.067059" style="fill: #f3f4f6; fill-opacity: 0.5; stroke: #f3f4f6; stroke-opacity: 0.5"/>
    </g>
   </g>
   <g id="line2d_1">
    <path d="M 247.056716 90.269412 
L 247.056716 875.125882 
" clip-path="url(#p8e40743669)" style="fill: none; stroke-dasharray: 2.96,1.28; stroke-dashoffset: 0; stroke: #ef4444; stroke-opacity: 0.1; stroke-width: 0.8"/>
   </g>
   <g id="line2d_2">
    <path d="M 646.81791 90.269412 
L 646.81791 875.125882 
" clip-path="url(#p8e40743669)" style="fill: none; stroke-dasharray: 2.96,1.28; stroke-dashoffset: 0; stroke: #3b82f6; stroke-opacity: 0.1; stroke-width: 0.8"/>
   </g>
   <g id="line2d_3">
    <path d="M 846.698507 90.269412 
L 846.698507 875.125882 
" clip-path="url(#p8e40743669)" style="fill: none; stroke-dasharray: 2.96,1.28; stroke-dashoffset: 0; stroke: #3b82f6; stroke-opacity: 0.1; stroke-width: 0.8"/>
   </g>
   <g id="line2d_4">
    <path d="M 946.638806 90.269412 
L 946.638806 875.125882 
" clip-path="url(#p8e40743669)" style="fill: none; stroke-dasharray: 2.96,1.28; stroke-dashoffset: 0; stroke: #3b82f6; stroke-opacity: 0.1; stroke-width: 0.8"/>
   </g>
   <g id="line2d_5">
    <path d="M 1046.579104 90.269412 
L 1046.579104 875.125882 
" clip-path="url(#p8e40743669)" style="fill: none; stroke-dasharray: 2.96,1.28; stroke-dashoffset: 0; stroke: #3b82f6; stroke-opacity: 0.1; stroke-width: 0.8"/>
   </g>
   <g id="line2d_6">
    <path d="M 1146.519403 90.269412 
L 1146.519403 875.125882 
" clip-path="url(#p8e40743669)" style="fill: none; stroke-dasharray: 2.96,1.28; stroke-dashoffset: 0; stroke: #3b82f6; stroke-opacity: 0.1; stroke-width: 0.8"/>
   </g>
   <g id="PolyCollection_6">
    <defs>
     <path id="mb2fa5e2be5" d="M 192.089552 -750.748235 
L 192.089552 -778.576941 
L 1201.486567 -778.576941 
L 1201.486567 -750.748235 
L 1201.486567 -750.748235 
L 192.089552 -750.748235 
z
" style="stroke: #f9fafb; stroke-opacity: 0.4"/>
    </defs>
    <g clip-path="url(#p8e40743669)">
     <use xlink:href="#mb2fa5e2be5" x="0" y="904.067059" style="fill: #f9fafb; fill-opacity: 0.4; stroke: #f9fafb; stroke-opacity: 0.4"/>
    </g>
   </g>
   <g id="PolyCollection_7">
    <defs>
     <path id="mb71b4183d5" d="M 192.089552 -691.612235 
L 192.089552 -719.440941 
L 1201.486567 -719.440941 
L 1201.486567 -691.612235 
L 1201.486567 -691.612235 
L 192.089552 -691.612235 
z
" style="stroke: #f9fafb; stroke-opacity: 0.4"/>
    </defs>
    <g clip-path="url(#p8e40743669)">
     <use xlink:href="#mb71b4183d5" x="0" y="904.067059" style="fill: #f9fafb; fill-opacity: 0.4; stroke: #f9fafb; stroke-opacity: 0.4"/>
    </g>
   </g>
   <g id="PolyCollection_8">
    <defs>
     <path id="m2834484669" d="M 192.089552 -632.476235 
L 192.089552 -660.304941 
L 1201.486567 -660.304941 
L 1201.486567 -632.476235 
L 1201.486567 -632.476235 
L 192.089552 -632.476235 
z
" style="stroke: #f9fafb; stroke-opacity: 0.4"/>
    </defs>
    <g clip-path="url(#p8e40743669)">
     <use xlink:href="#m2834484669" x="0" y="904.067059" style="fill: #f9fafb; fill-opacity: 0.4; stroke: #f9fafb; stroke-opacity: 0.4"/>
    </g>
   </g>
   <g id="PolyCollection_9">
    <defs>
     <path id="mb0b1f9288c" d="M 192.089552 -573.340235 
L 192.089552 -601.168941 
L 1201.486567 -601.168941 
L 1201.486567 -573.340235 
L 1201.486567 -573.340235 
L 192.089552 -573.340235 
z
" style="stroke: #f9fafb; stroke-opacity: 0.4"/>
    </defs>
    <g clip-path="url(#p8e40743669)">
     <use xlink:href="#mb0b1f9288c" x="0" y="904.067059" style="fill: #f9fafb; fill-opacity: 0.4; stroke: #f9fafb; stroke-opacity: 0.4"/>
    </g>
   </g>
   <g id="PolyCollection_10">
    <defs>
     <path id="mf760033842" d="M 192.089552 -514.204235 
L 192.089552 -542.032941 
L 1201.486567 -542.032941 
L 1201.486567 -514.204235 
L 1201.486567 -514.204235 
L 192.089552 -514.204235 
z
" style="stroke: #f9fafb; stroke-opacity: 0.4"/>
    </defs>
    <g clip-path="url(#p8e40743669)">
     <use xlink:href="#mf760033842" x="0" y="904.067059" style="fill: #f9fafb; fill-opacity: 0.4; stroke: #f9fafb; stroke-opacity: 0.4"/>
    </g>
   </g>
   <g id="PolyCollection_11">
    <defs>
     <path id="md42876681d" d="M 192.089552 -455.068235 
L 192.089552 -482.896941 
L 1201.486567 -482.896941 
L 1201.486567 -455.068235 
L 1201.486567 -455.068235 
L 192.089552 -455.068235 
z
" style="stroke: #f9fafb; stroke-opacity: 0.4"/>
    </defs>
    <g clip-path="url(#p8e40743669)">
     <use xlink:href="#md42876681d" x="0" y="904.067059" style="fill: #f9fafb; fill-opacity: 0.4; stroke: #f9fafb; stroke-opacity: 0.4"/>
    </g>
   </g>
   <g id="PolyCollection_12">
    <defs>
     <path id="m198e78a87c" d="M 192.089552 -395.932235 
L 192.089552 -423.760941 
L 1201.486567 -423.760941 
L 1201.486567 -395.932235 
L 1201.486567 -395.932235 
L 192.089552 -395.932235 
z
" style="stroke: #f9fafb; stroke-opacity: 0.4"/>
    </defs>
    <g clip-path="url(#p8e40743669)">
     <use xlink:href="#m198e78a87c" x="0" y="904.067059" style="fill: #f9fafb; fill-opacity: 0.4; stroke: #f9fafb; stroke-opacity: 0.4"/>
    </g>
   </g>
   <g id="PolyCollection_13">
    <defs>
     <path id="m65bd36d395" d="M 192.089552 -336.796235 
L 192.089552 -364.624941 
L 1201.486567 -364.624941 
L 1201.486567 -336.796235 
L 1201.486567 -336.796235 
L 192.089552 -336.796235 
z
" style="stroke: #f9fafb; stroke-opacity: 0.4"/>
    </defs>
    <g clip-path="url(#p8e40743669)">
     <use xlink:href="#m65bd36d395" x="0" y="904.067059" style="fill: #f9fafb; fill-opacity: 0.4; stroke: #f9fafb; stroke-opacity: 0.4"/>
    </g>
   </g>
   <g id="PolyCollection_14">
    <defs>
     <path id="me1327f9193" d="M 192.089552 -277.660235 
L 192.089552 -305.488941 
L 1201.486567 -305.488941 
L 1201.486567 -277.660235 
L 1201.486567 -277.660235 
L 192.089552 -277.660235 
z
" style="stroke: #f9fafb; stroke-opacity: 0.4"/>
    </defs>
    <g clip-path="url(#p8e40743669)">
     <use xlink:href="#me1327f9193" x="0" y="904.067059" style="fill: #f9fafb; fill-opacity: 0.4; stroke: #f9fafb; stroke-opacity: 0.4"/>
    </g>
   </g>
   <g id="PolyCollection_15">
    <defs>
     <path id="mc5d8efd20e" d="M 192.089552 -218.524235 
L 192.089552 -246.352941 
L 1201.486567 -246.352941 
L 1201.486567 -218.524235 
L 1201.486567 -218.524235 
L 192.089552 -218.524235 
z
" style="stroke: #f9fafb; stroke-opacity: 0.4"/>
    </defs>
    <g clip-path="url(#p8e40743669)">
     <use xlink:href="#mc5d8efd20e" x="0" y="904.067059" style="fill: #f9fafb; fill-opacity: 0.4; stroke: #f9fafb; stroke-opacity: 0.4"/>
    </g>
   </g>
   <g id="PolyCollection_16">
    <defs>
     <path id="md0973645ef" d="M 192.089552 -159.388235 
L 192.089552 -187.216941 
L 1201.486567 -187.216941 
L 1201.486567 -159.388235 
L 1201.486567 -159.388235 
L 192.089552 -159.388235 
z
" style="stroke: #f9fafb; stroke-opacity: 0.4"/>
    </defs>
    <g clip-path="url(#p8e40743669)">
     <use xlink:href="#md0973645ef" x="0" y="904.067059" style="fill: #f9fafb; fill-opacity: 0.4; stroke: #f9fafb; stroke-opacity: 0.4"/>
    </g>
   </g>
   <g id="PolyCollection_17">
    <defs>
     <path id="m9a29f39e80" d="M 192.089552 -100.252235 
L 192.089552 -128.080941 
L 1201.486567 -128.080941 
L 1201.486567 -100.252235 
L 1201.486567 -100.252235 
L 192.089552 -100.252235 
z
" style="stroke: #f9fafb; stroke-opacity: 0.4"/>
    </defs>
    <g clip-path="url(#p8e40743669)">
     <use xlink:href="#m9a29f39e80" x="0" y="904.067059" style="fill: #f9fafb; fill-opacity: 0.4; stroke: #f9fafb; stroke-opacity: 0.4"/>
    </g>
   </g>
   <g id="line2d_7">
    <path d="M 27.18806 88.530118 
L 1326.41194 88.530118 
" clip-path="url(#p8e40743669)" style="fill: none; stroke: #e5e7eb; stroke-width: 0.7; stroke-linecap: square"/>
   </g>
   <g id="line2d_8">
    <path d="M 27.18806 236.370118 
L 1326.41194 236.370118 
" clip-path="url(#p8e40743669)" style="fill: none; stroke: #e5e7eb; stroke-width: 0.7; stroke-linecap: square"/>
   </g>
   <g id="line2d_9">
    <path d="M 27.18806 443.346118 
L 1326.41194 443.346118 
" clip-path="url(#p8e40743669)" style="fill: none; stroke: #e5e7eb; stroke-width: 0.7; stroke-linecap: square"/>
   </g>
   <g id="line2d_10">
    <path d="M 27.18806 650.322118 
L 1326.41194 650.322118 
" clip-path="url(#p8e40743669)" style="fill: none; stroke: #e5e7eb; stroke-width: 0.7; stroke-linecap: square"/>
   </g>
   <g id="line2d_11">
    <path d="M 27.18806 798.162118 
L 1326.41194 798.162118 
" clip-path="url(#p8e40743669)" style="fill: none; stroke: #e5e7eb; stroke-width: 0.7; stroke-linecap: square"/>
   </g>
   <g id="line2d_12">
    <path d="M 27.18806 875.125882 
L 1326.41194 875.125882 
" clip-path="url(#p8e40743669)" style="fill: none; stroke: #e5e7eb; stroke-width: 0.7; stroke-linecap: square"/>
   </g>
   <g id="line2d_13">
    <path d="M 192.089552 90.269412 
L 1201.486567 90.269412 
" clip-path="url(#p8e40743669)" style="fill: none; stroke: #e5e7eb; stroke-width: 1.2; stroke-linecap: square"/>
   </g>
   <g id="line2d_14">
    <defs>
     <path id="m14f9482de3" d="M -0 4.242641 
L 4.242641 0 
L 0 -4.242641 
L -4.242641 -0 
z
" style="stroke: #ffffff; stroke-linejoin: miter"/>
    </defs>
    <g clip-path="url(#p8e40743669)">
     <use xlink:href="#m14f9482de3" x="982.617313" y="889.475059" style="fill: #3b82f6; stroke: #ffffff; stroke-linejoin: miter"/>
    </g>
   </g>
   <g id="line2d_15">
    <defs>
     <path id="m5c79372e1b" d="M -0 4.242641 
L 4.242641 0 
L 0 -4.242641 
L -4.242641 -0 
z
" style="stroke: #ffffff; stroke-linejoin: miter"/>
    </defs>
    <g clip-path="url(#p8e40743669)">
     <use xlink:href="#m5c79372e1b" x="1122.533731" y="889.475059" style="fill: #ef4444; stroke: #ffffff; stroke-linejoin: miter"/>
    </g>
   </g>
   <g id="text_1">
    <text style="fill: #111827; font: 700 22px 'Apple SD Gothic Neo'; text-anchor: start" x="37.18209" y="24.889375" transform="rotate(-0 37.18209 24.889375)">t_coupon_issue INSERT 부하 개선</text>
   </g>
   <g id="text_2">
    <text style="fill: #6b7280; font: 13px 'Apple SD Gothic Neo'; text-anchor: start" x="37.18209" y="41.061636" transform="rotate(-0 37.18209 41.061636)">Implementation Gantt Chart</text>
   </g>
   <g id="text_3">
    <text style="fill: #111827; font: 700 14px 'Apple SD Gothic Neo'; text-anchor: end" x="1326.41194" y="25.736875" transform="rotate(-0 1326.41194 25.736875)">Total 118 MD</text>
   </g>
   <g id="text_4">
    <text style="fill: #6b7280; font: 11px 'Apple SD Gothic Neo'; text-anchor: end" x="1326.41194" y="41.273511" transform="rotate(-0 1326.41194 41.273511)">10 Weeks  /  5 Roles</text>
   </g>
   <g id="text_5">
    <text style="fill: #6b7280; font: 500 9px 'Apple SD Gothic Neo'" transform="translate(241.611716 75.248011)">W1</text>
    <text style="fill: #6b7280; font: 500 9px 'Apple SD Gothic Neo'" transform="translate(241.431716 85.069682)">4/1</text>
   </g>
   <g id="text_6">
    <text style="fill: #6b7280; font: 500 9px 'Apple SD Gothic Neo'" transform="translate(340.760296 75.248011)">W2</text>
    <text style="fill: #6b7280; font: 500 9px 'Apple SD Gothic Neo'" transform="translate(340.773656 85.069682)">4/7</text>
   </g>
   <g id="text_7">
    <text style="fill: #6b7280; font: 500 9px 'Apple SD Gothic Neo'" transform="translate(440.687235 75.248011)">W3</text>
    <text style="fill: #6b7280; font: 500 9px 'Apple SD Gothic Neo'" transform="translate(438.814813 85.069682)">4/14</text>
   </g>
   <g id="text_8">
    <text style="fill: #6b7280; font: 500 9px 'Apple SD Gothic Neo'" transform="translate(540.541753 75.248011)">W4</text>
    <text style="fill: #6b7280; font: 500 9px 'Apple SD Gothic Neo'" transform="translate(538.854253 85.069682)">4/21</text>
   </g>
   <g id="text_9">
    <text style="fill: #6b7280; font: 500 9px 'Apple SD Gothic Neo'" transform="translate(640.73377 75.248011)">W5</text>
    <text style="fill: #6b7280; font: 500 9px 'Apple SD Gothic Neo'" transform="translate(637.813692 85.069682)">4/28</text>
   </g>
   <g id="text_10">
    <text style="fill: #6b7280; font: 500 9px 'Apple SD Gothic Neo'" transform="translate(740.426568 75.248011)">W6</text>
    <text style="fill: #6b7280; font: 500 9px 'Apple SD Gothic Neo'" transform="translate(740.745787 85.069682)">5/5</text>
   </g>
   <g id="text_11">
    <text style="fill: #6b7280; font: 500 9px 'Apple SD Gothic Neo'" transform="translate(840.655148 75.248011)">W7</text>
    <text style="fill: #6b7280; font: 500 9px 'Apple SD Gothic Neo'" transform="translate(838.926867 85.069682)">5/12</text>
   </g>
   <g id="text_12">
    <text style="fill: #6b7280; font: 500 9px 'Apple SD Gothic Neo'" transform="translate(940.212947 75.248011)">W8</text>
    <text style="fill: #6b7280; font: 500 9px 'Apple SD Gothic Neo'" transform="translate(938.772243 85.069682)">5/19</text>
   </g>
   <g id="text_13">
    <text style="fill: #6b7280; font: 500 9px 'Apple SD Gothic Neo'" transform="translate(1040.247464 75.248011)">W9</text>
    <text style="fill: #6b7280; font: 500 9px 'Apple SD Gothic Neo'" transform="translate(1037.920823 85.069682)">5/26</text>
   </g>
   <g id="text_14">
    <text style="fill: #6b7280; font: 500 9px 'Apple SD Gothic Neo'" transform="translate(1138.239403 75.248011)">W10</text>
    <text style="fill: #6b7280; font: 500 9px 'Apple SD Gothic Neo'" transform="translate(1140.106903 85.069682)">6/2</text>
   </g>
   <g id="text_15">
    <text style="fill: #ef4444; font: 700 7.5px 'Apple SD Gothic Neo'; text-anchor: middle" x="247.056716" y="47.296998" transform="rotate(-0 247.056716 47.296998)">M0</text>
   </g>
   <g id="text_16">
    <text style="fill: #3b82f6; font: 700 7.5px 'Apple SD Gothic Neo'; text-anchor: middle" x="646.81791" y="47.296998" transform="rotate(-0 646.81791 47.296998)">M1</text>
   </g>
   <g id="text_17">
    <text style="fill: #3b82f6; font: 700 7.5px 'Apple SD Gothic Neo'; text-anchor: middle" x="846.698507" y="47.296998" transform="rotate(-0 846.698507 47.296998)">M2</text>
   </g>
   <g id="text_18">
    <text style="fill: #3b82f6; font: 700 7.5px 'Apple SD Gothic Neo'; text-anchor: middle" x="946.638806" y="47.296998" transform="rotate(-0 946.638806 47.296998)">M3</text>
   </g>
   <g id="text_19">
    <text style="fill: #3b82f6; font: 700 7.5px 'Apple SD Gothic Neo'; text-anchor: middle" x="1046.579104" y="47.296998" transform="rotate(-0 1046.579104 47.296998)">M4</text>
   </g>
   <g id="text_20">
    <text style="fill: #3b82f6; font: 700 7.5px 'Apple SD Gothic Neo'; text-anchor: middle" x="1146.519403" y="47.296998" transform="rotate(-0 1146.519403 47.296998)">M5</text>
   </g>
   <g id="text_21">
    <text style="fill: #111827; font: 700 10.5px 'Apple SD Gothic Neo'; text-anchor: start" x="37.18209" y="85.67848" transform="rotate(-0 37.18209 85.67848)">P0 설계확정</text>
   </g>
   <g id="text_22">
    <text style="fill: #9ca3af; font: 8.5px 'Apple SD Gothic Neo'; text-anchor: start" x="165.105672" y="85.890355" transform="rotate(-0 165.105672 85.890355)">12 MD</text>
   </g>
   <g id="text_23">
    <text style="fill: #3b82f6; font: 700 9.5px 'Apple SD Gothic Neo'; text-anchor: end" x="182.095522" y="112.933619" transform="rotate(-0 182.095522 112.933619)">BE-1</text>
   </g>
   <g id="patch_2">
    <path d="M 204.082388 120.272235 
L 240.060896 120.272235 
Q 247.056716 120.272235 247.056716 117.228471 
L 247.056716 102.444471 
Q 247.056716 99.400706 240.060896 99.400706 
L 204.082388 99.400706 
Q 197.086567 99.400706 197.086567 102.444471 
L 197.086567 117.228471 
Q 197.086567 120.272235 204.082388 120.272235 
z
" clip-path="url(#p8e40743669)" style="fill: #3b82f6; opacity: 0.85"/>
   </g>
   <g id="patch_3">
    <path d="M 254.052537 120.272235 
L 290.031045 120.272235 
Q 297.026866 120.272235 297.026866 117.228471 
L 297.026866 102.444471 
Q 297.026866 99.400706 290.031045 99.400706 
L 254.052537 99.400706 
Q 247.056716 99.400706 247.056716 102.444471 
L 247.056716 117.228471 
Q 247.056716 120.272235 254.052537 120.272235 
z
" clip-path="url(#p8e40743669)" style="fill: #3b82f6; opacity: 0.85"/>
   </g>
   <g id="text_24">
    <text style="fill: #1d4ed8; font: 700 9.5px 'Apple SD Gothic Neo'; text-anchor: end" x="182.095522" y="142.501619" transform="rotate(-0 182.095522 142.501619)">BE-2</text>
   </g>
   <g id="patch_4">
    <path d="M 204.082388 149.840235 
L 240.060896 149.840235 
Q 247.056716 149.840235 247.056716 146.796471 
L 247.056716 132.012471 
Q 247.056716 128.968706 240.060896 128.968706 
L 204.082388 128.968706 
Q 197.086567 128.968706 197.086567 132.012471 
L 197.086567 146.796471 
Q 197.086567 149.840235 204.082388 149.840235 
z
" clip-path="url(#p8e40743669)" style="fill: #1d4ed8; opacity: 0.85"/>
   </g>
   <g id="patch_5">
    <path d="M 254.052537 149.840235 
L 290.031045 149.840235 
Q 297.026866 149.840235 297.026866 146.796471 
L 297.026866 132.012471 
Q 297.026866 128.968706 290.031045 128.968706 
L 254.052537 128.968706 
Q 247.056716 128.968706 247.056716 132.012471 
L 247.056716 146.796471 
Q 247.056716 149.840235 254.052537 149.840235 
z
" clip-path="url(#p8e40743669)" style="fill: #1d4ed8; opacity: 0.85"/>
   </g>
   <g id="text_25">
    <text style="fill: #f59e0b; font: 700 9.5px 'Apple SD Gothic Neo'; text-anchor: end" x="182.095522" y="172.069619" transform="rotate(-0 182.095522 172.069619)">DBA</text>
   </g>
   <g id="patch_6">
    <path d="M 204.082388 179.408235 
L 260.048955 179.408235 
Q 267.044776 179.408235 267.044776 176.364471 
L 267.044776 161.580471 
Q 267.044776 158.536706 260.048955 158.536706 
L 204.082388 158.536706 
Q 197.086567 158.536706 197.086567 161.580471 
L 197.086567 176.364471 
Q 197.086567 179.408235 204.082388 179.408235 
z
" clip-path="url(#p8e40743669)" style="fill: #f59e0b; opacity: 0.85"/>
   </g>
   <g id="patch_7">
    <path d="M 274.040597 179.408235 
L 290.031045 179.408235 
Q 297.026866 179.408235 297.026866 176.364471 
L 297.026866 161.580471 
Q 297.026866 158.536706 290.031045 158.536706 
L 274.040597 158.536706 
Q 267.044776 158.536706 267.044776 161.580471 
L 267.044776 176.364471 
Q 267.044776 179.408235 274.040597 179.408235 
z
" clip-path="url(#p8e40743669)" style="fill: #f59e0b; opacity: 0.85"/>
   </g>
   <g id="text_26">
    <text style="fill: #10b981; font: 700 9.5px 'Apple SD Gothic Neo'; text-anchor: end" x="182.095522" y="201.637619" transform="rotate(-0 182.095522 201.637619)">SRE</text>
   </g>
   <g id="patch_8">
    <path d="M 204.082388 208.976235 
L 220.072836 208.976235 
Q 227.068657 208.976235 227.068657 205.932471 
L 227.068657 191.148471 
Q 227.068657 188.104706 220.072836 188.104706 
L 204.082388 188.104706 
Q 197.086567 188.104706 197.086567 191.148471 
L 197.086567 205.932471 
Q 197.086567 208.976235 204.082388 208.976235 
z
" clip-path="url(#p8e40743669)" style="fill: #10b981; opacity: 0.85"/>
   </g>
   <g id="patch_9">
    <path d="M 234.064478 208.976235 
L 290.031045 208.976235 
Q 297.026866 208.976235 297.026866 205.932471 
L 297.026866 191.148471 
Q 297.026866 188.104706 290.031045 188.104706 
L 234.064478 188.104706 
Q 227.068657 188.104706 227.068657 191.148471 
L 227.068657 205.932471 
Q 227.068657 208.976235 234.064478 208.976235 
z
" clip-path="url(#p8e40743669)" style="fill: #10b981; opacity: 0.85"/>
   </g>
   <g id="text_27">
    <text style="fill: #8b5cf6; font: 700 9.5px 'Apple SD Gothic Neo'; text-anchor: end" x="182.095522" y="231.205619" transform="rotate(-0 182.095522 231.205619)">QA</text>
   </g>
   <g id="patch_10">
    <path d="M 204.082388 238.544235 
L 240.060896 238.544235 
Q 247.056716 238.544235 247.056716 235.500471 
L 247.056716 220.716471 
Q 247.056716 217.672706 240.060896 217.672706 
L 204.082388 217.672706 
Q 197.086567 217.672706 197.086567 220.716471 
L 197.086567 235.500471 
Q 197.086567 238.544235 204.082388 238.544235 
z
" clip-path="url(#p8e40743669)" style="fill: #8b5cf6; opacity: 0.85"/>
   </g>
   <g id="text_28">
    <text style="fill: #111827; font: 700 10.5px 'Apple SD Gothic Neo'; text-anchor: start" x="37.18209" y="233.51848" transform="rotate(-0 37.18209 233.51848)">P1 개발</text>
   </g>
   <g id="text_29">
    <text style="fill: #9ca3af; font: 8.5px 'Apple SD Gothic Neo'; text-anchor: start" x="147.116418" y="233.730355" transform="rotate(-0 147.116418 233.730355)">55 MD</text>
   </g>
   <g id="text_30">
    <text style="fill: #3b82f6; font: 700 9.5px 'Apple SD Gothic Neo'; text-anchor: end" x="182.095522" y="260.773619" transform="rotate(-0 182.095522 260.773619)">BE-1</text>
   </g>
   <g id="patch_11">
    <path d="M 304.022687 268.112235 
L 489.911642 268.112235 
Q 496.907463 268.112235 496.907463 265.068471 
L 496.907463 250.284471 
Q 496.907463 247.240706 489.911642 247.240706 
L 304.022687 247.240706 
Q 297.026866 247.240706 297.026866 250.284471 
L 297.026866 265.068471 
Q 297.026866 268.112235 304.022687 268.112235 
z
" clip-path="url(#p8e40743669)" style="fill: #3b82f6; opacity: 0.85"/>
   </g>
   <g id="patch_12">
    <path d="M 503.903284 268.112235 
L 559.869851 268.112235 
Q 566.865672 268.112235 566.865672 265.068471 
L 566.865672 250.284471 
Q 566.865672 247.240706 559.869851 247.240706 
L 503.903284 247.240706 
Q 496.907463 247.240706 496.907463 250.284471 
L 496.907463 265.068471 
Q 496.907463 268.112235 503.903284 268.112235 
z
" clip-path="url(#p8e40743669)" style="fill: #3b82f6; opacity: 0.85"/>
   </g>
   <g id="patch_13">
    <path d="M 573.861493 268.112235 
L 619.83403 268.112235 
Q 626.829851 268.112235 626.829851 265.068471 
L 626.829851 250.284471 
Q 626.829851 247.240706 619.83403 247.240706 
L 573.861493 247.240706 
Q 566.865672 247.240706 566.865672 250.284471 
L 566.865672 265.068471 
Q 566.865672 268.112235 573.861493 268.112235 
z
" clip-path="url(#p8e40743669)" style="fill: #3b82f6; opacity: 0.85"/>
   </g>
   <g id="patch_14">
    <path d="M 633.825672 268.112235 
L 689.792239 268.112235 
Q 696.78806 268.112235 696.78806 265.068471 
L 696.78806 250.284471 
Q 696.78806 247.240706 689.792239 247.240706 
L 633.825672 247.240706 
Q 626.829851 247.240706 626.829851 250.284471 
L 626.829851 265.068471 
Q 626.829851 268.112235 633.825672 268.112235 
z
" clip-path="url(#p8e40743669)" style="fill: #3b82f6; opacity: 0.85"/>
   </g>
   <g id="text_31">
    <text style="fill: #1d4ed8; font: 700 9.5px 'Apple SD Gothic Neo'; text-anchor: end" x="182.095522" y="290.341619" transform="rotate(-0 182.095522 290.341619)">BE-2</text>
   </g>
   <g id="patch_15">
    <path d="M 304.022687 297.680235 
L 689.792239 297.680235 
Q 696.78806 297.680235 696.78806 294.636471 
L 696.78806 279.852471 
Q 696.78806 276.808706 689.792239 276.808706 
L 304.022687 276.808706 
Q 297.026866 276.808706 297.026866 279.852471 
L 297.026866 294.636471 
Q 297.026866 297.680235 304.022687 297.680235 
z
" clip-path="url(#p8e40743669)" style="fill: #1d4ed8; opacity: 0.85"/>
   </g>
   <g id="patch_16">
    <path d="M 304.022687 327.248235 
L 589.85194 327.248235 
Q 596.847761 327.248235 596.847761 324.204471 
L 596.847761 309.420471 
Q 596.847761 306.376706 589.85194 306.376706 
L 304.022687 306.376706 
Q 297.026866 306.376706 297.026866 309.420471 
L 297.026866 324.204471 
Q 297.026866 327.248235 304.022687 327.248235 
z
" clip-path="url(#p8e40743669)" style="fill: #1d4ed8; opacity: 0.85"/>
   </g>
   <g id="patch_17">
    <path d="M 603.843582 327.248235 
L 689.792239 327.248235 
Q 696.78806 327.248235 696.78806 324.204471 
L 696.78806 309.420471 
Q 696.78806 306.376706 689.792239 306.376706 
L 603.843582 306.376706 
Q 596.847761 306.376706 596.847761 309.420471 
L 596.847761 324.204471 
Q 596.847761 327.248235 603.843582 327.248235 
z
" clip-path="url(#p8e40743669)" style="fill: #1d4ed8; opacity: 0.85"/>
   </g>
   <g id="patch_18">
    <path d="M 603.843582 356.816235 
L 689.792239 356.816235 
Q 696.78806 356.816235 696.78806 353.772471 
L 696.78806 338.988471 
Q 696.78806 335.944706 689.792239 335.944706 
L 603.843582 335.944706 
Q 596.847761 335.944706 596.847761 338.988471 
L 596.847761 353.772471 
Q 596.847761 356.816235 603.843582 356.816235 
z
" clip-path="url(#p8e40743669)" style="fill: #1d4ed8; opacity: 0.85"/>
   </g>
   <g id="text_32">
    <text style="fill: #f59e0b; font: 700 9.5px 'Apple SD Gothic Neo'; text-anchor: end" x="182.095522" y="379.045619" transform="rotate(-0 182.095522 379.045619)">DBA</text>
   </g>
   <g id="patch_19">
    <path d="M 304.022687 386.384235 
L 589.85194 386.384235 
Q 596.847761 386.384235 596.847761 383.340471 
L 596.847761 368.556471 
Q 596.847761 365.512706 589.85194 365.512706 
L 304.022687 365.512706 
Q 297.026866 365.512706 297.026866 368.556471 
L 297.026866 383.340471 
Q 297.026866 386.384235 304.022687 386.384235 
z
" clip-path="url(#p8e40743669)" style="fill: #f59e0b; opacity: 0.85"/>
   </g>
   <g id="text_33">
    <text style="fill: #10b981; font: 700 9.5px 'Apple SD Gothic Neo'; text-anchor: end" x="182.095522" y="408.613619" transform="rotate(-0 182.095522 408.613619)">SRE</text>
   </g>
   <g id="patch_20">
    <path d="M 304.022687 415.952235 
L 589.85194 415.952235 
Q 596.847761 415.952235 596.847761 412.908471 
L 596.847761 398.124471 
Q 596.847761 395.080706 589.85194 395.080706 
L 304.022687 395.080706 
Q 297.026866 395.080706 297.026866 398.124471 
L 297.026866 412.908471 
Q 297.026866 415.952235 304.022687 415.952235 
z
" clip-path="url(#p8e40743669)" style="fill: #10b981; opacity: 0.85"/>
   </g>
   <g id="text_34">
    <text style="fill: #8b5cf6; font: 700 9.5px 'Apple SD Gothic Neo'; text-anchor: end" x="182.095522" y="438.181619" transform="rotate(-0 182.095522 438.181619)">QA</text>
   </g>
   <g id="patch_21">
    <path d="M 503.903284 445.520235 
L 689.792239 445.520235 
Q 696.78806 445.520235 696.78806 442.476471 
L 696.78806 427.692471 
Q 696.78806 424.648706 689.792239 424.648706 
L 503.903284 424.648706 
Q 496.907463 424.648706 496.907463 427.692471 
L 496.907463 442.476471 
Q 496.907463 445.520235 503.903284 445.520235 
z
" clip-path="url(#p8e40743669)" style="fill: #8b5cf6; opacity: 0.85"/>
   </g>
   <g id="text_35">
    <text style="fill: #111827; font: 700 10.5px 'Apple SD Gothic Neo'; text-anchor: start" x="37.18209" y="440.49448" transform="rotate(-0 37.18209 440.49448)">P2 Shadow검증</text>
   </g>
   <g id="text_36">
    <text style="fill: #9ca3af; font: 8.5px 'Apple SD Gothic Neo'; text-anchor: start" x="201.084179" y="440.706355" transform="rotate(-0 201.084179 440.706355)">31 MD</text>
   </g>
   <g id="text_37">
    <text style="fill: #3b82f6; font: 700 9.5px 'Apple SD Gothic Neo'; text-anchor: end" x="182.095522" y="467.749619" transform="rotate(-0 182.095522 467.749619)">BE-1</text>
   </g>
   <g id="patch_22">
    <path d="M 703.783881 475.088235 
L 889.672836 475.088235 
Q 896.668657 475.088235 896.668657 472.044471 
L 896.668657 457.260471 
Q 896.668657 454.216706 889.672836 454.216706 
L 703.783881 454.216706 
Q 696.78806 454.216706 696.78806 457.260471 
L 696.78806 472.044471 
Q 696.78806 475.088235 703.783881 475.088235 
z
" clip-path="url(#p8e40743669)" style="fill: #3b82f6; opacity: 0.85"/>
   </g>
   <g id="patch_23">
    <path d="M 853.694328 504.656235 
L 889.672836 504.656235 
Q 896.668657 504.656235 896.668657 501.612471 
L 896.668657 486.828471 
Q 896.668657 483.784706 889.672836 483.784706 
L 853.694328 483.784706 
Q 846.698507 483.784706 846.698507 486.828471 
L 846.698507 501.612471 
Q 846.698507 504.656235 853.694328 504.656235 
z
" clip-path="url(#p8e40743669)" style="fill: #3b82f6; opacity: 0.85"/>
   </g>
   <g id="text_38">
    <text style="fill: #1d4ed8; font: 700 9.5px 'Apple SD Gothic Neo'; text-anchor: end" x="182.095522" y="526.885619" transform="rotate(-0 182.095522 526.885619)">BE-2</text>
   </g>
   <g id="patch_24">
    <path d="M 703.783881 534.224235 
L 889.672836 534.224235 
Q 896.668657 534.224235 896.668657 531.180471 
L 896.668657 516.396471 
Q 896.668657 513.352706 889.672836 513.352706 
L 703.783881 513.352706 
Q 696.78806 513.352706 696.78806 516.396471 
L 696.78806 531.180471 
Q 696.78806 534.224235 703.783881 534.224235 
z
" clip-path="url(#p8e40743669)" style="fill: #1d4ed8; opacity: 0.85"/>
   </g>
   <g id="patch_25">
    <path d="M 853.694328 563.792235 
L 889.672836 563.792235 
Q 896.668657 563.792235 896.668657 560.748471 
L 896.668657 545.964471 
Q 896.668657 542.920706 889.672836 542.920706 
L 853.694328 542.920706 
Q 846.698507 542.920706 846.698507 545.964471 
L 846.698507 560.748471 
Q 846.698507 563.792235 853.694328 563.792235 
z
" clip-path="url(#p8e40743669)" style="fill: #1d4ed8; opacity: 0.85"/>
   </g>
   <g id="text_39">
    <text style="fill: #f59e0b; font: 700 9.5px 'Apple SD Gothic Neo'; text-anchor: end" x="182.095522" y="586.021619" transform="rotate(-0 182.095522 586.021619)">DBA</text>
   </g>
   <g id="patch_26">
    <path d="M 703.783881 593.360235 
L 889.672836 593.360235 
Q 896.668657 593.360235 896.668657 590.316471 
L 896.668657 575.532471 
Q 896.668657 572.488706 889.672836 572.488706 
L 703.783881 572.488706 
Q 696.78806 572.488706 696.78806 575.532471 
L 696.78806 590.316471 
Q 696.78806 593.360235 703.783881 593.360235 
z
" clip-path="url(#p8e40743669)" style="fill: #f59e0b; opacity: 0.85"/>
   </g>
   <g id="text_40">
    <text style="fill: #10b981; font: 700 9.5px 'Apple SD Gothic Neo'; text-anchor: end" x="182.095522" y="615.589619" transform="rotate(-0 182.095522 615.589619)">SRE</text>
   </g>
   <g id="patch_27">
    <path d="M 703.783881 622.928235 
L 889.672836 622.928235 
Q 896.668657 622.928235 896.668657 619.884471 
L 896.668657 605.100471 
Q 896.668657 602.056706 889.672836 602.056706 
L 703.783881 602.056706 
Q 696.78806 602.056706 696.78806 605.100471 
L 696.78806 619.884471 
Q 696.78806 622.928235 703.783881 622.928235 
z
" clip-path="url(#p8e40743669)" style="fill: #10b981; opacity: 0.85"/>
   </g>
   <g id="text_41">
    <text style="fill: #8b5cf6; font: 700 9.5px 'Apple SD Gothic Neo'; text-anchor: end" x="182.095522" y="645.157619" transform="rotate(-0 182.095522 645.157619)">QA</text>
   </g>
   <g id="patch_28">
    <path d="M 703.783881 652.496235 
L 889.672836 652.496235 
Q 896.668657 652.496235 896.668657 649.452471 
L 896.668657 634.668471 
Q 896.668657 631.624706 889.672836 631.624706 
L 703.783881 631.624706 
Q 696.78806 631.624706 696.78806 634.668471 
L 696.78806 649.452471 
Q 696.78806 652.496235 703.783881 652.496235 
z
" clip-path="url(#p8e40743669)" style="fill: #8b5cf6; opacity: 0.85"/>
   </g>
   <g id="text_42">
    <text style="fill: #111827; font: 700 10.5px 'Apple SD Gothic Neo'; text-anchor: start" x="37.18209" y="647.47048" transform="rotate(-0 37.18209 647.47048)">P3 전환·안정화</text>
   </g>
   <g id="text_43">
    <text style="fill: #9ca3af; font: 8.5px 'Apple SD Gothic Neo'; text-anchor: start" x="183.094925" y="647.682355" transform="rotate(-0 183.094925 647.682355)">20 MD</text>
   </g>
   <g id="text_44">
    <text style="fill: #3b82f6; font: 700 9.5px 'Apple SD Gothic Neo'; text-anchor: end" x="182.095522" y="674.725619" transform="rotate(-0 182.095522 674.725619)">BE-1</text>
   </g>
   <g id="patch_29">
    <path d="M 903.664478 682.064235 
L 989.613134 682.064235 
Q 996.608955 682.064235 996.608955 679.020471 
L 996.608955 664.236471 
Q 996.608955 661.192706 989.613134 661.192706 
L 903.664478 661.192706 
Q 896.668657 661.192706 896.668657 664.236471 
L 896.668657 679.020471 
Q 896.668657 682.064235 903.664478 682.064235 
z
" clip-path="url(#p8e40743669)" style="fill: #3b82f6; opacity: 0.85"/>
   </g>
   <g id="text_45">
    <text style="fill: #1d4ed8; font: 700 9.5px 'Apple SD Gothic Neo'; text-anchor: end" x="182.095522" y="704.293619" transform="rotate(-0 182.095522 704.293619)">BE-2</text>
   </g>
   <g id="patch_30">
    <path d="M 903.664478 711.632235 
L 989.613134 711.632235 
Q 996.608955 711.632235 996.608955 708.588471 
L 996.608955 693.804471 
Q 996.608955 690.760706 989.613134 690.760706 
L 903.664478 690.760706 
Q 896.668657 690.760706 896.668657 693.804471 
L 896.668657 708.588471 
Q 896.668657 711.632235 903.664478 711.632235 
z
" clip-path="url(#p8e40743669)" style="fill: #1d4ed8; opacity: 0.85"/>
   </g>
   <g id="text_46">
    <text style="fill: #f59e0b; font: 700 9.5px 'Apple SD Gothic Neo'; text-anchor: end" x="182.095522" y="733.861619" transform="rotate(-0 182.095522 733.861619)">DBA</text>
   </g>
   <g id="patch_31">
    <path d="M 903.664478 741.200235 
L 959.631045 741.200235 
Q 966.626866 741.200235 966.626866 738.156471 
L 966.626866 723.372471 
Q 966.626866 720.328706 959.631045 720.328706 
L 903.664478 720.328706 
Q 896.668657 720.328706 896.668657 723.372471 
L 896.668657 738.156471 
Q 896.668657 741.200235 903.664478 741.200235 
z
" clip-path="url(#p8e40743669)" style="fill: #f59e0b; opacity: 0.85"/>
   </g>
   <g id="patch_32">
    <path d="M 973.622687 741.200235 
L 1089.553433 741.200235 
Q 1096.549254 741.200235 1096.549254 738.156471 
L 1096.549254 723.372471 
Q 1096.549254 720.328706 1089.553433 720.328706 
L 973.622687 720.328706 
Q 966.626866 720.328706 966.626866 723.372471 
L 966.626866 738.156471 
Q 966.626866 741.200235 973.622687 741.200235 
z
" clip-path="url(#p8e40743669)" style="fill: #f59e0b; opacity: 0.85"/>
   </g>
   <g id="text_47">
    <text style="fill: #10b981; font: 700 9.5px 'Apple SD Gothic Neo'; text-anchor: end" x="182.095522" y="763.429619" transform="rotate(-0 182.095522 763.429619)">SRE</text>
   </g>
   <g id="patch_33">
    <path d="M 903.664478 770.768235 
L 1089.553433 770.768235 
Q 1096.549254 770.768235 1096.549254 767.724471 
L 1096.549254 752.940471 
Q 1096.549254 749.896706 1089.553433 749.896706 
L 903.664478 749.896706 
Q 896.668657 749.896706 896.668657 752.940471 
L 896.668657 767.724471 
Q 896.668657 770.768235 903.664478 770.768235 
z
" clip-path="url(#p8e40743669)" style="fill: #10b981; opacity: 0.85"/>
   </g>
   <g id="text_48">
    <text style="fill: #8b5cf6; font: 700 9.5px 'Apple SD Gothic Neo'; text-anchor: end" x="182.095522" y="792.997619" transform="rotate(-0 182.095522 792.997619)">QA</text>
   </g>
   <g id="patch_34">
    <path d="M 903.664478 800.336235 
L 989.613134 800.336235 
Q 996.608955 800.336235 996.608955 797.292471 
L 996.608955 782.508471 
Q 996.608955 779.464706 989.613134 779.464706 
L 903.664478 779.464706 
Q 896.668657 779.464706 896.668657 782.508471 
L 896.668657 797.292471 
Q 896.668657 800.336235 903.664478 800.336235 
z
" clip-path="url(#p8e40743669)" style="fill: #8b5cf6; opacity: 0.85"/>
   </g>
   <g id="text_49">
    <text style="fill: #111827; font: 700 10.5px 'Apple SD Gothic Neo'; text-anchor: start" x="37.18209" y="795.31048" transform="rotate(-0 37.18209 795.31048)">후속</text>
   </g>
   <g id="text_50">
    <text style="fill: #f59e0b; font: 700 9.5px 'Apple SD Gothic Neo'; text-anchor: end" x="182.095522" y="822.565619" transform="rotate(-0 182.095522 822.565619)">DBA</text>
   </g>
   <g id="patch_35">
    <path d="M 1103.545075 829.904235 
L 1189.493731 829.904235 
Q 1196.489552 829.904235 1196.489552 826.860471 
L 1196.489552 812.076471 
Q 1196.489552 809.032706 1189.493731 809.032706 
L 1103.545075 809.032706 
Q 1096.549254 809.032706 1096.549254 812.076471 
L 1096.549254 826.860471 
Q 1096.549254 829.904235 1103.545075 829.904235 
z
" clip-path="url(#p8e40743669)" style="fill: #f59e0b; opacity: 0.85"/>
   </g>
   <g id="patch_36">
    <path d="M 41.179701 892.953647 
L 61.167761 892.953647 
Q 65.165373 892.953647 65.165373 891.214353 
L 65.165373 887.735765 
Q 65.165373 885.996471 61.167761 885.996471 
L 41.179701 885.996471 
Q 37.18209 885.996471 37.18209 887.735765 
L 37.18209 891.214353 
Q 37.18209 892.953647 41.179701 892.953647 
z
" clip-path="url(#p8e40743669)" style="fill: #3b82f6; opacity: 0.85"/>
   </g>
   <g id="text_51">
    <text style="fill: #111827; font: 9px 'Apple SD Gothic Neo'; text-anchor: start" x="73.160597" y="892.409199" transform="rotate(-0 73.160597 892.409199)">BE-1</text>
   </g>
   <g id="patch_37">
    <path d="M 191.090149 892.953647 
L 211.078209 892.953647 
Q 215.075821 892.953647 215.075821 891.214353 
L 215.075821 887.735765 
Q 215.075821 885.996471 211.078209 885.996471 
L 191.090149 885.996471 
Q 187.092537 885.996471 187.092537 887.735765 
L 187.092537 891.214353 
Q 187.092537 892.953647 191.090149 892.953647 
z
" clip-path="url(#p8e40743669)" style="fill: #1d4ed8; opacity: 0.85"/>
   </g>
   <g id="text_52">
    <text style="fill: #111827; font: 9px 'Apple SD Gothic Neo'; text-anchor: start" x="223.071045" y="892.409199" transform="rotate(-0 223.071045 892.409199)">BE-2</text>
   </g>
   <g id="patch_38">
    <path d="M 341.000597 892.953647 
L 360.988657 892.953647 
Q 364.986269 892.953647 364.986269 891.214353 
L 364.986269 887.735765 
Q 364.986269 885.996471 360.988657 885.996471 
L 341.000597 885.996471 
Q 337.002985 885.996471 337.002985 887.735765 
L 337.002985 891.214353 
Q 337.002985 892.953647 341.000597 892.953647 
z
" clip-path="url(#p8e40743669)" style="fill: #f59e0b; opacity: 0.85"/>
   </g>
   <g id="text_53">
    <text style="fill: #111827; font: 9px 'Apple SD Gothic Neo'; text-anchor: start" x="372.981493" y="892.409199" transform="rotate(-0 372.981493 892.409199)">DBA</text>
   </g>
   <g id="patch_39">
    <path d="M 490.911045 892.953647 
L 510.899104 892.953647 
Q 514.896716 892.953647 514.896716 891.214353 
L 514.896716 887.735765 
Q 514.896716 885.996471 510.899104 885.996471 
L 490.911045 885.996471 
Q 486.913433 885.996471 486.913433 887.735765 
L 486.913433 891.214353 
Q 486.913433 892.953647 490.911045 892.953647 
z
" clip-path="url(#p8e40743669)" style="fill: #10b981; opacity: 0.85"/>
   </g>
   <g id="text_54">
    <text style="fill: #111827; font: 9px 'Apple SD Gothic Neo'; text-anchor: start" x="522.89194" y="892.409199" transform="rotate(-0 522.89194 892.409199)">SRE</text>
   </g>
   <g id="patch_40">
    <path d="M 640.821493 892.953647 
L 660.809552 892.953647 
Q 664.807164 892.953647 664.807164 891.214353 
L 664.807164 887.735765 
Q 664.807164 885.996471 660.809552 885.996471 
L 640.821493 885.996471 
Q 636.823881 885.996471 636.823881 887.735765 
L 636.823881 891.214353 
Q 636.823881 892.953647 640.821493 892.953647 
z
" clip-path="url(#p8e40743669)" style="fill: #8b5cf6; opacity: 0.85"/>
   </g>
   <g id="text_55">
    <text style="fill: #111827; font: 9px 'Apple SD Gothic Neo'; text-anchor: start" x="672.802388" y="892.409199" transform="rotate(-0 672.802388 892.409199)">QA</text>
   </g>
   <g id="text_56">
    <text style="fill: #ef4444; font: 6px 'Apple SD Gothic Neo'; text-anchor: start" x="816.716418" y="891.431153" transform="rotate(-0 816.716418 891.431153)">●</text>
   </g>
   <g id="text_57">
    <text style="fill: #111827; font: 9px 'Apple SD Gothic Neo'; text-anchor: start" x="830.70806" y="892.409199" transform="rotate(-0 830.70806 892.409199)">Critical Path</text>
   </g>
   <g id="text_58">
    <text style="fill: #111827; font: 9px 'Apple SD Gothic Neo'; text-anchor: start" x="998.607761" y="892.409199" transform="rotate(-0 998.607761 892.409199)">Milestone</text>
   </g>
   <g id="text_59">
    <text style="fill: #111827; font: 9px 'Apple SD Gothic Neo'; text-anchor: start" x="1138.524179" y="892.409199" transform="rotate(-0 1138.524179 892.409199)">GATE</text>
   </g>
   <g id="text_60">
    <text style="fill: #ef4444; font: 5px 'Apple SD Gothic Neo'; text-anchor: start" x="255.05194" y="111.466549" transform="rotate(-0 255.05194 111.466549)">●</text>
   </g>
   <g id="text_61">
    <text style="fill: #111827; font: 8px 'Apple SD Gothic Neo'; text-anchor: start" x="265.04597" y="112.485221" transform="rotate(-0 265.04597 112.485221)">벤치마크 (1)</text>
   </g>
   <g id="text_62">
    <text style="fill: #111827; font: 8px 'Apple SD Gothic Neo'; text-anchor: start" x="305.02209" y="112.488971" transform="rotate(-0 305.02209 112.488971)">Lua설계리뷰 (1)</text>
   </g>
   <g id="text_63">
    <text style="fill: #111827; font: 8px 'Apple SD Gothic Neo'; text-anchor: start" x="255.05194" y="142.056971" transform="rotate(-0 255.05194 142.056971)">Lua설계리뷰 (1)</text>
   </g>
   <g id="text_64">
    <text style="fill: #111827; font: 8px 'Apple SD Gothic Neo'; text-anchor: start" x="305.02209" y="142.192596" transform="rotate(-0 305.02209 142.192596)">Key구조확정 (1)</text>
   </g>
   <g id="text_65">
    <text style="fill: #111827; font: 8px 'Apple SD Gothic Neo'; text-anchor: start" x="275.04" y="171.621221" transform="rotate(-0 275.04 171.621221)">벤치마크지원 (2)</text>
   </g>
   <g id="text_66">
    <text style="fill: #111827; font: 8px 'Apple SD Gothic Neo'; text-anchor: start" x="305.02209" y="171.621221" transform="rotate(-0 305.02209 171.621221)">idx분석 (1)</text>
   </g>
   <g id="text_67">
    <text style="fill: #111827; font: 8px 'Apple SD Gothic Neo'; text-anchor: start" x="235.063881" y="201.328596" transform="rotate(-0 235.063881 201.328596)">Key정책확정 (1)</text>
   </g>
   <g id="text_68">
    <text style="fill: #111827; font: 8px 'Apple SD Gothic Neo'; text-anchor: start" x="305.02209" y="201.189221" transform="rotate(-0 305.02209 201.189221)">대시보드설계 (3)</text>
   </g>
   <g id="text_69">
    <text style="fill: #111827; font: 8px 'Apple SD Gothic Neo'; text-anchor: start" x="255.05194" y="230.780971" transform="rotate(-0 255.05194 230.780971)">테스트계획 (1)</text>
   </g>
   <g id="text_70">
    <text style="fill: #ef4444; font: 5px 'Apple SD Gothic Neo'; text-anchor: middle" x="310.918567" y="259.306549" transform="rotate(-0 310.918567 259.306549)">●</text>
   </g>
   <g id="text_71">
    <text style="fill: #ffffff; font: 500 8.5px 'Apple SD Gothic Neo'; text-anchor: middle" x="396.967164" y="260.507369" transform="rotate(-0 396.967164 260.507369)">gate_keeper Lua (5)</text>
   </g>
   <g id="text_72">
    <text style="fill: #ef4444; font: 5px 'Apple SD Gothic Neo'; text-anchor: start" x="574.860896" y="259.306549" transform="rotate(-0 574.860896 259.306549)">●</text>
   </g>
   <g id="text_73">
    <text style="fill: #111827; font: 8px 'Apple SD Gothic Neo'; text-anchor: start" x="584.854925" y="260.340846" transform="rotate(-0 584.854925 260.340846)">compensate Lua (3)</text>
   </g>
   <g id="text_74">
    <text style="fill: #111827; font: 8px 'Apple SD Gothic Neo'; text-anchor: start" x="634.825075" y="260.325221" transform="rotate(-0 634.825075 260.325221)">FF설정 (2)</text>
   </g>
   <g id="text_75">
    <text style="fill: #111827; font: 8px 'Apple SD Gothic Neo'; text-anchor: start" x="704.783284" y="260.325221" transform="rotate(-0 704.783284 260.325221)">Shadow준비 (4.5)</text>
   </g>
   <g id="text_76">
    <text style="fill: #ef4444; font: 5px 'Apple SD Gothic Neo'; text-anchor: middle" x="453.733254" y="288.874549" transform="rotate(-0 453.733254 288.874549)">●</text>
   </g>
   <g id="text_77">
    <text style="fill: #ffffff; font: 500 8.5px 'Apple SD Gothic Neo'; text-anchor: middle" x="496.907463" y="290.0674" transform="rotate(-0 496.907463 290.0674)">MC통합 (8)</text>
   </g>
   <g id="text_78">
    <text style="fill: #ffffff; font: 500 8.5px 'Apple SD Gothic Neo'; text-anchor: middle" x="446.937313" y="319.626767" transform="rotate(-0 446.937313 319.626767)">보상워커 (7)</text>
   </g>
   <g id="text_79">
    <text style="fill: #111827; font: 8px 'Apple SD Gothic Neo'; text-anchor: start" x="704.783284" y="319.420596" transform="rotate(-0 704.783284 319.420596)">Reconciliation (6)</text>
   </g>
   <g id="text_80">
    <text style="fill: #111827; font: 8px 'Apple SD Gothic Neo'; text-anchor: start" x="704.783284" y="349.029221" transform="rotate(-0 704.783284 349.029221)">Shadow준비 (4.5)</text>
   </g>
   <g id="text_81">
    <text style="fill: #ffffff; font: 500 8.5px 'Apple SD Gothic Neo'; text-anchor: middle" x="446.937313" y="378.788002" transform="rotate(-0 446.937313 378.788002)">인덱스사용처확인 (5)</text>
   </g>
   <g id="text_82">
    <text style="fill: #ffffff; font: 500 8.5px 'Apple SD Gothic Neo'; text-anchor: middle" x="446.937313" y="408.356002" transform="rotate(-0 446.937313 408.356002)">대시보드구축 (6)</text>
   </g>
   <g id="text_83">
    <text style="fill: #ffffff; font: 500 8.5px 'Apple SD Gothic Neo'; text-anchor: middle" x="596.847761" y="437.902752" transform="rotate(-0 596.847761 437.902752)">케이스작성 (4)</text>
   </g>
   <g id="text_84">
    <text style="fill: #ef4444; font: 5px 'Apple SD Gothic Neo'; text-anchor: middle" x="737.963463" y="466.282549" transform="rotate(-0 737.963463 466.282549)">●</text>
   </g>
   <g id="text_85">
    <text style="fill: #ffffff; font: 500 8.5px 'Apple SD Gothic Neo'; text-anchor: middle" x="796.728358" y="467.4754" transform="rotate(-0 796.728358 467.4754)">Shadow운영 (4)</text>
   </g>
   <g id="text_86">
    <text style="fill: #111827; font: 8px 'Apple SD Gothic Neo'; text-anchor: start" x="904.663881" y="496.872971" transform="rotate(-0 904.663881 496.872971)">부하테스트 (2)</text>
   </g>
   <g id="text_87">
    <text style="fill: #ffffff; font: 500 8.5px 'Apple SD Gothic Neo'; text-anchor: middle" x="796.728358" y="526.564252" transform="rotate(-0 796.728358 526.564252)">Recon diff검증 (4)</text>
   </g>
   <g id="text_88">
    <text style="fill: #111827; font: 8px 'Apple SD Gothic Neo'; text-anchor: start" x="904.663881" y="556.008971" transform="rotate(-0 904.663881 556.008971)">부하테스트 (2)</text>
   </g>
   <g id="text_89">
    <text style="fill: #ffffff; font: 500 8.5px 'Apple SD Gothic Neo'; text-anchor: middle" x="796.728358" y="585.764002" transform="rotate(-0 796.728358 585.764002)">삭제/복구리허설 (4)</text>
   </g>
   <g id="text_90">
    <text style="fill: #ffffff; font: 500 8.5px 'Apple SD Gothic Neo'; text-anchor: middle" x="796.728358" y="615.306767" transform="rotate(-0 796.728358 615.306767)">모니터링강화 (5)</text>
   </g>
   <g id="text_91">
    <text style="fill: #ffffff; font: 500 8.5px 'Apple SD Gothic Neo'; text-anchor: middle" x="796.728358" y="644.8834" transform="rotate(-0 796.728358 644.8834)">전수QA (10)</text>
   </g>
   <g id="text_92">
    <text style="fill: #ef4444; font: 5px 'Apple SD Gothic Neo'; text-anchor: start" x="1004.604179" y="673.258549" transform="rotate(-0 1004.604179 673.258549)">●</text>
   </g>
   <g id="text_93">
    <text style="fill: #111827; font: 8px 'Apple SD Gothic Neo'; text-anchor: start" x="1014.598209" y="674.244721" transform="rotate(-0 1014.598209 674.244721)">MC 100%전환 (3)</text>
   </g>
   <g id="text_94">
    <text style="fill: #111827; font: 8px 'Apple SD Gothic Neo'; text-anchor: start" x="1004.604179" y="703.845221" transform="rotate(-0 1004.604179 703.845221)">인덱스삭제지원 (3)</text>
   </g>
   <g id="text_95">
    <text style="fill: #111827; font: 8px 'Apple SD Gothic Neo'; text-anchor: start" x="974.62209" y="733.416971" transform="rotate(-0 974.62209 733.416971)">무중단삭제 (3)</text>
   </g>
   <g id="text_96">
    <text style="fill: #ffffff; font: 500 8.5px 'Apple SD Gothic Neo'; text-anchor: middle" x="1031.58806" y="733.578767" transform="rotate(-0 1031.58806 733.578767)">24h모니터링 (2)</text>
   </g>
   <g id="text_97">
    <text style="fill: #ffffff; font: 500 8.5px 'Apple SD Gothic Neo'; text-anchor: middle" x="996.608955" y="763.146767" transform="rotate(-0 996.608955 763.146767)">7일안정화 (5)</text>
   </g>
   <g id="text_98">
    <text style="fill: #ffffff; font: 500 8.5px 'Apple SD Gothic Neo'; text-anchor: middle" x="946.638806" y="792.714767" transform="rotate(-0 946.638806 792.714767)">회귀테스트 (4)</text>
   </g>
   <g id="text_99">
    <text style="fill: #ef4444; font: 5px 'Apple SD Gothic Neo'; text-anchor: middle" x="1107.242866" y="821.098549" transform="rotate(-0 1107.242866 821.098549)">●</text>
   </g>
   <g id="text_100">
    <text style="fill: #ffffff; font: 500 8.5px 'Apple SD Gothic Neo'; text-anchor: middle" x="1146.519403" y="822.282767" transform="rotate(-0 1146.519403 822.282767)">인덱스6개삭제</text>
   </g>
   <g id="line2d_16">
    <path d="M 247.056716 57.657647 
" clip-path="url(#p8e40743669)" style="fill: none; stroke: #ef4444; stroke-width: 1.5; stroke-linecap: square"/>
    <defs>
     <path id="m9cad82115a" d="M -0 4.949747 
L 4.949747 0 
L 0 -4.949747 
L -4.949747 -0 
z
" style="stroke: #ffffff; stroke-width: 1.5; stroke-linejoin: miter"/>
    </defs>
    <g clip-path="url(#p8e40743669)">
     <use xlink:href="#m9cad82115a" x="247.056716" y="57.657647" style="fill: #ef4444; stroke: #ffffff; stroke-width: 1.5; stroke-linejoin: miter"/>
    </g>
   </g>
   <g id="line2d_17">
    <path d="M 646.81791 57.657647 
" clip-path="url(#p8e40743669)" style="fill: none; stroke: #3b82f6; stroke-width: 1.5; stroke-linecap: square"/>
    <defs>
     <path id="md28bf02c13" d="M -0 4.949747 
L 4.949747 0 
L 0 -4.949747 
L -4.949747 -0 
z
" style="stroke: #ffffff; stroke-width: 1.5; stroke-linejoin: miter"/>
    </defs>
    <g clip-path="url(#p8e40743669)">
     <use xlink:href="#md28bf02c13" x="646.81791" y="57.657647" style="fill: #3b82f6; stroke: #ffffff; stroke-width: 1.5; stroke-linejoin: miter"/>
    </g>
   </g>
   <g id="line2d_18">
    <path d="M 846.698507 57.657647 
" clip-path="url(#p8e40743669)" style="fill: none; stroke: #3b82f6; stroke-width: 1.5; stroke-linecap: square"/>
    <g clip-path="url(#p8e40743669)">
     <use xlink:href="#md28bf02c13" x="846.698507" y="57.657647" style="fill: #3b82f6; stroke: #ffffff; stroke-width: 1.5; stroke-linejoin: miter"/>
    </g>
   </g>
   <g id="line2d_19">
    <path d="M 946.638806 57.657647 
" clip-path="url(#p8e40743669)" style="fill: none; stroke: #3b82f6; stroke-width: 1.5; stroke-linecap: square"/>
    <g clip-path="url(#p8e40743669)">
     <use xlink:href="#md28bf02c13" x="946.638806" y="57.657647" style="fill: #3b82f6; stroke: #ffffff; stroke-width: 1.5; stroke-linejoin: miter"/>
    </g>
   </g>
   <g id="line2d_20">
    <path d="M 1046.579104 57.657647 
" clip-path="url(#p8e40743669)" style="fill: none; stroke: #3b82f6; stroke-width: 1.5; stroke-linecap: square"/>
    <g clip-path="url(#p8e40743669)">
     <use xlink:href="#md28bf02c13" x="1046.579104" y="57.657647" style="fill: #3b82f6; stroke: #ffffff; stroke-width: 1.5; stroke-linejoin: miter"/>
    </g>
   </g>
   <g id="line2d_21">
    <path d="M 1146.519403 57.657647 
" clip-path="url(#p8e40743669)" style="fill: none; stroke: #3b82f6; stroke-width: 1.5; stroke-linecap: square"/>
    <g clip-path="url(#p8e40743669)">
     <use xlink:href="#md28bf02c13" x="1146.519403" y="57.657647" style="fill: #3b82f6; stroke: #ffffff; stroke-width: 1.5; stroke-linejoin: miter"/>
    </g>
   </g>
  </g>
 </g>
 <defs>
  <clipPath id="p8e40743669">
   <rect x="7.2" y="9.827059" width="1339.2" height="887.04"/>
  </clipPath>
 </defs>
</svg>
