<?xml version="1.0" encoding="utf-8" standalone="no"?>
<!DOCTYPE svg PUBLIC "-//W3C//DTD SVG 1.1//EN"
  "http://www.w3.org/Graphics/SVG/1.1/DTD/svg11.dtd">
<svg xmlns:xlink="http://www.w3.org/1999/xlink" width="800px" height="534px" viewBox="0 0 1353.6 904.067059" xmlns="http://www.w3.org/2000/svg" version="1.1">
 <metadata>
  <rdf:RDF xmlns:dc="http://purl.org/dc/elements/1.1/" xmlns:cc="http://creativecommons.org/ns#" xmlns:rdf="http://www.w3.org/1999/02/22-rdf-syntax-ns#">
   <cc:Work>
    <dc:type rdf:resource="http://purl.org/dc/dcmitype/StillImage"/>
    <dc:date>2026-02-20T20:46:27.408442</dc:date>
    <dc:format>image/svg+xml</dc:format>
    <dc:creator>
     <cc:Agent>
      <dc:title>Matplotlib v3.9.4, https://matplotlib.org/</dc:title>
     </cc:Agent>
    </dc:creator>
   </cc:Work>
  </rdf:RDF>
 </metadata>
 <defs>
  <style type="text/css">*{stroke-linejoin: round; stroke-linecap: butt}</style>
 </defs>
 <g id="figure_1">
  <g id="patch_1">
   <path d="M 0 904.067059 
L 1353.6 904.067059 
L 1353.6 0 
L 0 0 
z
" style="fill: #ffffff"/>
  </g>
  <g id="axes_1">
   <g id="PolyCollection_1">
    <defs>
     <path id="m04156fb6b5" d="M 206.655319 -28.941176 
L 206.655319 -842.061176 
L 301.634043 -842.061176 
L 301.634043 -28.941176 
L 301.634043 -28.941176 
L 206.655319 -28.941176 
z
" style="stroke: #f3f4f6; stroke-opacity: 0.5"/>
    </defs>
    <g clip-path="url(#p8504d407b7)">
     <use xlink:href="#m04156fb6b5" x="0" y="904.067059" style="fill: #f3f4f6; fill-opacity: 0.5; stroke: #f3f4f6; stroke-opacity: 0.5"/>
    </g>
   </g>
   <g id="PolyCollection_2">
    <defs>
     <path id="mc953ab86ab" d="M 396.612766 -28.941176 
L 396.612766 -842.061176 
L 491.591489 -842.061176 
L 491.591489 -28.941176 
L 491.591489 -28.941176 
L 396.612766 -28.941176 
z
" style="stroke: #f3f4f6; stroke-opacity: 0.5"/>
    </defs>
    <g clip-path="url(#p8504d407b7)">
     <use xlink:href="#mc953ab86ab" x="0" y="904.067059" style="fill: #f3f4f6; fill-opacity: 0.5; stroke: #f3f4f6; stroke-opacity: 0.5"/>
    </g>
   </g>
   <g id="PolyCollection_3">
    <defs>
     <path id="md54176dc79" d="M 586.570213 -28.941176 
L 586.570213 -842.061176 
L 681.548936 -842.061176 
L 681.548936 -28.941176 
L 681.548936 -28.941176 
L 586.570213 -28.941176 
z
" style="stroke: #f3f4f6; stroke-opacity: 0.5"/>
    </defs>
    <g clip-path="url(#p8504d407b7)">
     <use xlink:href="#md54176dc79" x="0" y="904.067059" style="fill: #f3f4f6; fill-opacity: 0.5; stroke: #f3f4f6; stroke-opacity: 0.5"/>
    </g>
   </g>
   <g id="PolyCollection_4">
    <defs>
     <path id="m50a713a28c" d="M 776.52766 -28.941176 
L 776.52766 -842.061176 
L 871.506383 -842.061176 
L 871.506383 -28.941176 
L 871.506383 -28.941176 
L 776.52766 -28.941176 
z
" style="stroke: #f3f4f6; stroke-opacity: 0.5"/>
    </defs>
    <g clip-path="url(#p8504d407b7)">
     <use xlink:href="#m50a713a28c" x="0" y="904.067059" style="fill: #f3f4f6; fill-opacity: 0.5; stroke: #f3f4f6; stroke-opacity: 0.5"/>
    </g>
   </g>
   <g id="PolyCollection_5">
    <defs>
     <path id="meb8e2c2f01" d="M 966.485106 -28.941176 
L 966.485106 -842.061176 
L 1061.46383 -842.061176 
L 1061.46383 -28.941176 
L 1061.46383 -28.941176 
L 966.485106 -28.941176 
z
" style="stroke: #f3f4f6; stroke-opacity: 0.5"/>
    </defs>
    <g clip-path="url(#p8504d407b7)">
     <use xlink:href="#meb8e2c2f01" x="0" y="904.067059" style="fill: #f3f4f6; fill-opacity: 0.5; stroke: #f3f4f6; stroke-opacity: 0.5"/>
    </g>
   </g>
   <g id="line2d_1">
    <path d="M 254.144681 90.269412 
L 254.144681 875.125882 
" clip-path="url(#p8504d407b7)" style="fill: none; stroke-dasharray: 2.96,1.28; stroke-dashoffset: 0; stroke: #ef4444; stroke-opacity: 0.1; stroke-width: 0.8"/>
   </g>
   <g id="line2d_2">
    <path d="M 634.059574 90.269412 
L 634.059574 875.125882 
" clip-path="url(#p8504d407b7)" style="fill: none; stroke-dasharray: 2.96,1.28; stroke-dashoffset: 0; stroke: #3b82f6; stroke-opacity: 0.1; stroke-width: 0.8"/>
   </g>
   <g id="line2d_3">
    <path d="M 824.017021 90.269412 
L 824.017021 875.125882 
" clip-path="url(#p8504d407b7)" style="fill: none; stroke-dasharray: 2.96,1.28; stroke-dashoffset: 0; stroke: #3b82f6; stroke-opacity: 0.1; stroke-width: 0.8"/>
   </g>
   <g id="line2d_4">
    <path d="M 918.995745 90.269412 
L 918.995745 875.125882 
" clip-path="url(#p8504d407b7)" style="fill: none; stroke-dasharray: 2.96,1.28; stroke-dashoffset: 0; stroke: #3b82f6; stroke-opacity: 0.1; stroke-width: 0.8"/>
   </g>
   <g id="line2d_5">
    <path d="M 1013.974468 90.269412 
L 1013.974468 875.125882 
" clip-path="url(#p8504d407b7)" style="fill: none; stroke-dasharray: 2.96,1.28; stroke-dashoffset: 0; stroke: #3b82f6; stroke-opacity: 0.1; stroke-width: 0.8"/>
   </g>
   <g id="line2d_6">
    <path d="M 1108.953191 90.269412 
L 1108.953191 875.125882 
" clip-path="url(#p8504d407b7)" style="fill: none; stroke-dasharray: 2.96,1.28; stroke-dashoffset: 0; stroke: #3b82f6; stroke-opacity: 0.1; stroke-width: 0.8"/>
   </g>
   <g id="PolyCollection_6">
    <defs>
     <path id="mdbec4e7370" d="M 201.906383 -750.748235 
L 201.906383 -778.576941 
L 1161.191489 -778.576941 
L 1161.191489 -750.748235 
L 1161.191489 -750.748235 
L 201.906383 -750.748235 
z
" style="stroke: #f9fafb; stroke-opacity: 0.4"/>
    </defs>
    <g clip-path="url(#p8504d407b7)">
     <use xlink:href="#mdbec4e7370" x="0" y="904.067059" style="fill: #f9fafb; fill-opacity: 0.4; stroke: #f9fafb; stroke-opacity: 0.4"/>
    </g>
   </g>
   <g id="PolyCollection_7">
    <defs>
     <path id="meb6e5c5acf" d="M 201.906383 -691.612235 
L 201.906383 -719.440941 
L 1161.191489 -719.440941 
L 1161.191489 -691.612235 
L 1161.191489 -691.612235 
L 201.906383 -691.612235 
z
" style="stroke: #f9fafb; stroke-opacity: 0.4"/>
    </defs>
    <g clip-path="url(#p8504d407b7)">
     <use xlink:href="#meb6e5c5acf" x="0" y="904.067059" style="fill: #f9fafb; fill-opacity: 0.4; stroke: #f9fafb; stroke-opacity: 0.4"/>
    </g>
   </g>
   <g id="PolyCollection_8">
    <defs>
     <path id="m6d6c42e1d6" d="M 201.906383 -632.476235 
L 201.906383 -660.304941 
L 1161.191489 -660.304941 
L 1161.191489 -632.476235 
L 1161.191489 -632.476235 
L 201.906383 -632.476235 
z
" style="stroke: #f9fafb; stroke-opacity: 0.4"/>
    </defs>
    <g clip-path="url(#p8504d407b7)">
     <use xlink:href="#m6d6c42e1d6" x="0" y="904.067059" style="fill: #f9fafb; fill-opacity: 0.4; stroke: #f9fafb; stroke-opacity: 0.4"/>
    </g>
   </g>
   <g id="PolyCollection_9">
    <defs>
     <path id="m2962818f2d" d="M 201.906383 -573.340235 
L 201.906383 -601.168941 
L 1161.191489 -601.168941 
L 1161.191489 -573.340235 
L 1161.191489 -573.340235 
L 201.906383 -573.340235 
z
" style="stroke: #f9fafb; stroke-opacity: 0.4"/>
    </defs>
    <g clip-path="url(#p8504d407b7)">
     <use xlink:href="#m2962818f2d" x="0" y="904.067059" style="fill: #f9fafb; fill-opacity: 0.4; stroke: #f9fafb; stroke-opacity: 0.4"/>
    </g>
   </g>
   <g id="PolyCollection_10">
    <defs>
     <path id="mf759bc70bc" d="M 201.906383 -514.204235 
L 201.906383 -542.032941 
L 1161.191489 -542.032941 
L 1161.191489 -514.204235 
L 1161.191489 -514.204235 
L 201.906383 -514.204235 
z
" style="stroke: #f9fafb; stroke-opacity: 0.4"/>
    </defs>
    <g clip-path="url(#p8504d407b7)">
     <use xlink:href="#mf759bc70bc" x="0" y="904.067059" style="fill: #f9fafb; fill-opacity: 0.4; stroke: #f9fafb; stroke-opacity: 0.4"/>
    </g>
   </g>
   <g id="PolyCollection_11">
    <defs>
     <path id="mfe6ff0ea76" d="M 201.906383 -455.068235 
L 201.906383 -482.896941 
L 1161.191489 -482.896941 
L 1161.191489 -455.068235 
L 1161.191489 -455.068235 
L 201.906383 -455.068235 
z
" style="stroke: #f9fafb; stroke-opacity: 0.4"/>
    </defs>
    <g clip-path="url(#p8504d407b7)">
     <use xlink:href="#mfe6ff0ea76" x="0" y="904.067059" style="fill: #f9fafb; fill-opacity: 0.4; stroke: #f9fafb; stroke-opacity: 0.4"/>
    </g>
   </g>
   <g id="PolyCollection_12">
    <defs>
     <path id="meb4563884b" d="M 201.906383 -395.932235 
L 201.906383 -423.760941 
L 1161.191489 -423.760941 
L 1161.191489 -395.932235 
L 1161.191489 -395.932235 
L 201.906383 -395.932235 
z
" style="stroke: #f9fafb; stroke-opacity: 0.4"/>
    </defs>
    <g clip-path="url(#p8504d407b7)">
     <use xlink:href="#meb4563884b" x="0" y="904.067059" style="fill: #f9fafb; fill-opacity: 0.4; stroke: #f9fafb; stroke-opacity: 0.4"/>
    </g>
   </g>
   <g id="PolyCollection_13">
    <defs>
     <path id="mf88a43bf15" d="M 201.906383 -336.796235 
L 201.906383 -364.624941 
L 1161.191489 -364.624941 
L 1161.191489 -336.796235 
L 1161.191489 -336.796235 
L 201.906383 -336.796235 
z
" style="stroke: #f9fafb; stroke-opacity: 0.4"/>
    </defs>
    <g clip-path="url(#p8504d407b7)">
     <use xlink:href="#mf88a43bf15" x="0" y="904.067059" style="fill: #f9fafb; fill-opacity: 0.4; stroke: #f9fafb; stroke-opacity: 0.4"/>
    </g>
   </g>
   <g id="PolyCollection_14">
    <defs>
     <path id="maadd4d950f" d="M 201.906383 -277.660235 
L 201.906383 -305.488941 
L 1161.191489 -305.488941 
L 1161.191489 -277.660235 
L 1161.191489 -277.660235 
L 201.906383 -277.660235 
z
" style="stroke: #f9fafb; stroke-opacity: 0.4"/>
    </defs>
    <g clip-path="url(#p8504d407b7)">
     <use xlink:href="#maadd4d950f" x="0" y="904.067059" style="fill: #f9fafb; fill-opacity: 0.4; stroke: #f9fafb; stroke-opacity: 0.4"/>
    </g>
   </g>
   <g id="PolyCollection_15">
    <defs>
     <path id="mf7c5f0e3a8" d="M 201.906383 -218.524235 
L 201.906383 -246.352941 
L 1161.191489 -246.352941 
L 1161.191489 -218.524235 
L 1161.191489 -218.524235 
L 201.906383 -218.524235 
z
" style="stroke: #f9fafb; stroke-opacity: 0.4"/>
    </defs>
    <g clip-path="url(#p8504d407b7)">
     <use xlink:href="#mf7c5f0e3a8" x="0" y="904.067059" style="fill: #f9fafb; fill-opacity: 0.4; stroke: #f9fafb; stroke-opacity: 0.4"/>
    </g>
   </g>
   <g id="PolyCollection_16">
    <defs>
     <path id="m865d6cae2d" d="M 201.906383 -159.388235 
L 201.906383 -187.216941 
L 1161.191489 -187.216941 
L 1161.191489 -159.388235 
L 1161.191489 -159.388235 
L 201.906383 -159.388235 
z
" style="stroke: #f9fafb; stroke-opacity: 0.4"/>
    </defs>
    <g clip-path="url(#p8504d407b7)">
     <use xlink:href="#m865d6cae2d" x="0" y="904.067059" style="fill: #f9fafb; fill-opacity: 0.4; stroke: #f9fafb; stroke-opacity: 0.4"/>
    </g>
   </g>
   <g id="PolyCollection_17">
    <defs>
     <path id="m7880fc7c5e" d="M 201.906383 -100.252235 
L 201.906383 -128.080941 
L 1161.191489 -128.080941 
L 1161.191489 -100.252235 
L 1161.191489 -100.252235 
L 201.906383 -100.252235 
z
" style="stroke: #f9fafb; stroke-opacity: 0.4"/>
    </defs>
    <g clip-path="url(#p8504d407b7)">
     <use xlink:href="#m7880fc7c5e" x="0" y="904.067059" style="fill: #f9fafb; fill-opacity: 0.4; stroke: #f9fafb; stroke-opacity: 0.4"/>
    </g>
   </g>
   <g id="line2d_7">
    <path d="M 45.191489 88.530118 
L 1279.914894 88.530118 
" clip-path="url(#p8504d407b7)" style="fill: none; stroke: #e5e7eb; stroke-width: 0.7; stroke-linecap: square"/>
   </g>
   <g id="line2d_8">
    <path d="M 45.191489 236.370118 
L 1279.914894 236.370118 
" clip-path="url(#p8504d407b7)" style="fill: none; stroke: #e5e7eb; stroke-width: 0.7; stroke-linecap: square"/>
   </g>
   <g id="line2d_9">
    <path d="M 45.191489 443.346118 
L 1279.914894 443.346118 
" clip-path="url(#p8504d407b7)" style="fill: none; stroke: #e5e7eb; stroke-width: 0.7; stroke-linecap: square"/>
   </g>
   <g id="line2d_10">
    <path d="M 45.191489 650.322118 
L 1279.914894 650.322118 
" clip-path="url(#p8504d407b7)" style="fill: none; stroke: #e5e7eb; stroke-width: 0.7; stroke-linecap: square"/>
   </g>
   <g id="line2d_11">
    <path d="M 45.191489 798.162118 
L 1279.914894 798.162118 
" clip-path="url(#p8504d407b7)" style="fill: none; stroke: #e5e7eb; stroke-width: 0.7; stroke-linecap: square"/>
   </g>
   <g id="line2d_12">
    <path d="M 45.191489 875.125882 
L 1279.914894 875.125882 
" clip-path="url(#p8504d407b7)" style="fill: none; stroke: #e5e7eb; stroke-width: 0.7; stroke-linecap: square"/>
   </g>
   <g id="line2d_13">
    <path d="M 201.906383 90.269412 
L 1161.191489 90.269412 
" clip-path="url(#p8504d407b7)" style="fill: none; stroke: #e5e7eb; stroke-width: 1.2; stroke-linecap: square"/>
   </g>
   <g id="line2d_14">
    <defs>
     <path id="m651da79ac2" d="M -0 4.242641 
L 4.242641 0 
L 0 -4.242641 
L -4.242641 -0 
z
" style="stroke: #ffffff; stroke-linejoin: miter"/>
    </defs>
    <g clip-path="url(#p8504d407b7)">
     <use xlink:href="#m651da79ac2" x="953.188085" y="889.475059" style="fill: #3b82f6; stroke: #ffffff; stroke-linejoin: miter"/>
    </g>
   </g>
   <g id="line2d_15">
    <defs>
     <path id="mef0db196b3" d="M -0 4.242641 
L 4.242641 0 
L 0 -4.242641 
L -4.242641 -0 
z
" style="stroke: #ffffff; stroke-linejoin: miter"/>
    </defs>
    <g clip-path="url(#p8504d407b7)">
     <use xlink:href="#mef0db196b3" x="1086.158298" y="889.475059" style="fill: #ef4444; stroke: #ffffff; stroke-linejoin: miter"/>
    </g>
   </g>
   <g id="text_1">
    <text style="fill: #111827; font: 700 22px 'Apple SD Gothic Neo'; text-anchor: start" x="54.689362" y="24.889375" transform="rotate(-0 54.689362 24.889375)">t_coupon_issue INSERT 부하 개선</text>
   </g>
   <g id="text_2">
    <text style="fill: #6b7280; font: 13px 'Apple SD Gothic Neo'; text-anchor: start" x="54.689362" y="41.061636" transform="rotate(-0 54.689362 41.061636)">Implementation Gantt Chart</text>
   </g>
   <g id="text_3">
    <text style="fill: #111827; font: 700 14px 'Apple SD Gothic Neo'; text-anchor: end" x="1279.914894" y="25.736875" transform="rotate(-0 1279.914894 25.736875)">Total 118 MD</text>
   </g>
   <g id="text_4">
    <text style="fill: #6b7280; font: 11px 'Apple SD Gothic Neo'; text-anchor: end" x="1279.914894" y="41.273511" transform="rotate(-0 1279.914894 41.273511)">10 Weeks  /  5 Roles</text>
   </g>
   <g id="text_5">
    <text style="fill: #6b7280; font: 500 9px 'Apple SD Gothic Neo'" transform="translate(248.699681 75.248011)">W1</text>
    <text style="fill: #6b7280; font: 500 9px 'Apple SD Gothic Neo'" transform="translate(248.519681 85.069682)">4/1</text>
   </g>
   <g id="text_6">
    <text style="fill: #6b7280; font: 500 9px 'Apple SD Gothic Neo'" transform="translate(342.886686 75.248011)">W2</text>
    <text style="fill: #6b7280; font: 500 9px 'Apple SD Gothic Neo'" transform="translate(342.900045 85.069682)">4/7</text>
   </g>
   <g id="text_7">
    <text style="fill: #6b7280; font: 500 9px 'Apple SD Gothic Neo'" transform="translate(437.85205 75.248011)">W3</text>
    <text style="fill: #6b7280; font: 500 9px 'Apple SD Gothic Neo'" transform="translate(435.979628 85.069682)">4/14</text>
   </g>
   <g id="text_8">
    <text style="fill: #6b7280; font: 500 9px 'Apple SD Gothic Neo'" transform="translate(532.744992 75.248011)">W4</text>
    <text style="fill: #6b7280; font: 500 9px 'Apple SD Gothic Neo'" transform="translate(531.057492 85.069682)">4/21</text>
   </g>
   <g id="text_9">
    <text style="fill: #6b7280; font: 500 9px 'Apple SD Gothic Neo'" transform="translate(627.975434 75.248011)">W5</text>
    <text style="fill: #6b7280; font: 500 9px 'Apple SD Gothic Neo'" transform="translate(625.055356 85.069682)">4/28</text>
   </g>
   <g id="text_10">
    <text style="fill: #6b7280; font: 500 9px 'Apple SD Gothic Neo'" transform="translate(722.706657 75.248011)">W6</text>
    <text style="fill: #6b7280; font: 500 9px 'Apple SD Gothic Neo'" transform="translate(723.025876 85.069682)">5/5</text>
   </g>
   <g id="text_11">
    <text style="fill: #6b7280; font: 500 9px 'Apple SD Gothic Neo'" transform="translate(817.973662 75.248011)">W7</text>
    <text style="fill: #6b7280; font: 500 9px 'Apple SD Gothic Neo'" transform="translate(816.245381 85.069682)">5/12</text>
   </g>
   <g id="text_12">
    <text style="fill: #6b7280; font: 500 9px 'Apple SD Gothic Neo'" transform="translate(912.569885 75.248011)">W8</text>
    <text style="fill: #6b7280; font: 500 9px 'Apple SD Gothic Neo'" transform="translate(911.129182 85.069682)">5/19</text>
   </g>
   <g id="text_13">
    <text style="fill: #6b7280; font: 500 9px 'Apple SD Gothic Neo'" transform="translate(1007.642827 75.248011)">W9</text>
    <text style="fill: #6b7280; font: 500 9px 'Apple SD Gothic Neo'" transform="translate(1005.316187 85.069682)">5/26</text>
   </g>
   <g id="text_14">
    <text style="fill: #6b7280; font: 500 9px 'Apple SD Gothic Neo'" transform="translate(1100.673191 75.248011)">W10</text>
    <text style="fill: #6b7280; font: 500 9px 'Apple SD Gothic Neo'" transform="translate(1102.540691 85.069682)">6/2</text>
   </g>
   <g id="text_15">
    <text style="fill: #ef4444; font: 700 7.5px 'Apple SD Gothic Neo'; text-anchor: middle" x="254.144681" y="47.296998" transform="rotate(-0 254.144681 47.296998)">M0</text>
   </g>
   <g id="text_16">
    <text style="fill: #3b82f6; font: 700 7.5px 'Apple SD Gothic Neo'; text-anchor: middle" x="634.059574" y="47.296998" transform="rotate(-0 634.059574 47.296998)">M1</text>
   </g>
   <g id="text_17">
    <text style="fill: #3b82f6; font: 700 7.5px 'Apple SD Gothic Neo'; text-anchor: middle" x="824.017021" y="47.296998" transform="rotate(-0 824.017021 47.296998)">M2</text>
   </g>
   <g id="text_18">
    <text style="fill: #3b82f6; font: 700 7.5px 'Apple SD Gothic Neo'; text-anchor: middle" x="918.995745" y="47.296998" transform="rotate(-0 918.995745 47.296998)">M3</text>
   </g>
   <g id="text_19">
    <text style="fill: #3b82f6; font: 700 7.5px 'Apple SD Gothic Neo'; text-anchor: middle" x="1013.974468" y="47.296998" transform="rotate(-0 1013.974468 47.296998)">M4</text>
   </g>
   <g id="text_20">
    <text style="fill: #3b82f6; font: 700 7.5px 'Apple SD Gothic Neo'; text-anchor: middle" x="1108.953191" y="47.296998" transform="rotate(-0 1108.953191 47.296998)">M5</text>
   </g>
   <g id="text_21">
    <text style="fill: #111827; font: 700 10.5px 'Apple SD Gothic Neo'; text-anchor: start" x="54.689362" y="85.67848" transform="rotate(-0 54.689362 85.67848)">P0 설계확정</text>
   </g>
   <g id="text_22">
    <text style="fill: #9ca3af; font: 8.5px 'Apple SD Gothic Neo'; text-anchor: start" x="178.161702" y="85.890355" transform="rotate(-0 178.161702 85.890355)">12 MD</text>
   </g>
   <g id="text_23">
    <text style="fill: #3b82f6; font: 700 9.5px 'Apple SD Gothic Neo'; text-anchor: end" x="192.408511" y="112.933619" transform="rotate(-0 192.408511 112.933619)">BE-1</text>
   </g>
   <g id="patch_2">
    <path d="M 213.30383 120.272235 
L 294.985532 120.272235 
Q 301.634043 120.272235 301.634043 117.228471 
L 301.634043 102.444471 
Q 301.634043 99.400706 294.985532 99.400706 
L 213.30383 99.400706 
Q 206.655319 99.400706 206.655319 102.444471 
L 206.655319 117.228471 
Q 206.655319 120.272235 213.30383 120.272235 
z
" clip-path="url(#p8504d407b7)" style="fill: #3b82f6; opacity: 0.85"/>
   </g>
   <g id="text_24">
    <text style="fill: #1d4ed8; font: 700 9.5px 'Apple SD Gothic Neo'; text-anchor: end" x="192.408511" y="142.501619" transform="rotate(-0 192.408511 142.501619)">BE-2</text>
   </g>
   <g id="patch_3">
    <path d="M 213.30383 149.840235 
L 294.985532 149.840235 
Q 301.634043 149.840235 301.634043 146.796471 
L 301.634043 132.012471 
Q 301.634043 128.968706 294.985532 128.968706 
L 213.30383 128.968706 
Q 206.655319 128.968706 206.655319 132.012471 
L 206.655319 146.796471 
Q 206.655319 149.840235 213.30383 149.840235 
z
" clip-path="url(#p8504d407b7)" style="fill: #1d4ed8; opacity: 0.85"/>
   </g>
   <g id="text_25">
    <text style="fill: #f59e0b; font: 700 9.5px 'Apple SD Gothic Neo'; text-anchor: end" x="192.408511" y="172.069619" transform="rotate(-0 192.408511 172.069619)">DBA</text>
   </g>
   <g id="patch_4">
    <path d="M 213.30383 179.408235 
L 294.985532 179.408235 
Q 301.634043 179.408235 301.634043 176.364471 
L 301.634043 161.580471 
Q 301.634043 158.536706 294.985532 158.536706 
L 213.30383 158.536706 
Q 206.655319 158.536706 206.655319 161.580471 
L 206.655319 176.364471 
Q 206.655319 179.408235 213.30383 179.408235 
z
" clip-path="url(#p8504d407b7)" style="fill: #f59e0b; opacity: 0.85"/>
   </g>
   <g id="text_26">
    <text style="fill: #10b981; font: 700 9.5px 'Apple SD Gothic Neo'; text-anchor: end" x="192.408511" y="201.637619" transform="rotate(-0 192.408511 201.637619)">SRE</text>
   </g>
   <g id="patch_5">
    <path d="M 213.30383 208.976235 
L 294.985532 208.976235 
Q 301.634043 208.976235 301.634043 205.932471 
L 301.634043 191.148471 
Q 301.634043 188.104706 294.985532 188.104706 
L 213.30383 188.104706 
Q 206.655319 188.104706 206.655319 191.148471 
L 206.655319 205.932471 
Q 206.655319 208.976235 213.30383 208.976235 
z
" clip-path="url(#p8504d407b7)" style="fill: #10b981; opacity: 0.85"/>
   </g>
   <g id="text_27">
    <text style="fill: #8b5cf6; font: 700 9.5px 'Apple SD Gothic Neo'; text-anchor: end" x="192.408511" y="231.205619" transform="rotate(-0 192.408511 231.205619)">QA</text>
   </g>
   <g id="patch_6">
    <path d="M 213.30383 238.544235 
L 247.49617 238.544235 
Q 254.144681 238.544235 254.144681 235.500471 
L 254.144681 220.716471 
Q 254.144681 217.672706 247.49617 217.672706 
L 213.30383 217.672706 
Q 206.655319 217.672706 206.655319 220.716471 
L 206.655319 235.500471 
Q 206.655319 238.544235 213.30383 238.544235 
z
" clip-path="url(#p8504d407b7)" style="fill: #8b5cf6; opacity: 0.85"/>
   </g>
   <g id="text_28">
    <text style="fill: #111827; font: 700 10.5px 'Apple SD Gothic Neo'; text-anchor: start" x="54.689362" y="233.51848" transform="rotate(-0 54.689362 233.51848)">P1 개발</text>
   </g>
   <g id="text_29">
    <text style="fill: #9ca3af; font: 8.5px 'Apple SD Gothic Neo'; text-anchor: start" x="157.266383" y="233.730355" transform="rotate(-0 157.266383 233.730355)">55 MD</text>
   </g>
   <g id="text_30">
    <text style="fill: #3b82f6; font: 700 9.5px 'Apple SD Gothic Neo'; text-anchor: end" x="192.408511" y="260.773619" transform="rotate(-0 192.408511 260.773619)">BE-1</text>
   </g>
   <g id="patch_7">
    <path d="M 308.282553 268.112235 
L 484.942979 268.112235 
Q 491.591489 268.112235 491.591489 265.068471 
L 491.591489 250.284471 
Q 491.591489 247.240706 484.942979 247.240706 
L 308.282553 247.240706 
Q 301.634043 247.240706 301.634043 250.284471 
L 301.634043 265.068471 
Q 301.634043 268.112235 308.282553 268.112235 
z
" clip-path="url(#p8504d407b7)" style="fill: #3b82f6; opacity: 0.85"/>
   </g>
   <g id="patch_8">
    <path d="M 498.24 268.112235 
L 608.415319 268.112235 
Q 615.06383 268.112235 615.06383 265.068471 
L 615.06383 250.284471 
Q 615.06383 247.240706 608.415319 247.240706 
L 498.24 247.240706 
Q 491.591489 247.240706 491.591489 250.284471 
L 491.591489 265.068471 
Q 491.591489 268.112235 498.24 268.112235 
z
" clip-path="url(#p8504d407b7)" style="fill: #3b82f6; opacity: 0.85"/>
   </g>
   <g id="patch_9">
    <path d="M 621.71234 268.112235 
L 674.900426 268.112235 
Q 681.548936 268.112235 681.548936 265.068471 
L 681.548936 250.284471 
Q 681.548936 247.240706 674.900426 247.240706 
L 621.71234 247.240706 
Q 615.06383 247.240706 615.06383 250.284471 
L 615.06383 265.068471 
Q 615.06383 268.112235 621.71234 268.112235 
z
" clip-path="url(#p8504d407b7)" style="fill: #3b82f6; opacity: 0.85"/>
   </g>
   <g id="text_31">
    <text style="fill: #1d4ed8; font: 700 9.5px 'Apple SD Gothic Neo'; text-anchor: end" x="192.408511" y="290.341619" transform="rotate(-0 192.408511 290.341619)">BE-2</text>
   </g>
   <g id="patch_10">
    <path d="M 308.282553 297.680235 
L 674.900426 297.680235 
Q 681.548936 297.680235 681.548936 294.636471 
L 681.548936 279.852471 
Q 681.548936 276.808706 674.900426 276.808706 
L 308.282553 276.808706 
Q 301.634043 276.808706 301.634043 279.852471 
L 301.634043 294.636471 
Q 301.634043 297.680235 308.282553 297.680235 
z
" clip-path="url(#p8504d407b7)" style="fill: #1d4ed8; opacity: 0.85"/>
   </g>
   <g id="patch_11">
    <path d="M 308.282553 327.248235 
L 579.921702 327.248235 
Q 586.570213 327.248235 586.570213 324.204471 
L 586.570213 309.420471 
Q 586.570213 306.376706 579.921702 306.376706 
L 308.282553 306.376706 
Q 301.634043 306.376706 301.634043 309.420471 
L 301.634043 324.204471 
Q 301.634043 327.248235 308.282553 327.248235 
z
" clip-path="url(#p8504d407b7)" style="fill: #1d4ed8; opacity: 0.85"/>
   </g>
   <g id="patch_12">
    <path d="M 593.218723 327.248235 
L 674.900426 327.248235 
Q 681.548936 327.248235 681.548936 324.204471 
L 681.548936 309.420471 
Q 681.548936 306.376706 674.900426 306.376706 
L 593.218723 306.376706 
Q 586.570213 306.376706 586.570213 309.420471 
L 586.570213 324.204471 
Q 586.570213 327.248235 593.218723 327.248235 
z
" clip-path="url(#p8504d407b7)" style="fill: #1d4ed8; opacity: 0.85"/>
   </g>
   <g id="patch_13">
    <path d="M 593.218723 356.816235 
L 674.900426 356.816235 
Q 681.548936 356.816235 681.548936 353.772471 
L 681.548936 338.988471 
Q 681.548936 335.944706 674.900426 335.944706 
L 593.218723 335.944706 
Q 586.570213 335.944706 586.570213 338.988471 
L 586.570213 353.772471 
Q 586.570213 356.816235 593.218723 356.816235 
z
" clip-path="url(#p8504d407b7)" style="fill: #1d4ed8; opacity: 0.85"/>
   </g>
   <g id="text_32">
    <text style="fill: #f59e0b; font: 700 9.5px 'Apple SD Gothic Neo'; text-anchor: end" x="192.408511" y="379.045619" transform="rotate(-0 192.408511 379.045619)">DBA</text>
   </g>
   <g id="patch_14">
    <path d="M 308.282553 386.384235 
L 579.921702 386.384235 
Q 586.570213 386.384235 586.570213 383.340471 
L 586.570213 368.556471 
Q 586.570213 365.512706 579.921702 365.512706 
L 308.282553 365.512706 
Q 301.634043 365.512706 301.634043 368.556471 
L 301.634043 383.340471 
Q 301.634043 386.384235 308.282553 386.384235 
z
" clip-path="url(#p8504d407b7)" style="fill: #f59e0b; opacity: 0.85"/>
   </g>
   <g id="text_33">
    <text style="fill: #10b981; font: 700 9.5px 'Apple SD Gothic Neo'; text-anchor: end" x="192.408511" y="408.613619" transform="rotate(-0 192.408511 408.613619)">SRE</text>
   </g>
   <g id="patch_15">
    <path d="M 308.282553 415.952235 
L 579.921702 415.952235 
Q 586.570213 415.952235 586.570213 412.908471 
L 586.570213 398.124471 
Q 586.570213 395.080706 579.921702 395.080706 
L 308.282553 395.080706 
Q 301.634043 395.080706 301.634043 398.124471 
L 301.634043 412.908471 
Q 301.634043 415.952235 308.282553 415.952235 
z
" clip-path="url(#p8504d407b7)" style="fill: #10b981; opacity: 0.85"/>
   </g>
   <g id="text_34">
    <text style="fill: #8b5cf6; font: 700 9.5px 'Apple SD Gothic Neo'; text-anchor: end" x="192.408511" y="438.181619" transform="rotate(-0 192.408511 438.181619)">QA</text>
   </g>
   <g id="patch_16">
    <path d="M 498.24 445.520235 
L 674.900426 445.520235 
Q 681.548936 445.520235 681.548936 442.476471 
L 681.548936 427.692471 
Q 681.548936 424.648706 674.900426 424.648706 
L 498.24 424.648706 
Q 491.591489 424.648706 491.591489 427.692471 
L 491.591489 442.476471 
Q 491.591489 445.520235 498.24 445.520235 
z
" clip-path="url(#p8504d407b7)" style="fill: #8b5cf6; opacity: 0.85"/>
   </g>
   <g id="text_35">
    <text style="fill: #111827; font: 700 10.5px 'Apple SD Gothic Neo'; text-anchor: start" x="54.689362" y="440.49448" transform="rotate(-0 54.689362 440.49448)">P2 Shadow검증</text>
   </g>
   <g id="text_36">
    <text style="fill: #9ca3af; font: 8.5px 'Apple SD Gothic Neo'; text-anchor: start" x="197.157447" y="440.706355" transform="rotate(-0 197.157447 440.706355)">31 MD</text>
   </g>
   <g id="text_37">
    <text style="fill: #3b82f6; font: 700 9.5px 'Apple SD Gothic Neo'; text-anchor: end" x="192.408511" y="467.749619" transform="rotate(-0 192.408511 467.749619)">BE-1</text>
   </g>
   <g id="patch_17">
    <path d="M 688.197447 475.088235 
L 864.857872 475.088235 
Q 871.506383 475.088235 871.506383 472.044471 
L 871.506383 457.260471 
Q 871.506383 454.216706 864.857872 454.216706 
L 688.197447 454.216706 
Q 681.548936 454.216706 681.548936 457.260471 
L 681.548936 472.044471 
Q 681.548936 475.088235 688.197447 475.088235 
z
" clip-path="url(#p8504d407b7)" style="fill: #3b82f6; opacity: 0.85"/>
   </g>
   <g id="patch_18">
    <path d="M 830.665532 504.656235 
L 864.857872 504.656235 
Q 871.506383 504.656235 871.506383 501.612471 
L 871.506383 486.828471 
Q 871.506383 483.784706 864.857872 483.784706 
L 830.665532 483.784706 
Q 824.017021 483.784706 824.017021 486.828471 
L 824.017021 501.612471 
Q 824.017021 504.656235 830.665532 504.656235 
z
" clip-path="url(#p8504d407b7)" style="fill: #3b82f6; opacity: 0.85"/>
   </g>
   <g id="text_38">
    <text style="fill: #1d4ed8; font: 700 9.5px 'Apple SD Gothic Neo'; text-anchor: end" x="192.408511" y="526.885619" transform="rotate(-0 192.408511 526.885619)">BE-2</text>
   </g>
   <g id="patch_19">
    <path d="M 688.197447 534.224235 
L 864.857872 534.224235 
Q 871.506383 534.224235 871.506383 531.180471 
L 871.506383 516.396471 
Q 871.506383 513.352706 864.857872 513.352706 
L 688.197447 513.352706 
Q 681.548936 513.352706 681.548936 516.396471 
L 681.548936 531.180471 
Q 681.548936 534.224235 688.197447 534.224235 
z
" clip-path="url(#p8504d407b7)" style="fill: #1d4ed8; opacity: 0.85"/>
   </g>
   <g id="patch_20">
    <path d="M 830.665532 563.792235 
L 864.857872 563.792235 
Q 871.506383 563.792235 871.506383 560.748471 
L 871.506383 545.964471 
Q 871.506383 542.920706 864.857872 542.920706 
L 830.665532 542.920706 
Q 824.017021 542.920706 824.017021 545.964471 
L 824.017021 560.748471 
Q 824.017021 563.792235 830.665532 563.792235 
z
" clip-path="url(#p8504d407b7)" style="fill: #1d4ed8; opacity: 0.85"/>
   </g>
   <g id="text_39">
    <text style="fill: #f59e0b; font: 700 9.5px 'Apple SD Gothic Neo'; text-anchor: end" x="192.408511" y="586.021619" transform="rotate(-0 192.408511 586.021619)">DBA</text>
   </g>
   <g id="patch_21">
    <path d="M 688.197447 593.360235 
L 864.857872 593.360235 
Q 871.506383 593.360235 871.506383 590.316471 
L 871.506383 575.532471 
Q 871.506383 572.488706 864.857872 572.488706 
L 688.197447 572.488706 
Q 681.548936 572.488706 681.548936 575.532471 
L 681.548936 590.316471 
Q 681.548936 593.360235 688.197447 593.360235 
z
" clip-path="url(#p8504d407b7)" style="fill: #f59e0b; opacity: 0.85"/>
   </g>
   <g id="text_40">
    <text style="fill: #10b981; font: 700 9.5px 'Apple SD Gothic Neo'; text-anchor: end" x="192.408511" y="615.589619" transform="rotate(-0 192.408511 615.589619)">SRE</text>
   </g>
   <g id="patch_22">
    <path d="M 688.197447 622.928235 
L 864.857872 622.928235 
Q 871.506383 622.928235 871.506383 619.884471 
L 871.506383 605.100471 
Q 871.506383 602.056706 864.857872 602.056706 
L 688.197447 602.056706 
Q 681.548936 602.056706 681.548936 605.100471 
L 681.548936 619.884471 
Q 681.548936 622.928235 688.197447 622.928235 
z
" clip-path="url(#p8504d407b7)" style="fill: #10b981; opacity: 0.85"/>
   </g>
   <g id="text_41">
    <text style="fill: #8b5cf6; font: 700 9.5px 'Apple SD Gothic Neo'; text-anchor: end" x="192.408511" y="645.157619" transform="rotate(-0 192.408511 645.157619)">QA</text>
   </g>
   <g id="patch_23">
    <path d="M 688.197447 652.496235 
L 864.857872 652.496235 
Q 871.506383 652.496235 871.506383 649.452471 
L 871.506383 634.668471 
Q 871.506383 631.624706 864.857872 631.624706 
L 688.197447 631.624706 
Q 681.548936 631.624706 681.548936 634.668471 
L 681.548936 649.452471 
Q 681.548936 652.496235 688.197447 652.496235 
z
" clip-path="url(#p8504d407b7)" style="fill: #8b5cf6; opacity: 0.85"/>
   </g>
   <g id="text_42">
    <text style="fill: #111827; font: 700 10.5px 'Apple SD Gothic Neo'; text-anchor: start" x="54.689362" y="647.47048" transform="rotate(-0 54.689362 647.47048)">P3 전환·안정화</text>
   </g>
   <g id="text_43">
    <text style="fill: #9ca3af; font: 8.5px 'Apple SD Gothic Neo'; text-anchor: start" x="195.257872" y="647.682355" transform="rotate(-0 195.257872 647.682355)">20 MD</text>
   </g>
   <g id="text_44">
    <text style="fill: #3b82f6; font: 700 9.5px 'Apple SD Gothic Neo'; text-anchor: end" x="192.408511" y="674.725619" transform="rotate(-0 192.408511 674.725619)">BE-1</text>
   </g>
   <g id="patch_24">
    <path d="M 878.154894 682.064235 
L 959.836596 682.064235 
Q 966.485106 682.064235 966.485106 679.020471 
L 966.485106 664.236471 
Q 966.485106 661.192706 959.836596 661.192706 
L 878.154894 661.192706 
Q 871.506383 661.192706 871.506383 664.236471 
L 871.506383 679.020471 
Q 871.506383 682.064235 878.154894 682.064235 
z
" clip-path="url(#p8504d407b7)" style="fill: #3b82f6; opacity: 0.85"/>
   </g>
   <g id="text_45">
    <text style="fill: #1d4ed8; font: 700 9.5px 'Apple SD Gothic Neo'; text-anchor: end" x="192.408511" y="704.293619" transform="rotate(-0 192.408511 704.293619)">BE-2</text>
   </g>
   <g id="patch_25">
    <path d="M 878.154894 711.632235 
L 959.836596 711.632235 
Q 966.485106 711.632235 966.485106 708.588471 
L 966.485106 693.804471 
Q 966.485106 690.760706 959.836596 690.760706 
L 878.154894 690.760706 
Q 871.506383 690.760706 871.506383 693.804471 
L 871.506383 708.588471 
Q 871.506383 711.632235 878.154894 711.632235 
z
" clip-path="url(#p8504d407b7)" style="fill: #1d4ed8; opacity: 0.85"/>
   </g>
   <g id="text_46">
    <text style="fill: #f59e0b; font: 700 9.5px 'Apple SD Gothic Neo'; text-anchor: end" x="192.408511" y="733.861619" transform="rotate(-0 192.408511 733.861619)">DBA</text>
   </g>
   <g id="patch_26">
    <path d="M 878.154894 741.200235 
L 1054.815319 741.200235 
Q 1061.46383 741.200235 1061.46383 738.156471 
L 1061.46383 723.372471 
Q 1061.46383 720.328706 1054.815319 720.328706 
L 878.154894 720.328706 
Q 871.506383 720.328706 871.506383 723.372471 
L 871.506383 738.156471 
Q 871.506383 741.200235 878.154894 741.200235 
z
" clip-path="url(#p8504d407b7)" style="fill: #f59e0b; opacity: 0.85"/>
   </g>
   <g id="text_47">
    <text style="fill: #10b981; font: 700 9.5px 'Apple SD Gothic Neo'; text-anchor: end" x="192.408511" y="763.429619" transform="rotate(-0 192.408511 763.429619)">SRE</text>
   </g>
   <g id="patch_27">
    <path d="M 878.154894 770.768235 
L 1054.815319 770.768235 
Q 1061.46383 770.768235 1061.46383 767.724471 
L 1061.46383 752.940471 
Q 1061.46383 749.896706 1054.815319 749.896706 
L 878.154894 749.896706 
Q 871.506383 749.896706 871.506383 752.940471 
L 871.506383 767.724471 
Q 871.506383 770.768235 878.154894 770.768235 
z
" clip-path="url(#p8504d407b7)" style="fill: #10b981; opacity: 0.85"/>
   </g>
   <g id="text_48">
    <text style="fill: #8b5cf6; font: 700 9.5px 'Apple SD Gothic Neo'; text-anchor: end" x="192.408511" y="792.997619" transform="rotate(-0 192.408511 792.997619)">QA</text>
   </g>
   <g id="patch_28">
    <path d="M 878.154894 800.336235 
L 959.836596 800.336235 
Q 966.485106 800.336235 966.485106 797.292471 
L 966.485106 782.508471 
Q 966.485106 779.464706 959.836596 779.464706 
L 878.154894 779.464706 
Q 871.506383 779.464706 871.506383 782.508471 
L 871.506383 797.292471 
Q 871.506383 800.336235 878.154894 800.336235 
z
" clip-path="url(#p8504d407b7)" style="fill: #8b5cf6; opacity: 0.85"/>
   </g>
   <g id="text_49">
    <text style="fill: #111827; font: 700 10.5px 'Apple SD Gothic Neo'; text-anchor: start" x="54.689362" y="795.31048" transform="rotate(-0 54.689362 795.31048)">후속</text>
   </g>
   <g id="text_50">
    <text style="fill: #f59e0b; font: 700 9.5px 'Apple SD Gothic Neo'; text-anchor: end" x="192.408511" y="822.565619" transform="rotate(-0 192.408511 822.565619)">DBA</text>
   </g>
   <g id="patch_29">
    <path d="M 1068.11234 829.904235 
L 1149.794043 829.904235 
Q 1156.442553 829.904235 1156.442553 826.860471 
L 1156.442553 812.076471 
Q 1156.442553 809.032706 1149.794043 809.032706 
L 1068.11234 809.032706 
Q 1061.46383 809.032706 1061.46383 812.076471 
L 1061.46383 826.860471 
Q 1061.46383 829.904235 1068.11234 829.904235 
z
" clip-path="url(#p8504d407b7)" style="fill: #f59e0b; opacity: 0.85"/>
   </g>
   <g id="patch_30">
    <path d="M 58.488511 892.953647 
L 77.484255 892.953647 
Q 81.283404 892.953647 81.283404 891.214353 
L 81.283404 887.735765 
Q 81.283404 885.996471 77.484255 885.996471 
L 58.488511 885.996471 
Q 54.689362 885.996471 54.689362 887.735765 
L 54.689362 891.214353 
Q 54.689362 892.953647 58.488511 892.953647 
z
" clip-path="url(#p8504d407b7)" style="fill: #3b82f6; opacity: 0.85"/>
   </g>
   <g id="text_51">
    <text style="fill: #111827; font: 9px 'Apple SD Gothic Neo'; text-anchor: start" x="88.881702" y="892.409199" transform="rotate(-0 88.881702 892.409199)">BE-1</text>
   </g>
   <g id="patch_31">
    <path d="M 200.956596 892.953647 
L 219.95234 892.953647 
Q 223.751489 892.953647 223.751489 891.214353 
L 223.751489 887.735765 
Q 223.751489 885.996471 219.95234 885.996471 
L 200.956596 885.996471 
Q 197.157447 885.996471 197.157447 887.735765 
L 197.157447 891.214353 
Q 197.157447 892.953647 200.956596 892.953647 
z
" clip-path="url(#p8504d407b7)" style="fill: #1d4ed8; opacity: 0.85"/>
   </g>
   <g id="text_52">
    <text style="fill: #111827; font: 9px 'Apple SD Gothic Neo'; text-anchor: start" x="231.349787" y="892.409199" transform="rotate(-0 231.349787 892.409199)">BE-2</text>
   </g>
   <g id="patch_32">
    <path d="M 343.424681 892.953647 
L 362.420426 892.953647 
Q 366.219574 892.953647 366.219574 891.214353 
L 366.219574 887.735765 
Q 366.219574 885.996471 362.420426 885.996471 
L 343.424681 885.996471 
Q 339.625532 885.996471 339.625532 887.735765 
L 339.625532 891.214353 
Q 339.625532 892.953647 343.424681 892.953647 
z
" clip-path="url(#p8504d407b7)" style="fill: #f59e0b; opacity: 0.85"/>
   </g>
   <g id="text_53">
    <text style="fill: #111827; font: 9px 'Apple SD Gothic Neo'; text-anchor: start" x="373.817872" y="892.409199" transform="rotate(-0 373.817872 892.409199)">DBA</text>
   </g>
   <g id="patch_33">
    <path d="M 485.892766 892.953647 
L 504.888511 892.953647 
Q 508.68766 892.953647 508.68766 891.214353 
L 508.68766 887.735765 
Q 508.68766 885.996471 504.888511 885.996471 
L 485.892766 885.996471 
Q 482.093617 885.996471 482.093617 887.735765 
L 482.093617 891.214353 
Q 482.093617 892.953647 485.892766 892.953647 
z
" clip-path="url(#p8504d407b7)" style="fill: #10b981; opacity: 0.85"/>
   </g>
   <g id="text_54">
    <text style="fill: #111827; font: 9px 'Apple SD Gothic Neo'; text-anchor: start" x="516.285957" y="892.409199" transform="rotate(-0 516.285957 892.409199)">SRE</text>
   </g>
   <g id="patch_34">
    <path d="M 628.360851 892.953647 
L 647.356596 892.953647 
Q 651.155745 892.953647 651.155745 891.214353 
L 651.155745 887.735765 
Q 651.155745 885.996471 647.356596 885.996471 
L 628.360851 885.996471 
Q 624.561702 885.996471 624.561702 887.735765 
L 624.561702 891.214353 
Q 624.561702 892.953647 628.360851 892.953647 
z
" clip-path="url(#p8504d407b7)" style="fill: #8b5cf6; opacity: 0.85"/>
   </g>
   <g id="text_55">
    <text style="fill: #111827; font: 9px 'Apple SD Gothic Neo'; text-anchor: start" x="658.754043" y="892.409199" transform="rotate(-0 658.754043 892.409199)">QA</text>
   </g>
   <g id="text_56">
    <text style="fill: #ef4444; font: 6px 'Apple SD Gothic Neo'; text-anchor: start" x="795.523404" y="891.431153" transform="rotate(-0 795.523404 891.431153)">●</text>
   </g>
   <g id="text_57">
    <text style="fill: #111827; font: 9px 'Apple SD Gothic Neo'; text-anchor: start" x="808.820426" y="892.409199" transform="rotate(-0 808.820426 892.409199)">Critical Path</text>
   </g>
   <g id="text_58">
    <text style="fill: #111827; font: 9px 'Apple SD Gothic Neo'; text-anchor: start" x="968.384681" y="892.409199" transform="rotate(-0 968.384681 892.409199)">Milestone</text>
   </g>
   <g id="text_59">
    <text style="fill: #111827; font: 9px 'Apple SD Gothic Neo'; text-anchor: start" x="1101.354894" y="892.409199" transform="rotate(-0 1101.354894 892.409199)">GATE</text>
   </g>
   <g id="text_60">
    <text style="fill: #ef4444; font: 5px 'Apple SD Gothic Neo'; text-anchor: middle" x="215.583319" y="111.466549" transform="rotate(-0 215.583319 111.466549)">●</text>
   </g>
   <g id="text_61">
    <text style="fill: #ffffff; font: 500 8.5px 'Apple SD Gothic Neo'; text-anchor: middle" x="254.144681" y="112.654752" transform="rotate(-0 254.144681 112.654752)">벤치마크·리뷰 (2)</text>
   </g>
   <g id="text_62">
    <text style="fill: #ffffff; font: 500 8.5px 'Apple SD Gothic Neo'; text-anchor: middle" x="254.144681" y="142.244002" transform="rotate(-0 254.144681 142.244002)">리뷰·구조확정 (2)</text>
   </g>
   <g id="text_63">
    <text style="fill: #ffffff; font: 500 8.5px 'Apple SD Gothic Neo'; text-anchor: middle" x="254.144681" y="171.786767" transform="rotate(-0 254.144681 171.786767)">벤치마크·분석 (3)</text>
   </g>
   <g id="text_64">
    <text style="fill: #ffffff; font: 500 8.5px 'Apple SD Gothic Neo'; text-anchor: middle" x="254.144681" y="201.354767" transform="rotate(-0 254.144681 201.354767)">정책·대시보드 (4)</text>
   </g>
   <g id="text_65">
    <g id="patch_35">
     <path d="M 261.742979 231.948471 
L 306.375479 231.948471 
Q 306.695479 231.948471 306.695479 231.628471 
L 306.695479 224.588471 
Q 306.695479 224.268471 306.375479 224.268471 
L 261.742979 224.268471 
Q 261.422979 224.268471 261.422979 224.588471 
L 261.422979 231.628471 
Q 261.422979 231.948471 261.742979 231.948471 
z
" style="fill: #ffffff; opacity: 0.85"/>
    </g>
    <text style="fill: #111827; font: 8px 'Apple SD Gothic Neo'; text-anchor: start" x="261.742979" y="230.780971" transform="rotate(-0 261.742979 230.780971)">테스트계획 (1)</text>
   </g>
   <g id="text_66">
    <text style="fill: #ef4444; font: 5px 'Apple SD Gothic Neo'; text-anchor: middle" x="349.123404" y="259.306549" transform="rotate(-0 349.123404 259.306549)">●</text>
   </g>
   <g id="text_67">
    <text style="fill: #ffffff; font: 500 8.5px 'Apple SD Gothic Neo'; text-anchor: middle" x="396.612766" y="260.507369" transform="rotate(-0 396.612766 260.507369)">gate_keeper Lua (5)</text>
   </g>
   <g id="text_68">
    <text style="fill: #ef4444; font: 5px 'Apple SD Gothic Neo'; text-anchor: middle" x="509.637447" y="259.306549" transform="rotate(-0 509.637447 259.306549)">●</text>
   </g>
   <g id="text_69">
    <text style="fill: #ffffff; font: 500 8.5px 'Apple SD Gothic Neo'; text-anchor: middle" x="553.32766" y="260.507369" transform="rotate(-0 553.32766 260.507369)">compensate·FF (5)</text>
   </g>
   <g id="text_70">
    <g id="patch_36">
     <path d="M 689.147234 261.492721 
L 746.955984 261.492721 
Q 747.275984 261.492721 747.275984 261.172721 
L 747.275984 254.180221 
Q 747.275984 253.860221 746.955984 253.860221 
L 689.147234 253.860221 
Q 688.827234 253.860221 688.827234 254.180221 
L 688.827234 261.172721 
Q 688.827234 261.492721 689.147234 261.492721 
z
" style="fill: #ffffff; opacity: 0.85"/>
    </g>
    <text style="fill: #111827; font: 8px 'Apple SD Gothic Neo'; text-anchor: start" x="689.147234" y="260.325221" transform="rotate(-0 689.147234 260.325221)">Shadow준비 (4.5)</text>
   </g>
   <g id="text_71">
    <text style="fill: #ef4444; font: 5px 'Apple SD Gothic Neo'; text-anchor: middle" x="462.907915" y="288.874549" transform="rotate(-0 462.907915 288.874549)">●</text>
   </g>
   <g id="text_72">
    <text style="fill: #ffffff; font: 500 8.5px 'Apple SD Gothic Neo'; text-anchor: middle" x="491.591489" y="290.0674" transform="rotate(-0 491.591489 290.0674)">MC통합 (8)</text>
   </g>
   <g id="text_73">
    <text style="fill: #ffffff; font: 500 8.5px 'Apple SD Gothic Neo'; text-anchor: middle" x="444.102128" y="319.626767" transform="rotate(-0 444.102128 319.626767)">보상워커 (7)</text>
   </g>
   <g id="text_74">
    <text style="fill: #ffffff; font: 500 8.5px 'Apple SD Gothic Neo'; text-anchor: middle" x="634.059574" y="319.583603" transform="rotate(-0 634.059574 319.583603)">Reconciliation (6)</text>
   </g>
   <g id="text_75">
    <text style="fill: #ffffff; font: 500 8.5px 'Apple SD Gothic Neo'; text-anchor: middle" x="634.059574" y="349.194767" transform="rotate(-0 634.059574 349.194767)">Shadow준비 (4.5)</text>
   </g>
   <g id="text_76">
    <text style="fill: #ffffff; font: 500 8.5px 'Apple SD Gothic Neo'; text-anchor: middle" x="444.102128" y="378.788002" transform="rotate(-0 444.102128 378.788002)">인덱스사용처확인 (5)</text>
   </g>
   <g id="text_77">
    <text style="fill: #ffffff; font: 500 8.5px 'Apple SD Gothic Neo'; text-anchor: middle" x="444.102128" y="408.356002" transform="rotate(-0 444.102128 408.356002)">대시보드구축 (6)</text>
   </g>
   <g id="text_78">
    <text style="fill: #ffffff; font: 500 8.5px 'Apple SD Gothic Neo'; text-anchor: middle" x="586.570213" y="437.902752" transform="rotate(-0 586.570213 437.902752)">케이스작성 (4)</text>
   </g>
   <g id="text_79">
    <text style="fill: #ef4444; font: 5px 'Apple SD Gothic Neo'; text-anchor: middle" x="740.245787" y="466.282549" transform="rotate(-0 740.245787 466.282549)">●</text>
   </g>
   <g id="text_80">
    <text style="fill: #ffffff; font: 500 8.5px 'Apple SD Gothic Neo'; text-anchor: middle" x="776.52766" y="467.4754" transform="rotate(-0 776.52766 467.4754)">Shadow운영 (4)</text>
   </g>
   <g id="text_81">
    <g id="patch_37">
     <path d="M 879.104681 498.040471 
L 925.144681 498.040471 
Q 925.464681 498.040471 925.464681 497.720471 
L 925.464681 490.720471 
Q 925.464681 490.400471 925.144681 490.400471 
L 879.104681 490.400471 
Q 878.784681 490.400471 878.784681 490.720471 
L 878.784681 497.720471 
Q 878.784681 498.040471 879.104681 498.040471 
z
" style="fill: #ffffff; opacity: 0.85"/>
    </g>
    <text style="fill: #111827; font: 8px 'Apple SD Gothic Neo'; text-anchor: start" x="879.104681" y="496.872971" transform="rotate(-0 879.104681 496.872971)">부하테스트 (2)</text>
   </g>
   <g id="text_82">
    <text style="fill: #ffffff; font: 500 8.5px 'Apple SD Gothic Neo'; text-anchor: middle" x="776.52766" y="526.564252" transform="rotate(-0 776.52766 526.564252)">Recon diff검증 (4)</text>
   </g>
   <g id="text_83">
    <g id="patch_38">
     <path d="M 879.104681 557.176471 
L 925.144681 557.176471 
Q 925.464681 557.176471 925.464681 556.856471 
L 925.464681 549.856471 
Q 925.464681 549.536471 925.144681 549.536471 
L 879.104681 549.536471 
Q 878.784681 549.536471 878.784681 549.856471 
L 878.784681 556.856471 
Q 878.784681 557.176471 879.104681 557.176471 
z
" style="fill: #ffffff; opacity: 0.85"/>
    </g>
    <text style="fill: #111827; font: 8px 'Apple SD Gothic Neo'; text-anchor: start" x="879.104681" y="556.008971" transform="rotate(-0 879.104681 556.008971)">부하테스트 (2)</text>
   </g>
   <g id="text_84">
    <text style="fill: #ffffff; font: 500 8.5px 'Apple SD Gothic Neo'; text-anchor: middle" x="776.52766" y="585.764002" transform="rotate(-0 776.52766 585.764002)">삭제/복구리허설 (4)</text>
   </g>
   <g id="text_85">
    <text style="fill: #ffffff; font: 500 8.5px 'Apple SD Gothic Neo'; text-anchor: middle" x="776.52766" y="615.306767" transform="rotate(-0 776.52766 615.306767)">모니터링강화 (5)</text>
   </g>
   <g id="text_86">
    <text style="fill: #ffffff; font: 500 8.5px 'Apple SD Gothic Neo'; text-anchor: middle" x="776.52766" y="644.8834" transform="rotate(-0 776.52766 644.8834)">전수QA (10)</text>
   </g>
   <g id="text_87">
    <text style="fill: #ef4444; font: 5px 'Apple SD Gothic Neo'; text-anchor: middle" x="880.814298" y="673.258549" transform="rotate(-0 880.814298 673.258549)">●</text>
   </g>
   <g id="text_88">
    <text style="fill: #ffffff; font: 500 8.5px 'Apple SD Gothic Neo'; text-anchor: middle" x="918.995745" y="674.408236" transform="rotate(-0 918.995745 674.408236)">MC 100%전환 (3)</text>
   </g>
   <g id="text_89">
    <text style="fill: #ffffff; font: 500 8.5px 'Apple SD Gothic Neo'; text-anchor: middle" x="918.995745" y="704.010767" transform="rotate(-0 918.995745 704.010767)">인덱스삭제지원 (3)</text>
   </g>
   <g id="text_90">
    <text style="fill: #ffffff; font: 500 8.5px 'Apple SD Gothic Neo'; text-anchor: middle" x="966.485106" y="733.578767" transform="rotate(-0 966.485106 733.578767)">삭제·모니터링 (5)</text>
   </g>
   <g id="text_91">
    <text style="fill: #ffffff; font: 500 8.5px 'Apple SD Gothic Neo'; text-anchor: middle" x="966.485106" y="763.146767" transform="rotate(-0 966.485106 763.146767)">7일안정화 (5)</text>
   </g>
   <g id="text_92">
    <text style="fill: #ffffff; font: 500 8.5px 'Apple SD Gothic Neo'; text-anchor: middle" x="918.995745" y="792.714767" transform="rotate(-0 918.995745 792.714767)">회귀테스트 (4)</text>
   </g>
   <g id="text_93">
    <text style="fill: #ef4444; font: 5px 'Apple SD Gothic Neo'; text-anchor: middle" x="1077.990128" y="821.098549" transform="rotate(-0 1077.990128 821.098549)">●</text>
   </g>
   <g id="text_94">
    <text style="fill: #ffffff; font: 500 8.5px 'Apple SD Gothic Neo'; text-anchor: middle" x="1108.953191" y="822.282767" transform="rotate(-0 1108.953191 822.282767)">인덱스6개삭제</text>
   </g>
   <g id="line2d_16">
    <path d="M 254.144681 57.657647 
" clip-path="url(#p8504d407b7)" style="fill: none; stroke: #ef4444; stroke-width: 1.5; stroke-linecap: square"/>
    <defs>
     <path id="m0ef6d6e03f" d="M -0 4.949747 
L 4.949747 0 
L 0 -4.949747 
L -4.949747 -0 
z
" style="stroke: #ffffff; stroke-width: 1.5; stroke-linejoin: miter"/>
    </defs>
    <g clip-path="url(#p8504d407b7)">
     <use xlink:href="#m0ef6d6e03f" x="254.144681" y="57.657647" style="fill: #ef4444; stroke: #ffffff; stroke-width: 1.5; stroke-linejoin: miter"/>
    </g>
   </g>
   <g id="line2d_17">
    <path d="M 634.059574 57.657647 
" clip-path="url(#p8504d407b7)" style="fill: none; stroke: #3b82f6; stroke-width: 1.5; stroke-linecap: square"/>
    <defs>
     <path id="mdeae277dd8" d="M -0 4.949747 
L 4.949747 0 
L 0 -4.949747 
L -4.949747 -0 
z
" style="stroke: #ffffff; stroke-width: 1.5; stroke-linejoin: miter"/>
    </defs>
    <g clip-path="url(#p8504d407b7)">
     <use xlink:href="#mdeae277dd8" x="634.059574" y="57.657647" style="fill: #3b82f6; stroke: #ffffff; stroke-width: 1.5; stroke-linejoin: miter"/>
    </g>
   </g>
   <g id="line2d_18">
    <path d="M 824.017021 57.657647 
" clip-path="url(#p8504d407b7)" style="fill: none; stroke: #3b82f6; stroke-width: 1.5; stroke-linecap: square"/>
    <g clip-path="url(#p8504d407b7)">
     <use xlink:href="#mdeae277dd8" x="824.017021" y="57.657647" style="fill: #3b82f6; stroke: #ffffff; stroke-width: 1.5; stroke-linejoin: miter"/>
    </g>
   </g>
   <g id="line2d_19">
    <path d="M 918.995745 57.657647 
" clip-path="url(#p8504d407b7)" style="fill: none; stroke: #3b82f6; stroke-width: 1.5; stroke-linecap: square"/>
    <g clip-path="url(#p8504d407b7)">
     <use xlink:href="#mdeae277dd8" x="918.995745" y="57.657647" style="fill: #3b82f6; stroke: #ffffff; stroke-width: 1.5; stroke-linejoin: miter"/>
    </g>
   </g>
   <g id="line2d_20">
    <path d="M 1013.974468 57.657647 
" clip-path="url(#p8504d407b7)" style="fill: none; stroke: #3b82f6; stroke-width: 1.5; stroke-linecap: square"/>
    <g clip-path="url(#p8504d407b7)">
     <use xlink:href="#mdeae277dd8" x="1013.974468" y="57.657647" style="fill: #3b82f6; stroke: #ffffff; stroke-width: 1.5; stroke-linejoin: miter"/>
    </g>
   </g>
   <g id="line2d_21">
    <path d="M 1108.953191 57.657647 
" clip-path="url(#p8504d407b7)" style="fill: none; stroke: #3b82f6; stroke-width: 1.5; stroke-linecap: square"/>
    <g clip-path="url(#p8504d407b7)">
     <use xlink:href="#mdeae277dd8" x="1108.953191" y="57.657647" style="fill: #3b82f6; stroke: #ffffff; stroke-width: 1.5; stroke-linejoin: miter"/>
    </g>
   </g>
  </g>
 </g>
 <defs>
  <clipPath id="p8504d407b7">
   <rect x="7.2" y="9.827059" width="1339.2" height="887.04"/>
  </clipPath>
 </defs>
</svg>
